<?xml version="1.0" encoding="UTF-8" standalone="no"?>
<svg
   width="128.06161"
   height="94.879166"
   viewBox="0 0 128.06161 94.879166"
   fill="none"
   version="1.1"
   id="svg46"
   sodipodi:docname="Slice 6.svg"
   inkscape:version="1.4.4 (dcaf3e7d, 2026-05-05)"
   xmlns:inkscape="http://www.inkscape.org/namespaces/inkscape"
   xmlns:sodipodi="http://sodipodi.sourceforge.net/DTD/sodipodi-0.dtd"
   xmlns="http://www.w3.org/2000/svg"
   xmlns:svg="http://www.w3.org/2000/svg">
  <defs
     id="defs46" />
  <sodipodi:namedview
     id="namedview46"
     pagecolor="#ffffff"
     bordercolor="#666666"
     borderopacity="1.0"
     inkscape:showpageshadow="2"
     inkscape:pageopacity="0.0"
     inkscape:pagecheckerboard="0"
     inkscape:deskcolor="#d1d1d1"
     inkscape:zoom="0.208"
     inkscape:cx="50.480769"
     inkscape:cy="48.076923"
     inkscape:window-width="944"
     inkscape:window-height="245"
     inkscape:window-x="0"
     inkscape:window-y="25"
     inkscape:window-maximized="0"
     inkscape:current-layer="svg46" />
  <path
     d="m 30.115722,5.0456292 c 1.0626,0.3226 2.1253,0.6452 3.2201,0.9776 3.4683,1.055 6.9343,2.1176 10.3999,3.1816 1.1871,0.3635 2.3742,0.7271 3.5973,1.1015998 6.2021,1.8993 12.4024,3.804 18.6015,5.7133 6.1199,1.8834 12.2459,3.7459 18.3749,5.6018 4.553,1.3821 9.101,2.7783 13.648,4.1785 2.154998,0.6607 4.310998,1.3159 6.468998,1.9654 3.002,0.905 5.998,1.8305 8.992,2.7611 0.881,0.2603 1.761,0.5206 2.668,0.7887 5.138,1.6253 8.394,3.3336 11.86,7.7036 0.197,2.2151 0.197,2.2151 -0.45,4.3977 -0.238,0.8097 -0.477,1.6194 -0.723,2.4536 -1.458,4.0606 -3.05,7.9235 -4.998,11.7744 -0.485,0.9724 -0.97,1.9448 -1.47,2.9466 -8.093,15.0959 -21.214998,26.7997 -37.613998,31.9117 -11.13,2.831 -22.8284,3.367 -33.9416,0.323 -1.5035,-0.4 -1.5035,-0.4 -3.0374,-0.808 -7.7477,-2.318 -14.0558,-5.8699 -20.6189,-10.5739 -1.0606,-0.7469 -2.1213,-1.4939 -3.2141,-2.2635 -12.6146997,-11.1828 -20.1298997,-27.9376 -21.69259966,-44.5977 -0.5752,-9.9013 0.0833,-19.2274 3.30759996,-28.6761998 0.3103,-0.943 0.6205,-1.8861 0.9401,-2.8577 0.3686,-0.7643 0.7372,-1.5286 1.117,-2.31609994 C 13.045822,-1.7804708 22.806522,2.7978292 30.115722,5.0456292 Z"
     fill="#ef2b21"
     id="path1" />
  <path
     d="m 8.6371223,4.8717292 c 3.3940997,0.683 6.7882997,1.3659 10.2852997,2.0696 -0.1697,1.4939 -0.3394,2.9878 -0.5143,4.5269998 -0.1831,2.2842 -0.3529,4.5695 -0.5143,6.8553 -0.0598,0.6821 -0.1196,1.3642 -0.1813,2.067 -1.2668,15.6754 2.7493,28.963 12.9094,41.1342 4.4942,4.5214 9.3715,7.7631 15.0423,10.6063 0.9228,0.5262 0.9228,0.5262 1.8642,1.063 4.8495,2.3633 9.8191,2.3246 15.1065,2.3646 1.0989,0.0088 1.0989,0.0088 2.2201,0.0177 12.5794,-0.1717 25.3924,-5.1775 34.2284,-14.3103 5.768998,-7.0402 9.551998,-15.7014 12.406998,-24.3168 1.524,0.2633 3.045,0.5475 4.564,0.8407 1.271,0.2341 1.271,0.2341 2.567,0.4729 0.702,0.2495 1.403,0.4989 2.126,0.7559 1.911,5.7691 -1.669,12.2131 -4.115,17.5909 -8.721,15.813 -20.347998,25.3555 -37.319998,31.1401 -6.463,1.586 -12.6508,1.354 -19.2488,0.937 -1.1309,-0.034 -2.2619,-0.069 -3.4271,-0.105 -5.6812,-0.273 -10.1458,-0.96 -15.0744,-3.8962 -2.2391,-1.3317 -2.2391,-1.3317 -5.5203,-2.5343 -12.1245,-5.1516 -21.383,-18.3111 -26.1833997,-30.1333 -5.6291,-15.9466 -5.3485,-30.8838 -1.2213,-47.1462998 z"
     fill="#31a741"
     id="path2" />
  <path
     d="m 30.115722,5.0456292 c 1.0626,0.3226 2.1253,0.6452 3.2201,0.9776 3.4683,1.055 6.9343,2.1176 10.3999,3.1816 1.1871,0.3635 2.3742,0.7271 3.5973,1.1015998 6.2021,1.8993 12.4024,3.804 18.6015,5.7133 6.1199,1.8834 12.2459,3.7459 18.3749,5.6018 4.553,1.3821 9.101,2.7783 13.648,4.1785 2.154998,0.6607 4.310998,1.3159 6.468998,1.9654 3.002,0.905 5.998,1.8305 8.992,2.7611 0.881,0.2603 1.761,0.5206 2.668,0.7887 5.138,1.6253 8.394,3.3336 11.86,7.7036 0.197,2.2151 0.197,2.2151 -0.45,4.3977 -0.238,0.8097 -0.477,1.6194 -0.723,2.4536 -1.458,4.0606 -3.05,7.9235 -4.998,11.7744 -0.485,0.9724 -0.97,1.9448 -1.47,2.9466 -8.093,15.0959 -21.214998,26.7997 -37.613998,31.9117 -11.13,2.831 -22.8284,3.367 -33.9416,0.323 -1.5035,-0.4 -1.5035,-0.4 -3.0374,-0.808 -7.7477,-2.318 -14.0558,-5.8699 -20.6189,-10.5739 -1.0606,-0.7469 -2.1213,-1.4939 -3.2141,-2.2635 -12.6146997,-11.1828 -20.1298997,-27.9376 -21.69259966,-44.5977 -0.5752,-9.9013 0.0833,-19.2274 3.30759996,-28.6761998 0.3103,-0.943 0.6205,-1.8861 0.9401,-2.8577 0.3686,-0.7643 0.7372,-1.5286 1.117,-2.31609994 C 13.045822,-1.7804708 22.806522,2.7978292 30.115722,5.0456292 Z m -21.4785997,-0.1738 c -4.9064,19.3329998 -4.4535,37.7167998 5.1305997,55.6465998 7.6011,12.2502 18.3291,21.4533 31.8965,26.0993 1.0182,0.5122 1.0182,0.5122 2.057,1.0351 4.0968,0.568 8.2159,0.787 12.3424,1.034 1.2105,0.094 2.421,0.187 3.6682,0.283 14.5766,0.654 27.3526,-4.314 38.501598,-13.7344 0.638,-0.5269 1.275,-1.0538 1.932,-1.5966 8.77,-7.9934 15.277,-19.8714 17.61,-31.5157 -0.339,-1.0244 -0.679,-2.0488 -1.028,-3.1043 -2.291,-1.0938 -2.291,-1.0938 -5.155,-1.8593 -1.631,-0.4895 -1.631,-0.4895 -3.294,-0.9888 -1.179,-0.3406 -2.358,-0.6813 -3.572,-1.0322 -2.462,-0.7345 -4.924,-1.4702 -7.385,-2.207 -1.238,-0.3671 -2.475998,-0.7343 -3.751998,-1.1125 -5.098,-1.5335 -10.158,-3.1784 -15.22,-4.8293 -7.055,-2.2851 -14.1348,-4.4101 -21.2773,-6.4025 -10.5995,-2.9568 -20.9991,-6.4883 -31.3923,-10.1003 -6.9705,-2.3923998 -13.7836,-4.4389998 -21.0626997,-5.6150998 z"
     fill="#071207"
     id="path3" />
  <path
     d="m 13.779722,7.9760292 c 1.6971,0 3.3942,0 5.1427,0 -0.1697,1.3232 -0.3394,2.6463998 -0.5143,4.0096998 -0.1862,2.1113 -0.3551,4.2243 -0.5142,6.3379 -0.0599,0.6659 -0.1197,1.3319 -0.1813,2.018 -1.2797,15.6908 2.7411,29.0022 12.9093,41.1832 4.4942,4.5214 9.3715,7.7631 15.0423,10.6063 0.6152,0.3508 1.2304,0.7016 1.8642,1.063 4.8495,2.3632 9.8191,2.3246 15.1065,2.3646 1.099,0.0088 1.099,0.0088 2.2201,0.0177 12.5794,-0.1718 25.3924,-5.1775 34.2284,-14.3103 5.768998,-7.0403 9.551998,-15.7014 12.406998,-24.3168 2.036,0.5122 2.036,0.5122 4.114,1.0347 0.615,10.476 -5.114,18.6324 -11.764,26.3217 -8.049998,8.4403 -18.596998,16.4271 -30.634998,17.3049 -2.7096,0.0475 -5.4181,0.0768 -8.1277,0.092 -0.9254,0.0213 -1.8509,0.0427 -2.8044,0.0647 -13.1253,0.0759 -25.1431,-4.9476 -34.8655,-13.9046 -12.0701,-13.3605 -16.573,-28.8755 -15.9664,-46.5844 0.3287,-4.6617 1.0428,-8.8218 2.3383,-13.3022998 z"
     fill="#cde288"
     id="path4" />
  <path
     d="m 20.979422,3.8370292 c 5.9226,0.5997 11.2938,1.762 16.9708,3.5327 0.8368,0.255 1.6736,0.5101 2.5357,0.7729 2.7569,0.8426 5.5105,1.6954 8.2638,2.5495998 1.936,0.5971 3.872,1.194 5.8081,1.7907 4.1189,1.2708 8.2362,2.5468 12.3529,3.8247 5.5917,1.7328 11.1927,3.4366 16.7947,5.1335 4.524,1.3731 9.043,2.7604 13.561,4.1507 2.189,0.6708 4.379998,1.3361 6.571998,1.9959 3.078,0.9279 6.149,1.8762 9.219,2.8296 0.913,0.2702 1.826,0.5403 2.766,0.8186 5.202,1.6427 8.712,3.2571 12.123,7.7829 -0.193,3.4276 -0.193,3.4276 -1.028,6.2085 -0.679,0 -1.358,0 -2.057,0 0,-2.7317 0,-5.4635 0,-8.2781 -0.34,1.0245 -0.679,2.0489 -1.029,3.1043 -8.145,-1.669 -16.031,-4.0313 -23.977998,-6.4672 -1.379,-0.4204 -2.758,-0.8404 -4.138,-1.2601 -2.067,-0.6291 -4.134,-1.2586 -6.201,-1.8895 -3.945,-1.2043 -7.893,-2.3974 -11.846,-3.5764 -8.8566,-2.642 -17.6505,-5.4003 -26.4006,-8.3791 -5.6071,-1.8846 -11.262,-3.6042 -16.9185,-5.3314 -2.5073,-0.7751 -5.0144,-1.5512 -7.5211,-2.3282 -1.1204,-0.3468 -2.2407,-0.6936 -3.395,-1.0508998 -0.8101,-0.2508 -1.6202,-0.5016 -2.4548,-0.76 0,-1.7246 0,-3.4491 0,-5.1737 z"
     fill="#1f0b07"
     id="path5" />
  <path
     d="m 13.779722,7.9760292 c 1.6971,0 3.3941,0 5.1426,0 -0.6788,9.5611998 -1.3576,19.1222998 -2.057,28.9732998 -0.3394,0 -0.6788,0 -1.0285,0 0,-2.0489 0,-4.0977 0,-6.2086 -1.0183,0.3415 -2.0365,0.6829 -3.0856,1.0348 -0.028,-2.8026 -0.0483,-5.6048 -0.0643,-8.4075 -0.0086,-0.7869 -0.0173,-1.5739 -0.0261,-2.3848 -0.0191,-4.459 0.2331,-8.6148 1.1189,-13.0071998 z"
     fill="#cbde8b"
     id="path6" />
  <path
     d="m 111.49042,36.949329 c 1.357,0.3414 2.715,0.6829 4.114,1.0347 0.712,6.5955 -1.065,12.3037 -5.143,17.5909 -2.603,0.7155 -2.603,0.7155 -5.142,1.0348 -2.33,1.5187 -2.33,1.5187 -4.115,3.1043 0.396,-0.7824 0.396,-0.7824 0.8,-1.5805 1.69,-3.4381 3.307,-6.9098 4.922,-10.3839 0.325,-0.6957 0.651,-1.3913 0.986,-2.108 1.336,-2.8727 2.58,-5.6807 3.578,-8.6923 z"
     fill="#bfe688"
     id="path7" />
  <path
     d="m 66.234822,19.358429 c 4.3144,0.62 8.2386,1.6297 12.3426,3.1043 0.339,-0.683 0.679,-1.3659 1.028,-2.0696 3.394,1.0244 6.789,2.0489 10.286,3.1043 0,0.683 0,1.3659 0,2.0695 1.357,0.683 2.715,1.3659 4.114,2.0695 -0.34,0.683 -0.679,1.3659 -1.029,2.0696 -5.423,-0.4608 -10.303,-1.1214 -15.428,-3.1043 0,-1.0244 0,-2.0488 0,-3.1043 -3.394,-0.3415 -6.788,-0.6829 -10.2851,-1.0347 -0.3394,-1.0245 -0.6788,-2.0489 -1.0285,-3.1043 z"
     fill="#1e0301"
     id="path8" />
  <path
     d="m 39.493022,69.026829 c 1.4135,1.3359 2.7862,2.7169 4.1141,4.139 1.3683,0.5443 1.3683,0.5443 2.7642,1.0995 0.7849,0.3201 1.5698,0.6402 2.3785,0.9701 0.3394,1.0244 0.6788,2.0488 1.0285,3.1042 1.6971,0 3.3942,0 5.1427,0 0,0.683 0,1.3659 0,2.0696 1.0182,0.3414 2.0364,0.6829 3.0855,1.0347 -9.9918,-0.1733 -18.5535,-4.8557 -26.7418,-10.3476 0,-0.6829 0,-1.3659 0,-2.0695 3.0558,-1.5371 4.9723,-0.8517 8.2283,0 z"
     fill="#c4e388"
     id="path9" />
  <path
     d="m 82.691422,72.131129 c 0.679,0.3415 1.358,0.6829 2.057,1.0347 -1.358,0.3415 -2.715,0.683 -4.114,1.0348 0,0.6829 0,1.3659 0,2.0695 -0.679,0.683 -1.358,1.3659 -2.057,2.0695 -0.34,0.683 -0.679,1.3659 -1.029,2.0696 -2.036,0 -4.073,0 -6.171,0 0,-0.3415 0,-0.683 0,-1.0348 -1.6168,-0.076 -1.6168,-0.076 -3.2664,-0.1536 -1.4182,-0.0777 -2.8365,-0.1558 -4.2547,-0.2344 -1.065,-0.0481 -1.065,-0.0481 -2.1515,-0.097 -3.7702,-0.2199 -5.6309,-0.4663 -8.8409,-2.6193 1.241,-0.0507 2.4819,-0.1014 3.7605,-0.1536 1.6607,-0.0777 3.3214,-0.1559 4.982,-0.2344 0.814,-0.032 1.6281,-0.064 2.4668,-0.097 6.5652,-0.3248 12.3652,-1.5573 18.6182,-3.654 z"
     fill="#d4e392"
     id="path10" />
  <path
     d="m 88.862422,24.532129 c 5.417,0.6165 10.228,1.8762 15.363998,3.6864 1.055,0.3631 1.055,0.3631 2.131,0.7336 1.713,0.5905 3.423,1.1887 5.133,1.7886 0,0.3415 0,0.6829 0,1.0348 -3.623,0.0828 -6.809,0.0414 -10.286,-1.0348 0,0.6829 0,1.3659 0,2.0695 1.358,0.3415 2.716,0.683 4.115,1.0348 -3.233,1.6262 -5.518998,0.1211 -8.871998,-0.9701 -1.222,-0.3935 -2.444,-0.787 -3.704,-1.1924 -0.941,-0.3108 -1.883,-0.6216 -2.852,-0.9418 1.018,-1.0244 2.036,-2.0488 3.085,-3.1043 -1.357,-0.6829 -2.715,-1.3659 -4.114,-2.0695 0,-0.3415 0,-0.6829 0,-1.0348 z"
     fill="#2c0806"
     id="path11" />
  <path
     d="m 8.6371223,4.8717292 c 3.3940997,0.683 6.7882997,1.3659 10.2852997,2.0696 0,0.3414 0,0.6829 0,1.0347 -1.6971,0 -3.3942,0 -5.1427,0 0.1061,0.9391 0.2121,1.8781 0.3214,2.8455998 -0.3214,3.363 -0.3214,3.363 -2.7641,5.8205 -2.6998997,1.6815 -2.6998997,1.6815 -4.7569997,1.6815 0.1455,-1.6603 0.2966,-3.3202 0.45,-4.9798 0.0835,-0.9243 0.167,-1.8487 0.2531,-2.8011 0.3254,-2.5666998 0.3254,-2.5666998 1.354,-5.6709998 z"
     fill="#31a643"
     id="path12" />
  <path
     d="m 109.43342,54.540229 c -1.819,6.5051 -6.859,11.8432 -12.342998,15.5214 -0.678,-0.3415 -1.357,-0.683 -2.057,-1.0348 1.548,-3.5431 3.606,-6.1193 6.170998,-8.9894 0.722,-0.815 1.443,-1.63 2.186,-2.4697 2.093,-2.1631 3.032,-3.0275 6.043,-3.0275 z"
     fill="#bde88d"
     id="path13" />
  <path
     d="m 11.722722,17.288929 c 0.3394,0 0.6788,0 1.0285,0 0.3394,4.4391 0.6788,8.8782 1.0285,13.4518 0.6789,0 1.3577,0 2.0571,0 0.6002,6.5673 1.1776,13.0626 1.0285,19.6605 -6.4353,-9.7115 -5.498,-21.9362 -5.1426,-33.1123 z"
     fill="#adda7a"
     id="path14" />
  <path
     d="m 15.836722,14.184529 c 0.3395,0 0.6789,0 1.0286,0 0,7.5124 0,15.0248 0,22.7648 -0.3394,0 -0.6789,0 -1.0286,0 0,-2.0489 0,-4.0977 0,-6.2086 -1.0182,0.3415 -2.0364,0.6829 -3.0855,1.0348 -0.0556,-1.5086 -0.0955,-3.0178 -0.1286,-4.5271 -0.0358,-1.2605 -0.0358,-1.2605 -0.0723,-2.5465 0.2009,-2.2393 0.2009,-2.2393 2.2579,-4.3088 0.409,-2.0573 0.7588,-4.1281 1.0285,-6.2086 z"
     fill="#d6e092"
     id="path15" />
  <path
     d="m 18.922422,7.9760292 c 1.697,0.3415 3.3941,0.6829 5.1426,1.0347 -1.0182,0.3415 -2.0365,0.683 -3.0856,1.0347998 -0.2227,2.0168 -0.2227,2.0168 -0.45,4.0744 -0.4499,4.0743 -0.4499,4.0743 -1.607,5.2384 -0.0892,1.5405 -0.1101,3.0851 -0.1005,4.6282 0.0033,0.9303 0.0067,1.8607 0.0101,2.8193 0.0086,0.9784 0.0172,1.9568 0.0261,2.9648 0.0046,0.9824 0.0093,1.9648 0.014,2.977 0.0122,2.4354 0.0292,4.8706 0.0503,7.3059 -2.6498,-3.9987 -2.3666,-7.3308 -2.3142,-11.9644 0.004,-0.8341 0.0079,-1.6683 0.012,-2.5278 0.0869,-6.0356 0.6709,-11.7535 2.3022,-17.5852998 z"
     fill="#e34c38"
     id="path16" />
  <path
     d="m 114.57542,63.853029 c 0,4.2328 -1.637,5.1932 -4.5,8.2134 -2.827,2.9941 -5.207,5.551 -6.814,9.3775 -0.678,-0.3415 -1.357,-0.6829 -2.057,-1.0347 3.126,-6.8137 7.146,-12.381 13.371,-16.5562 z"
     fill="#010301"
     id="path17" />
  <path
     d="m 100.17642,59.714029 c 0,4.5422 -2.188998,5.9696 -5.142998,9.3128 0.679,0 1.358,0 2.057,0 0,0.6829 0,1.3659 0,2.0695 -3.085,2.0695 -3.085,2.0695 -5.849,1.6815 -0.785,-0.2134 -1.57,-0.4268 -2.379,-0.6467 0,-1.0244 0,-2.0488 0,-3.1043 1.692,-1.5521 1.692,-1.5521 3.921,-3.1043 2.712,-1.9079 5.119,-3.7841 7.392998,-6.2085 z"
     fill="#d1e499"
     id="path18" />
  <path
     d="m 55.949522,51.435929 c 1.3577,0 2.7153,0 4.1141,0 0.2572,5.8205 0.2572,5.8205 -2.057,9.3128 -1.3577,-0.3414 -2.7154,-0.6829 -4.1142,-1.0347 0.9,-5.9499 0.9,-5.9499 2.0571,-8.2781 z"
     fill="#380b09"
     id="path19" />
  <path
     d="m 47.721222,41.088329 c -0.3641,3.2968 -0.854,4.9572 -2.957,7.5667 -2.1856,1.7461 -2.1856,1.7461 -5.2712,1.7461 0.3641,-3.2968 0.8539,-4.9572 2.957,-7.5666 2.1856,-1.7462 2.1856,-1.7462 5.2712,-1.7462 z"
     fill="#3c0a08"
     id="path20" />
  <path
     d="m 108.40442,45.227329 c 1.018,0.3415 2.037,0.683 3.086,1.0348 -1.655,6.5078 -4.804,9.7751 -10.286,13.4519 2.4,-4.8289 4.8,-9.6578 7.2,-14.4867 z"
     fill="#d5db95"
     id="path21" />
  <path
     d="m 56.978022,78.339729 c 2.5077,-0.0838 5.0127,-0.1454 7.5211,-0.1941 1.065,-0.039 1.065,-0.039 2.1515,-0.0788 5.2998,-0.0772 5.2998,-0.0772 7.7928,1.8371 0.346,0.5082 0.692,1.0164 1.048,1.54 -2.313,0.0841 -4.628,0.1442 -6.9424,0.1941 -1.2887,0.036 -2.5775,0.072 -3.9052,0.1091 -3.6968,-0.3156 -5.0402,-0.866 -7.6658,-3.4074 z"
     fill="#c6e587"
     id="path22" />
  <path
     d="m 83.719422,40.053629 c 2.427,0.4209 3.97,0.9293 5.979,2.3928 1.221,1.7462 1.221,1.7462 0.9,4.0097 -0.234,0.619 -0.467,1.2379 -0.707,1.8755 -1.929,-0.3233 -1.929,-0.3233 -4.115,-1.0347 -2.057,-3.1043 -2.057,-3.1043 -2.057,-7.2433 z"
     fill="#230605"
     id="path23" />
  <path
     d="m 17.058222,2.6728292 c 0.9267,0.0187 1.8535,0.0374 2.8083,0.0566 0.7067,0.024 1.4134,0.048 2.1415,0.0728 0.3394,1.3659 0.6788,2.7318 1.0285,4.139 -3.6479,1.2948 -5.8858,0.748 -9.5139,-0.4527 -0.9175,-0.2974 -1.835,-0.5949 -2.7803,-0.9014 -0.6947,-0.2361 -1.3893997,-0.4721 -2.1051997,-0.7154 3.4081997,-2.2859 4.4684997,-2.3021 8.4210997,-2.1989 z"
     fill="#060302"
     id="path24" />
  <path
     d="m 40.521522,26.601729 c -0.3214,1.9402 -0.3214,1.9402 -1.0285,4.139 -3.0856,2.0696 -3.0856,2.0696 -7.1997,2.0696 0.3857,-2.5223 0.3857,-2.5223 1.0285,-5.1738 2.533,-1.2742 4.4016,-1.1089 7.1997,-1.0348 z"
     fill="#230805"
     id="path25" />
  <path
     d="m 71.377422,49.366429 c 1.358,0.3414 2.715,0.6829 4.114,1.0347 0.34,2.7318 0.679,5.4636 1.029,8.2781 -1.358,-0.3415 -2.716,-0.6829 -4.114,-1.0348 -0.34,-2.7317 -0.679,-5.4635 -1.029,-8.278 z"
     fill="#0f0302"
     id="path26" />
  <path
     d="m 8.6371223,4.8717292 c 3.3940997,0.683 6.7882997,1.3659 10.2852997,2.0696 0,0.3414 0,0.6829 0,1.0347 -1.6971,0 -3.3942,0 -5.1427,0 -0.3394,1.0244 -0.6788,2.0487998 -1.0285,3.1042998 -1.0182,0 -2.0365,0 -3.0855997,0 -1.0182,0.5122 -1.0182,0.5122 -2.057,1.0348 0.3394,-2.3902998 0.6788,-4.7805998 1.0285,-7.2433998 z"
     fill="#2e8637"
     id="path27" />
  <path
     d="m 80.634422,23.497429 c 2.957,0.7761 2.957,0.7761 6.171,2.0695 0.679,1.3659 1.358,2.7318 2.057,4.1391 -3.734,-1.0244 -7.467,-2.0489 -11.314,-3.1043 1.018,-1.0244 2.037,-2.0488 3.086,-3.1043 z"
     fill="#1e0706"
     id="path28" />
  <path
     d="m 88.862422,70.061629 c 0,0.6829 0,1.3658 0,2.0695 1.358,0.6829 2.715,1.3659 4.114,2.0695 -3.564,1.5366 -3.564,1.5366 -7.2,3.1043 -1.028,-3.1043 -1.028,-3.1043 -1.028,-6.2086 2.057,-1.0347 2.057,-1.0347 4.114,-1.0347 z"
     fill="#c4dc87"
     id="path29" />
  <path
     d="m 18.922422,41.088329 c 2.2522,3.3988 3.0836,6.4227 4.1141,10.3476 -1.0183,1.0244 -2.0365,2.0488 -3.0856,3.1043 -0.6788,-1.7074 -1.3577,-3.4147 -2.0571,-5.1738 0.6789,0 1.3577,0 2.0571,0 -0.3394,-0.683 -0.6788,-1.3659 -1.0285,-2.0695 -0.0412,-2.0692 -0.0447,-4.1396 0,-6.2086 z"
     fill="#d8cc86"
     id="path30" />
  <path
     d="m 15.836822,14.184529 c 0.3394,0 0.6788,0 1.0285,0 -0.3394,4.7806 -0.6788,9.5612 -1.0285,14.4867 -1.0183,0.3414 -2.0365,0.6829 -3.0856,1.0347 -0.1286,-3.4923 -0.1286,-3.4923 0,-7.2433 0.6788,-0.6829 1.3576,-1.3659 2.0571,-2.0695 0.4089,-2.0573 0.7588,-4.1281 1.0285,-6.2086 z"
     fill="#d8ec9b"
     id="path31" />
  <path
     d="m 63.149222,21.427929 c 5.3687,-0.1863 9.3312,0.03 14.3992,2.0695 0,0.6829 0,1.3659 0,2.0695 -4.899,-0.7394 -9.6083,-1.8578 -14.3992,-3.1043 0,-0.3415 0,-0.6829 0,-1.0347 z"
     fill="#340c09"
     id="path32" />
  <path
     d="m 41.550022,10.045529 c 4.8486,0.4961 8.9131,1.002 13.3709,3.1043 0,0.6829 0,1.3659 0,2.0695 -9.8682,-1.8032 -9.8682,-1.8032 -13.3709,-5.1738 z"
     fill="#2a0905"
     id="path33" />
  <path
     d="m 26.122122,6.9413292 c 2.7153,0.6829 5.4307,1.3658 8.2283,2.0695 0.3394,-0.683 0.6788,-1.3659 1.0285,-2.0695 -0.3394,1.7073 -0.6788,3.4146998 -1.0285,5.1737998 -3.0124,-0.6495 -5.514,-1.6414 -8.2283,-3.1042998 0,-0.683 0,-1.3659 0,-2.0695 z"
     fill="#080202"
     id="path34" />
  <path
     d="m 82.691422,72.131129 c 0.679,0.3415 1.358,0.6829 2.057,1.0347 -1.358,0.3415 -2.715,0.683 -4.114,1.0348 0,0.6829 0,1.3659 0,2.0695 -2.057,2.0695 -2.057,2.0695 -4.114,3.1043 0,-1.0244 0,-2.0488 0,-3.1043 -1.697,0 -3.394,0 -5.143,0 0,-0.3415 0,-0.6829 0,-1.0347 2.042,-0.5053 4.085,-1.0105 6.127,-1.5158 1.748,-0.4607 3.472,-1.0135 5.187,-1.5885 z"
     fill="#dcc582"
     id="path35" />
  <path
     d="m 11.722722,56.609729 c 1.3576,1.7074 2.7153,3.4147 4.1141,5.1738 -1.0183,0.3415 -2.0365,0.683 -3.0856,1.0348 -0.3394,-0.3415 -0.6788,-0.683 -1.0285,-1.0348 -0.3395,1.0244 -0.6789,2.0488 -1.0286,3.1043 -0.6788,-1.7074 -1.3575997,-3.4147 -2.0569997,-5.1738 0.6788,0 1.3576,0 2.0569997,0 0.3394,-1.0244 0.6789,-2.0488 1.0286,-3.1043 z"
     fill="#08230b"
     id="path36" />
  <path
     d="m 111.49042,36.949329 c 2.036,0.5122 2.036,0.5122 4.114,1.0347 -0.257,1.9402 -0.257,1.9402 -1.029,4.1391 -2.121,1.2934 -2.121,1.2934 -4.114,2.0695 0.34,-2.3903 0.679,-4.7806 1.029,-7.2433 z"
     fill="#d1d78c"
     id="path37" />
  <path
     d="m 66.234822,19.358429 c 5.1966,0.6535 9.5616,2.2088 14.3996,4.139 -1.018,0.683 -2.037,1.3659 -3.086,2.0695 0,-0.6829 0,-1.3659 0,-2.0695 -3.394,-0.3415 -6.788,-0.6829 -10.2851,-1.0347 -0.3394,-1.0245 -0.6788,-2.0489 -1.0285,-3.1043 z"
     fill="#020000"
     id="path38" />
  <path
     d="m 97.090422,28.671229 c 4.314998,0.6201 8.238998,1.6297 12.342998,3.1043 0,0.6829 0,1.3658 0,2.0695 -2.716,-0.3415 -5.431,-0.683 -8.229,-1.0348 0,-0.6829 0,-1.3659 0,-2.0695 -1.356998,-0.3415 -2.714998,-0.6829 -4.113998,-1.0348 0,-0.3414 0,-0.6829 0,-1.0347 z"
     fill="#030101"
     id="path39" />
  <path
     d="m 45.664222,42.123129 c 0.7071,1.8755 0.7071,1.8755 1.0285,4.139 -1.2857,1.8109 -1.2857,1.8109 -3.0856,3.1043 -1.0182,0 -2.0365,0 -3.0856,0 1.3299,-2.9846 2.7353,-5.0415 5.1427,-7.2433 z"
     fill="#100504"
     id="path40" />
  <path
     d="m 7.6085223,32.810229 c 0.6788,0 1.3577,0 2.0571,0 0.1928,2.975 0.1928,2.975 0,6.2086 -1.0183,0.6829 -2.0365,1.3659 -3.0856,2.0695 -0.0436,-2.414 -0.0421,-4.8293 0,-7.2433 0.3394,-0.3415 0.6788,-0.683 1.0285,-1.0348 z"
     fill="#2aa33d"
     id="path41" />
  <path
     d="m 86.805422,25.566929 c 3.055,0.5122 3.055,0.5122 6.171,1.0348 0,1.0244 0,2.0488 0,3.1043 -1.697,-0.3415 -3.394,-0.683 -5.142,-1.0348 -0.34,-1.0244 -0.679,-2.0488 -1.029,-3.1043 z"
     fill="#050101"
     id="path42" />
  <path
     d="m 42.578622,12.115029 c 3.0856,0.3234 3.0856,0.3234 6.1711,1.0348 0.3395,0.6829 0.6789,1.3659 1.0286,2.0695 -2.3785,0.7114 -2.3785,0.7114 -5.1427,1.0348 -1.8642,-1.4875 -1.8642,-1.4875 -3.0856,-3.1043 0.3394,-0.3415 0.6789,-0.683 1.0286,-1.0348 z"
     fill="#070302"
     id="path43" />
  <path
     d="m 98.119422,63.853029 c 0.679,1.3659 1.358,2.7318 2.056998,4.139 -1.017998,0.683 -2.036998,1.3659 -3.085998,2.0696 -0.678,-0.3415 -1.357,-0.683 -2.057,-1.0348 1.929,-4.0097 1.929,-4.0097 3.086,-5.1738 z"
     fill="#bde794"
     id="path44" />
  <path
     d="m 122.80442,36.949329 c 0.678,0 1.357,0 2.057,0 1.242,3.7492 0.558,4.8028 -1.029,8.278 -0.679,-0.3414 -1.358,-0.6829 -2.057,-1.0347 0,-1.3659 0,-2.7318 0,-4.1391 0.679,0 1.358,0 2.057,0 -0.339,-1.0244 -0.679,-2.0488 -1.028,-3.1042 z"
     fill="#020502"
     id="path45" />
  <path
     d="m 55.949522,51.435929 c 1.0182,0 2.0365,0 3.0856,0 0,1.3659 0,2.7318 0,4.139 -0.6789,0 -1.3577,0 -2.0571,0 -0.3394,1.0244 -0.6788,2.0489 -1.0285,3.1043 -1.1571,-4.9151 -1.1571,-4.9151 0,-7.2433 z"
     fill="#190604"
     id="path46" />
</svg>
