<?xml version="1.0" encoding="UTF-8" standalone="no"?>
<svg
   width="119.66833"
   height="129.23042"
   viewBox="0 0 119.66833 129.23042"
   fill="none"
   version="1.1"
   id="svg33"
   sodipodi:docname="Slice 33.svg"
   xmlns:inkscape="http://www.inkscape.org/namespaces/inkscape"
   xmlns:sodipodi="http://sodipodi.sourceforge.net/DTD/sodipodi-0.dtd"
   xmlns="http://www.w3.org/2000/svg"
   xmlns:svg="http://www.w3.org/2000/svg">
  <defs
     id="defs33" />
  <sodipodi:namedview
     id="namedview33"
     pagecolor="#ffffff"
     bordercolor="#666666"
     borderopacity="1.0"
     inkscape:showpageshadow="2"
     inkscape:pageopacity="0.0"
     inkscape:pagecheckerboard="0"
     inkscape:deskcolor="#d1d1d1" />
  <path
     d="m 60.619,0.14372222 c 2.4428,0.7761 2.4428,0.7761 3.4713,1.81079998 0.3781,2.4092 0.7224,4.8239 1.0285,7.2434 1.4558,0.2281 1.4558,0.2281 2.941,0.4608 16.667,2.9292998 30.3468,10.0095998 40.7068,23.9206998 1.25,1.8569 2.474,3.7309 3.665,5.6265 0.432,0.6776 0.864,1.3552 1.309,2.0533 4.694,8.3074 6.75,18.6219 4.862,27.9547 -0.34,0.3415 -0.679,0.6829 -1.029,1.0348 -6.353,-0.603 -6.353,-0.603 -9.22,-2.0655 -6.368,-3.1601 -13.093,-2.1789 -19.5786,-0.0041 -0.8697,0.5763 -1.7395,1.1525 -2.6356,1.7462 -3.6139,1.9578 -5.7722,1.2788 -9.7067,0.3234 -2.4127,-1.0044 -4.8138,-2.0375 -7.1998,-3.1043 -1.7076,-0.3763 -3.4213,-0.7274 -5.1426,-1.0348 0.0311,0.8007 0.0623,1.6013 0.0944,2.4263 0.352,9.1928 0.6637,18.3865 0.9341,27.5815 0.0325,1.101 0.065,2.202 0.0985,3.336 0.0731,2.811998 0.1219,5.621998 0.1587,8.434998 0.0328,1.213 0.0328,1.213 0.0662,2.45 0.0327,5.334 -0.9002,8.991 -3.409,13.718 -3.8988,3.312 -7.2079,5.068 -12.3423,5.174 -5.3634,-1.704 -8.6593,-4.028 -12.3424,-8.279 -1.6082,-3.235 -1.4395,-6.808 -1.0285,-10.347 1.0182,-1.537 1.0182,-1.537 2.057,-3.104 3.0856,-0.324 3.0856,-0.324 6.1712,0 2.6387,2.654 2.6129,4.632 3.0856,8.278 1.6971,0 3.3942,0 5.1427,0 1.2091,-2.433 1.1881,-3.961 1.2397,-6.674 0.0205,-0.953 0.041,-1.906 0.0621,-2.888 0.0172,-1.03 0.0344,-2.06 0.0521,-3.122 0.0214,-1.054 0.0428,-2.107 0.0648,-3.192998 0.0674,-3.374 0.1279,-6.748 0.1883,-10.122 0.0444,-2.283 0.0893,-4.567 0.1346,-6.851 0.1103,-5.6061 0.215,-11.2124 0.3154,-16.8188 -1.4584,0.4703 -2.9151,0.9455 -4.3712,1.4228 -0.8115,0.2641 -1.6229,0.5282 -2.4589,0.8003 -2.4282,0.8155 -2.4282,0.8155 -4.5681,2.0332 -3.2292,1.502 -5.7875,0.6594 -9.1724,-0.1172 -0.7849,-0.5122 -1.5698,-1.0244 -2.3785,-1.5522 -5.3922,-3.0278 -11.6657,-3.1372 -17.6136,-1.7461 -3.7148,1.0661 -3.7148,1.0661 -6.7497,3.2983 -2.6356,0.2587 -2.6356,0.2587 -5.1427,0 -2.057,-2.0696 -2.057,-2.0696 -2.3784,-4.9798 0.5354,-15.2418 7.429,-28.6599 17.8064,-39.5149 10.6601,-9.165 22.7168,-16.1212998 37.0271,-15.5214 -0.0636,-1.1310998 -0.1273,-2.2621998 -0.1928,-3.4275998 0.1928,-3.8157 0.1928,-3.8157 1.4142,-5.88519998 1.8642,-1.0348 1.8642,-1.0348 4.5641,-0.7761 z"
     fill="#9860c3"
     id="path1" />
  <path
     d="m 60.619,0.14372222 c 2.4428,0.7761 2.4428,0.7761 3.4713,1.81079998 0.3781,2.4092 0.7224,4.8239 1.0285,7.2434 1.4558,0.2281 1.4558,0.2281 2.941,0.4608 16.667,2.9292998 30.3468,10.0095998 40.7068,23.9206998 1.25,1.8569 2.474,3.7309 3.665,5.6265 0.432,0.6776 0.864,1.3552 1.309,2.0533 4.694,8.3074 6.75,18.6219 4.862,27.9547 -0.34,0.3415 -0.679,0.6829 -1.029,1.0348 -6.353,-0.603 -6.353,-0.603 -9.22,-2.0655 -6.368,-3.1601 -13.093,-2.1789 -19.5786,-0.0041 -0.8697,0.5763 -1.7395,1.1525 -2.6356,1.7462 -3.6139,1.9578 -5.7722,1.2788 -9.7067,0.3234 -2.4127,-1.0044 -4.8138,-2.0375 -7.1998,-3.1043 -1.7076,-0.3763 -3.4213,-0.7274 -5.1426,-1.0348 0.0311,0.8007 0.0623,1.6013 0.0944,2.4263 0.352,9.1928 0.6637,18.3865 0.9341,27.5815 0.0325,1.101 0.065,2.202 0.0985,3.336 0.0731,2.811998 0.1219,5.621998 0.1587,8.434998 0.0328,1.213 0.0328,1.213 0.0662,2.45 0.0327,5.334 -0.9002,8.991 -3.409,13.718 -3.8988,3.312 -7.2079,5.068 -12.3423,5.174 -5.3634,-1.704 -8.6593,-4.028 -12.3424,-8.279 -1.6082,-3.235 -1.4395,-6.808 -1.0285,-10.347 1.0182,-1.537 1.0182,-1.537 2.057,-3.104 3.0856,-0.324 3.0856,-0.324 6.1712,0 2.6387,2.654 2.6129,4.632 3.0856,8.278 1.6971,0 3.3942,0 5.1427,0 1.2091,-2.433 1.1881,-3.961 1.2397,-6.674 0.0205,-0.953 0.041,-1.906 0.0621,-2.888 0.0172,-1.03 0.0344,-2.06 0.0521,-3.122 0.0214,-1.054 0.0428,-2.107 0.0648,-3.192998 0.0674,-3.374 0.1279,-6.748 0.1883,-10.122 0.0444,-2.283 0.0893,-4.567 0.1346,-6.851 0.1103,-5.6061 0.215,-11.2124 0.3154,-16.8188 -1.4584,0.4703 -2.9151,0.9455 -4.3712,1.4228 -0.8115,0.2641 -1.6229,0.5282 -2.4589,0.8003 -2.4282,0.8155 -2.4282,0.8155 -4.5681,2.0332 -3.2292,1.502 -5.7875,0.6594 -9.1724,-0.1172 -0.7849,-0.5122 -1.5698,-1.0244 -2.3785,-1.5522 -5.3922,-3.0278 -11.6657,-3.1372 -17.6136,-1.7461 -3.7148,1.0661 -3.7148,1.0661 -6.7497,3.2983 -2.6356,0.2587 -2.6356,0.2587 -5.1427,0 -2.057,-2.0696 -2.057,-2.0696 -2.3784,-4.9798 0.5354,-15.2418 7.429,-28.6599 17.8064,-39.5149 10.6601,-9.165 22.7168,-16.1212998 37.0271,-15.5214 -0.0636,-1.1310998 -0.1273,-2.2621998 -0.1928,-3.4275998 0.1928,-3.8157 0.1928,-3.8157 1.4142,-5.88519998 1.8642,-1.0348 1.8642,-1.0348 4.5641,-0.7761 z M 54.8335,15.406422 c -0.9546,-0.0853 -1.9092,-0.1707 -2.8927,-0.2587 -12.2672,-0.1285 -23.8009,8.5711 -32.3345,16.6209 -7.5026,7.914 -13.2395,18.1227 -13.3066,29.2966 0.0637,0.9817 0.1273,1.9634 0.1929,2.9749 0.635,-0.2241 1.2701,-0.4482 1.9244,-0.6791 9.6064,-3.1773 16.5604,-3.5085 25.8459,0.6791 1.0182,0.683 2.0365,1.3659 3.0856,2.0695 2.7613,-0.2874 4.647,-1.3085 7.1354,-2.5869 8.9477,-4.409 20.6266,-3.6799 29.8917,-0.5173 0.9334,0.5762 1.8668,1.1524 2.8285,1.7461 2.1598,1.5936 2.1598,1.5936 4.2868,1.059 2.1559,-0.7406 3.8589,-1.6896 5.8056,-2.8698 6.2021,-3.2074 12.8321,-2.8964 19.4131,-0.9701 0.87,0.3415 1.74,0.6829 2.636,1.0348 1.358,0 2.715,0 4.114,0 -0.051,-12.969 -5.204,-22.5785 -14.05,-31.8189 -7.69,-7.4396 -14.9458,-11.2352 -25.034,-14.7453 -0.8499,-0.3842 -1.6997,-0.7683 -2.5753,-1.1641 -3.0995,-1.0931 -5.6545,-1.1445 -8.9314,-1.0995 -1.0752,0.0067 -2.1505,0.0134 -3.2583,0.0203 -2.6963,-0.0062 -2.6963,-0.0062 -4.7771,1.2085 z"
     fill="#0d0710"
     id="path2" />
  <path
     d="m 56.8906,14.371622 c 7.8779,-0.362 14.3511,-0.1095 21.5991,3.1043 0.9745,0.4162 1.949,0.8324 2.953,1.2611 13.2139,6.0968 24.6209,16.6915 30.2569,30.384 1.328,4.5432 1.585,9.1712 1.76,13.8843 -5.768,-0.9231 -5.768,-0.9231 -8.099,-1.5683 -7.116,-1.6317 -13.661,-1.1655 -19.9243,2.6314 -1.9503,1.0881 -3.7432,1.5844 -5.918,2.0412 -1.4266,-2.8704 -1.0553,-5.3439 -0.9643,-8.5085 -0.184,-8.2262 -1.7763,-14.9856 -4.8855,-22.5989 -0.3361,-0.8757 -0.6722,-1.7514 -1.0185,-2.6536 -2.3449,-5.8503 -5.1204,-11.389 -9.5882,-15.9074 -3.2993,-1.1634 -3.2993,-1.1634 -6.1712,-1.0348 0,-0.3415 0,-0.6829 0,-1.0348 z"
     fill="#945dc0"
     id="path3" />
  <path
     d="m 54.8335,15.406422 c 0,3.681 -0.7983,4.5696 -2.8927,7.502 -4.2295,6.1875 -6.4385,12.1356 -8.4211,19.4018 -0.3394,0.6829 -0.6788,1.3659 -1.0285,2.0695 -0.9844,6.9324 -1.1455,13.6997 -1.0286,20.6952 -1.832,0.6386 -1.832,0.6386 -4.1141,1.0347 -1.818,-0.9798 -3.6384,-1.9653 -5.3676,-3.0962 -5.4388,-3.0958 -12.1797,-2.8052 -18.0917,-1.3823 -2.4864,0.7522 -4.9467,1.5446 -7.3966,2.409 -0.7992,-12.3284 4.7088,-22.2215 12.3785,-31.5076 9.2064,-9.9009 22.1145,-18.0153 35.9624,-17.1261 z"
     fill="#975ec2"
     id="path4" />
  <path
     d="m 61.0047,64.040122 c 3.0548,0.5122 3.0548,0.5122 6.1712,1.0348 -1.0182,0.3415 -2.0365,0.6829 -3.0856,1.0348 0.0312,0.8006 0.0623,1.6013 0.0944,2.4262 0.352,9.1928 0.6637,18.3865 0.9341,27.5815 0.0325,1.101 0.065,2.202 0.0985,3.336 0.0731,2.811998 0.1219,5.621998 0.1587,8.434998 0.0218,0.808 0.0437,1.617 0.0663,2.45 0.0326,5.334 -0.9003,8.991 -3.4091,13.718 -3.8988,3.312 -7.2079,5.068 -12.3423,5.174 -5.3634,-1.704 -8.6593,-4.028 -12.3424,-8.279 -1.6081,-3.235 -1.4395,-6.808 -1.0285,-10.347 0.6788,-1.025 1.3576,-2.049 2.057,-3.104 3.0856,-0.324 3.0856,-0.324 6.1712,0 2.6387,2.654 2.613,4.632 3.0856,8.278 1.6971,0 3.3942,0 5.1427,0 1.2321,-2.479 1.1526,-4.003 1.1453,-6.769 -2e-4,-1.46 -2e-4,-1.46 -3e-4,-2.95 -0.0053,-1.053 -0.0106,-2.107 -0.0161,-3.192 -0.0014,-1.076 -0.0029,-2.153 -0.0044,-3.261998 -0.0057,-3.448 -0.0186,-6.895 -0.0317,-10.343 -0.0052,-2.334 -0.0099,-4.667 -0.0141,-7.001 -0.0113,-5.7287 -0.0286,-11.4576 -0.0502,-17.1865 2.5456,0.5122 2.5456,0.5122 5.1427,1.0348 0.3394,2.0488 0.6788,4.0976 1.0285,6.2085 0.3394,-2.7318 0.6788,-5.4635 1.0285,-8.2781 z"
     fill="#040303"
     id="path5" />
  <path
     d="m 62.0332,10.232622 c 15.3035,-0.8843998 27.9454,5.1095 39.4824,14.9757 4.335,4.2185 7.702,8.8803 10.916,13.9976 0.432,0.6776 0.864,1.3552 1.309,2.0533 4.254,7.5293 6.213,17.2801 5.89,25.8852 -1.018,0 -2.036,0 -3.085,0 0,-2.7318 0,-5.4635 0,-8.2781 -0.679,0 -1.358,0 -2.057,0 0,1.7074 0,3.4147 0,5.1738 -1.019,-0.3415 -2.037,-0.6829 -3.086,-1.0347 0.679,0 1.358,0 2.057,0 -2.479,-16.0591 -8.797,-28.1498 -21.949,-38.0234 -5.8639,-3.8345 -11.83,-5.8138 -18.5854,-7.5505 -0.879,-0.3268 -1.7581,-0.6536 -2.6637,-0.9903 -0.3394,-1.0244 -0.6789,-2.0488 -1.0286,-3.1043 -2.3759,-0.3415 -4.7518,-0.6829 -7.1997,-1.0348 0,-0.6829 0,-1.3658 0,-2.0695 z"
     fill="#0f0913"
     id="path6" />
  <path
     d="m 60.619,0.14372222 c 2.4428,0.7761 2.4428,0.7761 3.4713,1.81079998 0.4676,2.747 0.7225,5.5069 1.0285,8.2780998 -1.0182,0 -2.0364,0 -3.0855,0 0,0.683 0,1.3659 0,2.0695 2.3759,0 4.7518,0 7.1997,0 0,1.0245 0,2.0489 0,3.1043 -0.8671,-0.012 -1.7342,-0.024 -2.6276,-0.0364 -1.127,-0.0093 -2.2539,-0.0186 -3.4151,-0.0283 -1.1216,-0.012 -2.2433,-0.024 -3.3989,-0.0363 -2.8512,-0.1033 -2.8512,-0.1033 -4.9579,1.1358 -0.9546,-0.0854 -1.9092,-0.1708 -2.8927,-0.2587 -11.9762,-0.1255 -23.419,8.2604 -31.8202,16.1034 -6.1258,6.5118 -9.8432,13.84 -11.9406,22.5101 -0.2174,0.6602 -0.4349,1.3205 -0.6589,2.0008 -1.0182,0.5122 -1.0182,0.5122 -2.057,1.0347 0.0636,1.4406 0.0636,1.4406 0.1285,2.9103 -0.1285,3.2983 -0.1285,3.2983 -2.1856,6.4026 0.6788,0 1.3577,0 2.0571,0 0,0.6829 0,1.3659 0,2.0695 -1.0183,-0.3415 -2.0365,-0.6829 -3.0856,-1.0348 -1.0311,-15.0404 4.8092,-27.3672 14.3793,-38.6094 8.8424,-9.3753 19.2595,-14.9566 31.9046,-17.2676 -0.5092,-1.0244 -0.5092,-1.0244 -1.0286,-2.0695 2.3759,0 4.7518,0 7.1997,0 -0.0636,-1.1310998 -0.1272,-2.2621998 -0.1928,-3.4275998 0.1928,-3.8157 0.1928,-3.8157 1.4142,-5.88519998 1.8642,-1.0348 1.8642,-1.0348 4.5641,-0.7761 z"
     fill="#0a060c"
     id="path7" />
  <path
     d="m 49.6909,11.267422 c -0.3395,0.6829 -0.6789,1.3659 -1.0286,2.0695 -2.286,0.7357 -2.286,0.7357 -5.2069,1.4228 -13.7288,3.6 -24.7771,11.9878 -32.4992,23.9975 -5.4587,9.4858 -8.0848,18.4649 -7.5492,29.4219 0.6788,0.3415 1.3576,0.683 2.057,1.0348 0,-0.6829 0,-1.3659 0,-2.0695 -0.6788,0 -1.3576,0 -2.057,0 0.1451,-1.5095 0.2962,-3.0184 0.45,-4.5271 0.0835,-0.8403 0.167,-1.6807 0.2531,-2.5465 0.3254,-2.2392 0.3254,-2.2392 1.3539,-4.3088 0.6789,2.3903 1.3577,4.7806 2.0571,7.2434 0.5608,-0.2241 1.1217,-0.4482 1.6995,-0.6791 5.8699,-2.1805 10.567,-2.7245 16.8141,-2.4252 0,0.3414 0,0.6829 0,1.0347 -0.7306,0.1254 -1.4611,0.2508 -2.2138,0.38 -1.418,0.2601 -1.418,0.2601 -2.8646,0.5254 -1.414,0.2521 -1.414,0.2521 -2.8566,0.5093 -0.7756,0.2161 -1.5512,0.4322 -2.3504,0.6549 -0.3394,0.6829 -0.6788,1.3658 -1.0285,2.0695 -3.1499,0.6467 -3.1499,0.6467 -6.1712,1.0347 0.3394,1.0244 0.6789,2.0489 1.0286,3.1043 -3.4713,0.6467 -3.4713,0.6467 -7.1998,1.0348 -2.057,-2.0696 -2.057,-2.0696 -2.3784,-4.9798 0.5354,-15.2418 7.429,-28.6599 17.8064,-39.5149 9.1904,-7.9014 19.5128,-14.7695 31.8845,-14.4866 z"
     fill="#180f1f"
     id="path8" />
  <path
     d="m 105.2316,30.927822 c 9.313,7.9915 12.738,19.1696 14.399,31.0428 0.042,1.7241 0.058,3.4502 0,5.1738 -1.018,0 -2.036,0 -3.085,0 0,-2.7318 0,-5.4636 0,-8.2781 -0.679,0 -1.358,0 -2.057,0 0,1.7074 0,3.4147 0,5.1738 -1.019,-0.3415 -2.037,-0.6829 -3.086,-1.0348 0.679,0 1.358,0 2.057,0 -1.502,-9.7658 -1.502,-9.7658 -5.4,-18.6903 -1.8,-3.0396 -1.8,-3.0396 -1.414,-5.7559 0.212,-0.8109 0.424,-1.6219 0.643,-2.4575 -0.874,-2.8482 -0.874,-2.8482 -2.057,-5.1738 z"
     fill="#0f0914"
     id="path9" />
  <path
     d="m 53.805,15.406422 c 0.6789,0.683 1.3577,1.3659 2.0571,2.0696 -0.6125,0.7282 -1.2251,1.4565 -1.8562,2.2069 -5.0692,6.6607 -8.5511,14.4863 -10.4862,22.6273 -0.3394,0.6829 -0.6788,1.3659 -1.0285,2.0695 -0.9844,6.9324 -1.1455,13.6997 -1.0285,20.6952 -2.0365,0.5122 -2.0365,0.5122 -4.1142,1.0347 -3.323,-6.6863 1.0373,-21.4335 3.1138,-28.3305 3.1458,-8.5288 7.0952,-15.788 13.3427,-22.3727 z"
     fill="#623381"
     id="path10" />
  <path
     d="m 56.8906,14.371722 c 4.073,0 8.146,0 12.3424,0 -1.0183,0.6829 -2.0365,1.3659 -3.0856,2.0695 0.6722,0.7743 0.6722,0.7743 1.358,1.5643 7.6467,9.2749 12.4921,19.5917 14.0699,31.548 0.1883,1.3499 0.3766,2.6997 0.5705,4.0905 0.5225,3.807 1.0115,7.6176 1.4866,11.4309 -2.0365,0.5122 -2.0365,0.5122 -4.1141,1.0347 -1.4266,-2.8703 -1.0553,-5.3438 -0.9643,-8.5084 -0.184,-8.2262 -1.7763,-14.9857 -4.8855,-22.599 -0.3361,-0.8757 -0.6722,-1.7514 -1.0185,-2.6536 -2.3449,-5.8503 -5.1204,-11.389 -9.5882,-15.9074 -3.2993,-1.1634 -3.2993,-1.1634 -6.1712,-1.0348 0,-0.3414 0,-0.6829 0,-1.0347 z"
     fill="#5e3078"
     id="path11" />
  <path
     d="m 49.6909,11.267422 c -0.3394,0.6829 -0.6788,1.3658 -1.0285,2.0695 -2.2861,0.7356 -2.2861,0.7356 -5.207,1.4228 -13.9834,3.6668 -25.1579,12.2889 -32.8366,24.6281 -1.7613,3.0219 -3.4807,6.0594 -5.1547,9.1309 -0.6789,-0.3415 -1.3577,-0.6829 -2.0571,-1.0348 8.222,-16.4808 18.8307,-28.0083 35.9986,-35.1818 3.4958,-1.0557 6.6351,-1.1182 10.2853,-1.0347 z"
     fill="#190e20"
     id="path12" />
  <path
     d="m 53.805,15.406422 c 0.6788,0.683 1.3577,1.3659 2.0571,2.0696 -0.5887,0.6762 -1.1774,1.3525 -1.7839,2.0493 -2.7691,3.7128 -4.7026,7.5587 -6.7015,11.7259 -0.3739,0.7663 -0.7478,1.5326 -1.133,2.3221 -0.9137,1.8748 -1.8196,3.7533 -2.724,5.6326 -0.3394,0 -0.6788,0 -1.0285,0 -1.0418,-8.0351 2.9993,-13.4268 7.726,-19.6321 1.1625,-1.4176 2.3698,-2.7978 3.5878,-4.1674 z"
     fill="#522669"
     id="path13" />
  <path
     d="m 38.377,107.50042 c 3.0856,-0.324 3.0856,-0.324 6.1712,0 2.0571,2.069 2.0571,2.069 2.9571,5.691 0.7696,3.687 0.7696,3.687 3.3427,5.109 0.6364,0.192 1.2728,0.384 1.9285,0.582 -2.3785,0.323 -2.3785,0.323 -5.1427,0 -2.7108,-3.386 -3.0856,-4.885 -3.0856,-9.313 -1.0182,1.537 -1.0182,1.537 -2.057,3.104 -1.3577,-0.683 -2.7154,-1.365 -4.1142,-2.069 -0.3394,2.049 -0.6788,4.098 -1.0285,6.208 -0.3394,0 -0.6788,0 -1.0285,0 -0.2571,-5.82 -0.2571,-5.82 2.057,-9.312 z"
     fill="#19120e"
     id="path14" />
  <path
     d="m 81.5753,49.553522 c 0.6789,5.1221 1.3577,10.2441 2.0571,15.5214 -1.3577,0.3415 -2.7153,0.6829 -4.1141,1.0347 -1.4833,-2.9844 -1.1252,-5.6055 -1.0928,-8.9248 0.0092,-1.2298 0.0185,-2.4596 0.0281,-3.7267 0.0119,-0.947 0.0238,-1.8941 0.0361,-2.8698 2.0571,-1.0348 2.0571,-1.0348 3.0856,-1.0348 z"
     fill="#764893"
     id="path15" />
  <path
     d="m 5.464,48.518722 c 0.3395,0 0.6789,0 1.0286,0 0.1004,6.3662 0.1004,6.3662 0,8.2781 -0.3394,0.3415 -0.6789,0.683 -1.0286,1.0348 0.0212,0.9817 0.0425,1.9634 0.0643,2.9749 -0.0643,3.2336 -0.0643,3.2336 -2.1213,6.3379 0.6788,0 1.3576,0 2.057,0 0,0.6829 0,1.3659 0,2.0695 -1.0182,-0.3414 -2.0365,-0.6829 -3.0856,-1.0347 -0.3465,-7.2054 0.7168,-12.8657 3.0856,-19.6605 z"
     fill="#010102"
     id="path16" />
  <path
     d="m 41.4626,35.066922 c 1.0183,0.6829 2.0365,1.3658 3.0856,2.0695 -0.8999,4.9151 -0.8999,4.9151 -2.057,7.2433 -0.2311,1.5901 -0.4196,3.1867 -0.5786,4.7858 -0.0861,0.8456 -0.1723,1.6913 -0.2611,2.5626 -0.0623,0.6483 -0.1246,1.2965 -0.1889,1.9644 -1.5548,-1.2732 -1.5548,-1.2732 -3.0855,-3.1042 -0.3701,-5.2832 1.2181,-10.6366 3.0855,-15.5214 z"
     fill="#683689"
     id="path17" />
  <path
     d="m 105.2316,30.927822 c 5.355,4.5956 8.147,10.3049 11.314,16.5561 -0.679,0.683 -1.358,1.3659 -2.057,2.0696 -1.548,-2.7133 -3.09,-5.4299 -4.629,-8.1488 -0.662,-1.1584 -0.662,-1.1584 -1.338,-2.3403 -0.417,-0.7403 -0.835,-1.4806 -1.265,-2.2433 -0.388,-0.6828 -0.776,-1.3656 -1.175,-2.069 -0.85,-1.7548 -0.85,-1.7548 -0.85,-3.8243 z"
     fill="#2d1b42"
     id="path18" />
  <path
     d="m 15.7494,28.858322 c 0,4.1664 -1.6378,5.848 -3.9856,9.2481 -3.4612,5.0243 -3.4612,5.0243 -6.2997,10.4123 -0.6789,-0.3415 -1.3577,-0.6829 -2.0571,-1.0348 3.5115,-6.9276 7.0585,-12.93 12.3424,-18.6256 z"
     fill="#2c1736"
     id="path19" />
  <path
     d="m 56.8906,14.371722 c 4.073,0 8.146,0 12.3424,0 -1.0183,0.6829 -2.0365,1.3659 -3.0856,2.0695 0.8697,0.9604 1.7395,1.9208 2.6356,2.9103 1.4825,1.637 1.4825,1.637 2.507,3.2982 -0.3394,1.0245 -0.6788,2.0489 -1.0285,3.1043 -0.4481,-0.6602 -0.8963,-1.3205 -1.358,-2.0008 -3.7139,-5.4748 -3.7139,-5.4748 -9.3773,-8.4114 -0.8697,0.0213 -1.7395,0.0426 -2.6356,0.0646 0,-0.3414 0,-0.6829 0,-1.0347 z"
     fill="#401e57"
     id="path20" />
  <path
     d="m 7.5211,43.344922 c 1.0183,0 2.0365,0 3.0856,0 -0.6751,4.6412 -1.7493,8.9705 -3.0856,13.4519 -0.3394,0 -0.6788,0 -1.0285,0 -0.23,-1.4635 -0.4405,-2.9301 -0.6428,-4.3977 -0.1194,-0.8163 -0.2387,-1.6327 -0.3616,-2.4737 -0.0274,-2.7741 0.628,-4.2284 2.0329,-6.5805 z"
     fill="#0d0814"
     id="path21" />
  <path
     d="m 116.5456,56.796822 c 0.679,0 1.357,0 2.057,0 0.339,3.4147 0.679,6.8294 1.028,10.3476 -1.018,0 -2.036,0 -3.085,0 0,-3.4147 0,-6.8294 0,-10.3476 z"
     fill="#2a1c31"
     id="path22" />
  <path
     d="m 65.1189,15.406422 c 3.0547,0.3415 6.1094,0.683 9.2567,1.0348 0,0.6829 0,1.3659 0,2.0695 -1.0182,0 -2.0364,0 -3.0855,0 -0.3395,1.0244 -0.6789,2.0488 -1.0286,3.1043 -1.7358,-1.7026 -3.4497,-3.428 -5.1426,-5.1738 0,-0.3415 0,-0.6829 0,-1.0348 z"
     fill="#8c54b8"
     id="path23" />
  <path
     d="m 64.0903,1.9546222 c 0.3394,2.7317 0.6788,5.4635 1.0285,8.2779998 -1.0182,0 -2.0365,0 -3.0856,0 -0.3394,0.683 -0.6788,1.3659 -1.0285,2.0696 -0.3394,-3.0732998 -0.6788,-6.1464998 -1.0285,-9.3128998 3.0856,-1.0347 3.0856,-1.0347 4.1141,-1.0347 z"
     fill="#020004"
     id="path24" />
  <path
     d="m 20.892,25.754022 c 0.6788,0.3415 1.3577,0.683 2.0571,1.0348 -0.5092,0.6402 -1.0183,1.2805 -1.5428,1.9402 -1.7405,2.032 -1.7405,2.032 -1.5428,4.2683 -0.6364,0.1494 -1.2728,0.2988 -1.9285,0.4528 -2.2192,0.5111 -2.2192,0.5111 -4.2427,1.6168 1.5994,-3.9496 4.1511,-6.4072 7.1997,-9.3129 z"
     fill="#020103"
     id="path25" />
  <path
     d="m 91.8606,19.545522 c 4.733,1.5404 7.716,3.8765 11.314,7.2433 0,0.6829 0,1.3659 0,2.0695 -4.074,-1.8033 -7.965,-4.2909 -11.314,-7.2433 0,-0.683 0,-1.3659 0,-2.0695 z"
     fill="#25122b"
     id="path26" />
  <path
     d="m 53.805,15.406422 c -1.7999,4.0097 -1.7999,4.0097 -4.1141,5.1738 -1.3577,-1.3659 -2.7153,-2.7318 -4.1141,-4.139 2.786,-1.4015 5.1522,-1.1021 8.2282,-1.0348 z"
     fill="#7844a2"
     id="path27" />
  <path
     d="m 37.3485,108.53442 c 2.0365,0 4.073,0 6.1712,0 -0.3394,1.366 -0.6788,2.732 -1.0285,4.139 -1.3577,-0.683 -2.7153,-1.365 -4.1141,-2.069 -0.3394,2.049 -0.6789,4.098 -1.0286,6.208 -0.3394,0 -0.6788,0 -1.0285,0 -0.1286,-5.949 -0.1286,-5.949 1.0285,-8.278 z"
     fill="#0e0c0a"
     id="path28" />
  <path
     d="m 80.5468,55.762122 c 0.3394,0 0.6788,0 1.0285,0 0.3394,3.4147 0.6788,6.8294 1.0285,10.3475 -1.3576,-0.3414 -2.7153,-0.6829 -4.1141,-1.0347 0.6788,-3.0732 1.3577,-6.1465 2.0571,-9.3128 z"
     fill="#552e6a"
     id="path29" />
  <path
     d="m 71.29,24.719222 c 2.5249,2.2089 3.7864,3.8361 4.1142,7.2434 -0.6789,0.6829 -1.3577,1.3658 -2.0571,2.0695 -1.0182,-2.7318 -2.0365,-5.4636 -3.0856,-8.2781 0.3394,-0.3415 0.6788,-0.6829 1.0285,-1.0348 z"
     fill="#5b2a7b"
     id="path30" />
  <path
     d="m 39.4056,41.275422 c 0.3394,0 0.6788,0 1.0285,0 1.0105,4.1936 1.1125,8.1111 1.0285,12.4171 -1.5629,-1.249 -1.5629,-1.249 -3.0856,-3.1042 -0.0763,-2.3404 -0.0763,-2.3404 0.3215,-4.8505 0.1233,-0.8363 0.2466,-1.6727 0.3736,-2.5343 0.11,-0.6363 0.2201,-1.2725 0.3335,-1.9281 z"
     fill="#6e3b92"
     id="path31" />
  <path
     d="m 105.2316,30.927822 c 5.014,4.9151 5.014,4.9151 6.171,7.2433 -0.679,0.683 -1.358,1.3659 -2.057,2.0695 -4.114,-6.9846 -4.114,-6.9846 -4.114,-9.3128 z"
     fill="#22142b"
     id="path32" />
  <path
     d="m 43.5197,29.893122 c 0.6788,0.6829 1.3576,1.3658 2.057,2.0695 -0.3391,3.4117 -0.6404,4.7834 -3.0855,7.2433 -0.1286,-6.9846 -0.1286,-6.9846 1.0285,-9.3128 z"
     fill="#5c2f77"
     id="path33" />
</svg>
