<?xml version="1.0" encoding="UTF-8" standalone="no"?>
<svg
   width="150.53389"
   height="95.644867"
   viewBox="0 0 150.53389 95.644867"
   fill="none"
   version="1.1"
   id="svg53"
   sodipodi:docname="Slice 1.svg"
   inkscape:version="1.4.4 (dcaf3e7d, 2026-05-05)"
   xmlns:inkscape="http://www.inkscape.org/namespaces/inkscape"
   xmlns:sodipodi="http://sodipodi.sourceforge.net/DTD/sodipodi-0.dtd"
   xmlns="http://www.w3.org/2000/svg"
   xmlns:svg="http://www.w3.org/2000/svg">
  <defs
     id="defs53" />
  <sodipodi:namedview
     id="namedview53"
     pagecolor="#ffffff"
     bordercolor="#666666"
     borderopacity="1.0"
     inkscape:showpageshadow="2"
     inkscape:pageopacity="0.0"
     inkscape:pagecheckerboard="0"
     inkscape:deskcolor="#d1d1d1"
     showgrid="false"
     inkscape:zoom="2.3169014"
     inkscape:cx="35.607903"
     inkscape:cy="38.629179"
     inkscape:window-width="1264"
     inkscape:window-height="548"
     inkscape:window-x="0"
     inkscape:window-y="25"
     inkscape:window-maximized="0"
     inkscape:current-layer="svg53" />
  <path
     d="m 93.7247,0.41132308 c 2.057,2.06960002 2.057,2.06960002 2.379,4.85050002 -0.391,4.1636 -1.615,6.9145999 -3.407,10.6708999 0.724,0.2721 1.447,0.5442 2.193,0.8246 8.373,3.5347 15.866,8.4861 22.491,14.6968 3.324,-1.5611 5.812,-3.5033 8.606,-5.8973 5.907,-4.7345 12.41,-7.8523 20.065,-7.2312 3.214,0.7114 3.214,0.7114 4.242,1.7462 0.892,6.9772 -0.773,11.938 -3.792,18.1083 -3.227,6.7265 -3.227,6.7265 -2.572,13.9045 0.706,1.4246 1.458,2.8262 2.25,4.2037 2.868,6.3967 4.994,11.5416 4.114,18.626 -4.232,2.838 -7.375,2.672 -12.342,2.069 -8.169,-2.032 -13.663,-6.531 -19.542,-12.4169 -3.477,2.2735 -6.816,4.6218 -10.093,7.1787 -4.272,3.2672 -8.815,5.8432 -13.563,8.3432 0.53,1.067 1.06,2.134 1.607,3.233 1.616,3.731 1.51,6.242 0.45,10.218 -9.237,3.717 -17.539,1.965 -26.742,-1.034 -0.957,-0.542 -1.915,-1.083 -2.901,-1.641 -4.228,-1.892 -7.707,-1.787 -12.2699,-1.787 -18.3481,-0.545 -34.3554,-7.817 -48.0195,-20.0485 -2.5115,-2.7035 -2.6422,-3.0634 -2.5714,-6.9846 0.4773,-1.3125 0.4773,-1.3125 0.9643,-2.6516 -0.8698,-0.5335 -1.7395,-1.0671 -2.6356,-1.6168 -2.5071,-2.5222 -2.5071,-2.5222 -2.6356,-5.8205 2.342,-7.9849 6.4857,-13.7921 11.9566,-19.9191 0.4758,-0.5385 0.9517,-1.077 1.4419,-1.6317 2.8722,-3.1039 5.3115,-4.9622 9.3577,-6.1937 0,-0.6829 0,-1.3659 0,-2.0695 8.7379,-4.5917 17.1179,-8.9899 26.7418,-11.3824 3.9145,-1.1485999 7.2347,-2.6413999 10.7997,-4.5916999 10.121,-5.1598 22.153,-7.09540002 33.427,-5.75590002 z"
     fill="#1183e3"
     id="path1" />
  <path
     d="m 93.7247,0.41132308 c 2.057,2.06960002 2.057,2.06960002 2.379,4.85050002 -0.391,4.1636 -1.615,6.9145999 -3.407,10.6708999 0.724,0.2721 1.447,0.5442 2.193,0.8246 8.373,3.5347 15.866,8.4861 22.491,14.6968 3.324,-1.5611 5.812,-3.5033 8.606,-5.8973 5.907,-4.7345 12.41,-7.8523 20.065,-7.2312 3.214,0.7114 3.214,0.7114 4.242,1.7462 0.892,6.9772 -0.773,11.938 -3.792,18.1083 -3.227,6.7265 -3.227,6.7265 -2.572,13.9045 0.706,1.4246 1.458,2.8262 2.25,4.2037 2.868,6.3967 4.994,11.5416 4.114,18.626 -4.232,2.838 -7.375,2.672 -12.342,2.069 -8.169,-2.032 -13.663,-6.531 -19.542,-12.4169 -3.477,2.2735 -6.816,4.6218 -10.093,7.1787 -4.272,3.2672 -8.815,5.8432 -13.563,8.3432 0.53,1.067 1.06,2.134 1.607,3.233 1.616,3.731 1.51,6.242 0.45,10.218 -9.237,3.717 -17.539,1.965 -26.742,-1.034 -0.957,-0.542 -1.915,-1.083 -2.901,-1.641 -4.228,-1.892 -7.707,-1.787 -12.2699,-1.787 -18.3481,-0.545 -34.3554,-7.817 -48.0195,-20.0485 -2.5115,-2.7035 -2.6422,-3.0634 -2.5714,-6.9846 0.4773,-1.3125 0.4773,-1.3125 0.9643,-2.6516 -0.8698,-0.5335 -1.7395,-1.0671 -2.6356,-1.6168 -2.5071,-2.5222 -2.5071,-2.5222 -2.6356,-5.8205 2.342,-7.9849 6.4857,-13.7921 11.9566,-19.9191 0.4758,-0.5385 0.9517,-1.077 1.4419,-1.6317 2.8722,-3.1039 5.3115,-4.9622 9.3577,-6.1937 0,-0.6829 0,-1.3659 0,-2.0695 8.7379,-4.5917 17.1179,-8.9899 26.7418,-11.3824 3.9145,-1.1485999 7.2347,-2.6413999 10.7997,-4.5916999 10.121,-5.1598 22.153,-7.09540002 33.427,-5.75590002 z M 13.0495,38.309423 c -4.8604,6.1001 -4.8604,6.1001 -7.0069,13.4519 2.0451,3.9092 5.6235,5.7504 9.5139,7.6313 0.6788,0 1.3577,0 2.0571,0 0,0.683 0,1.3659 0,2.0695 -2.0365,0.683 -4.073,1.3659 -6.1712,2.0696 3.1874,7.9215 13.1061,12.2706 20.5384,15.4526 20.7284,7.337 42.0099,5.31 61.7439,-4.07 8.065,-4.4394 15.312,-9.681 21.937,-16.1078 1.719,-1.4834 1.719,-1.4834 3.776,-1.4834 1.559,1.6653 1.559,1.6653 3.343,3.8803 4.226,4.9929 8.828,8.7387 15.171,10.6063 2.399,0.0792 4.802,0.0946 7.2,0 -0.706,-6.7478 -3.359,-12.9838 -6.368,-19.0096 -1.96,-6.409 0.989,-12.6279 3.346,-18.5651 2.151,-4.8725 2.151,-4.8725 3.022,-10.0242 -6.568,-1.0279 -10.373,1.4187 -15.77,5.0808 -3.874,3.0529 -6.971,6.5111 -9.944,10.4406 -3.096,-1.3792 -5.015,-2.8396 -7.264,-5.3678 -11.266,-11.575 -28.705,-19.5439 -44.879,-19.86 -21.5488,0.0492 -39.6349,7.3704 -54.2452,23.805 z"
     fill="#02070d"
     id="path2" />
  <path
     d="m 147.2087,20.071723 c 0.679,0.683 1.357,1.3659 2.057,2.0695 -0.249,2.2393 -0.249,2.2393 -0.9,4.7858 -0.21,0.8457 -0.419,1.6914 -0.635,2.5627 -0.172,0.6482 -0.345,1.2965 -0.522,1.9644 0.679,0.3414 1.357,0.6829 2.057,1.0347 -0.482,0.9377 -0.963,1.8755 -1.459,2.8416 -3.52,6.8515 -3.52,6.8515 -4.58,14.3168 0.805,2.3539 1.788,4.4455 2.953,6.6411 2.852,6.4116 4.996,11.5297 4.114,18.626 -4.232,2.838 -7.375,2.672 -12.342,2.069 -8.169,-2.032 -13.663,-6.5311 -19.542,-12.4169 -3.504,2.2911 -6.859,4.6602 -10.157,7.2433 -3.944,3.0186 -7.981,5.1466 -12.471,7.2436 0,-0.683 0,-1.366 0,-2.07 -1.357,-0.341 -2.715,-0.683 -4.114,-1.035 3.378,-2.811 6.79,-5.2275 10.542,-7.5016 5.596,-3.5212 10.396,-7.5917 15.171,-12.1584 3.512,1.1778 4.051,2.0417 6.236,4.9151 4.881,5.7824 11.085,9.283 18.578,10.4123 0.975,0.064 1.951,0.128 2.957,0.194 -0.598,-1.6823 -1.199,-3.3636 -1.8,-5.0445 -0.555,-1.5566 -0.555,-1.5566 -1.121,-3.1447 -1.394,-3.7311 -2.986,-7.3545 -4.653,-10.97 -1.733,-6.8048 1.523,-13.3615 4.038,-19.5796 0.339,-0.8557 0.678,-1.7114 1.027,-2.593 0.829,-2.0919 1.668,-4.1799 2.509,-6.2671 -5.959,1.0223 -10.318,2.2511 -15.171,6.0792 -0.907,0.7016 -1.814,1.4032 -2.748,2.1261 -0.875,0.7069 -1.75,1.4139 -2.652,2.1423 -0.96,0.7709 -1.92,1.5419 -2.909,2.3362 -0.737,0.595 -1.474,1.1899 -2.234,1.8028 -0.339,-0.6829 -0.678,-1.3659 -1.028,-2.0695 3.536,-7.3338 10.694,-12.8136 18.256,-15.5214 3.572,-0.9858 6.83,-1.4903 10.543,-1.0348 z"
     fill="#03070d"
     id="path3" />
  <path
     d="m 95.7817,2.4808231 c 0.394,5.4136 -0.804,8.6692999 -3.085,13.4518999 0.724,0.2721 1.447,0.5442 2.193,0.8246 8.373,3.5346 15.866,8.4861 22.491,14.6968 3.324,-1.5611 5.812,-3.5033 8.606,-5.8973 5.907,-4.7345 12.41,-7.8523 20.065,-7.2312 3.214,0.7114 3.214,0.7114 4.242,1.7461 0.101,1.5279 0.134,3.0606 0.129,4.5918 0.004,1.2465 0.004,1.2465 0.008,2.5182 -0.137,2.2029 -0.137,2.2029 -1.165,4.2724 -0.679,0 -1.358,0 -2.057,0 0.129,-0.9904 0.129,-0.9904 0.261,-2.0008 0.105,-0.855 0.209,-1.71 0.317,-2.591 0.108,-0.8523 0.215,-1.7046 0.326,-2.5828 0.041,-0.7056 0.082,-1.4112 0.124,-2.1382 -1.029,-1.2768 -1.029,-1.2768 -3.089,-1.055 -10.115,0.8234 -17.893,4.6714 -24.681,12.4373 -0.925,2.6143 -1.029,4.4336 -1.029,7.2433 -3.096,-1.3792 -5.015,-2.8396 -7.264,-5.3678 -14.402,-14.7969 -33.687,-19.5189 -53.419,-20.5012 0,-2.0695 0,-4.139 0,-6.2084999 6.207,-3.4166 12.171,-4.8854 19.092,-6.0146 0.826,-0.1404 1.652,-0.2809 2.502,-0.4256 5.418,-0.819 10.029,-0.6838 15.433,0.2316 z"
     fill="#020a13"
     id="path4" />
  <path
     d="m 93.7247,0.41132308 c 0.509,1.53660002 0.509,1.53660002 1.029,3.10430002 -0.989,-0.1975 -1.978,-0.3949 -2.998,-0.5983 -4.765,-0.6798 -9.133,0.0468 -13.845,0.8569 -0.822,0.1268 -1.644,0.2535 -2.49,0.384 -5.78,0.9503 -11.168,2.5134 -16.666,4.5312 0.509,1.5365999 0.509,1.5365999 1.029,3.1041999 -0.34,1.0244 -0.679,2.0489 -1.029,3.1043 -1.731,0.7288 -1.731,0.7288 -3.9774,1.2167 -1.2311,0.2866 -1.2311,0.2866 -2.487,0.579 -1.3185,0.2956 -1.3185,0.2956 -2.6637,0.5972 -16.6206,4.0933 -30.7674,12.9039 -40.2413,27.6151 -1.515,2.7218 -2.8292,5.4342 -4.1141,8.2781 -0.6788,-0.3415 -1.3577,-0.6829 -2.0571,-1.0348 0.388,-7.6117 5.2359,-13.2747 9.9639,-18.8843 2.4343,-2.7286 2.4343,-2.7286 3.9856,-5.7559 1.4785,-2.2635 1.4785,-2.2635 3.7284,-3.1042 0.6152,-0.0641 1.2304,-0.1281 1.8642,-0.1941 0,-0.6829 0,-1.3658 0,-2.0695 8.7379,-4.5917 17.1179,-8.9898 26.7418,-11.3823 3.9145,-1.1486999 7.2347,-2.6413999 10.7997,-4.5917999 10.558,-5.38270002 21.763,-6.28210002 33.427,-5.75580002 z"
     fill="#02070d"
     id="path5" />
  <path
     d="m 15.5565,28.349823 c 0,4.3048 -1.8701,5.8368 -4.4998,9.1835 -5.2528,6.5806 -5.2528,6.5806 -6.814,14.616 0.6788,-0.3415 1.3576,-0.683 2.057,-1.0348 0.7213,0.7897 1.4425,1.5793 2.1856,2.3929 2.9196,2.7456 5.497,4.271 9.1283,5.8852 0,0.6829 0,1.3659 0,2.0695 -1.6971,0.6829 -3.3942,1.3659 -5.1427,2.0695 1.5002,3.8146 3.3965,5.3409 6.814,7.502 0.8406,0.5389 1.6812,1.0778 2.5472,1.633 0.6444,0.4002 1.2888,0.8003 1.9526,1.2126 -2.0365,0.5122 -2.0365,0.5122 -4.1141,1.0351 1.2842,0.821 2.5702,1.64 3.857,2.457 0.716,0.456 1.4319,0.913 2.1696,1.383 2.063,1.249 4.1474,2.352 6.3158,3.403 -0.3394,0.683 -0.6788,1.366 -1.0285,2.07 -7.9669,-3.703 -14.9492,-7.675 -21.5992,-13.4524 -0.8651,-0.6882 -0.8651,-0.6882 -1.7477,-1.3904 -1.4664,-1.2611 -1.4664,-1.2611 -3.3949,-3.7834 0.1928,-3.4276 0.1928,-3.4276 1.0285,-6.2085 -0.8698,-0.5336 -1.7395,-1.0671 -2.6356,-1.6168 -2.5071,-2.5223 -2.5071,-2.5223 -2.6356,-5.8206 2.8503,-9.7179 8.6718,-16.3772 15.5565,-23.6054 z"
     fill="#03101d"
     id="path6" />
  <path
     d="m 88.5817,78.018323 c -2.036,1.024 -4.073,2.049 -6.171,3.104 2.037,0 4.073,0 6.171,0 4.115,6.985 4.115,6.985 4.115,9.313 -3.879,0.09 -7.757,0.145 -11.636,0.194 -1.102,0.026 -2.205,0.052 -3.34,0.079 -1.058,0.01 -2.115,0.02 -3.204,0.03 -0.975,0.016 -1.95,0.033 -2.955,0.049 -2.522,-0.352 -2.522,-0.352 -4.407,-1.729 -1.2,-1.727 -1.2,-1.727 -1.2,-4.831 -0.695,0.01 -1.39,0.021 -2.106,0.032 -3.155,0.043 -6.31,0.07 -9.4652,0.097 -1.6407,0.026 -1.6407,0.026 -3.3146,0.052 -1.581,0.01 -1.581,0.01 -3.194,0.021 -1.4543,0.016 -1.4543,0.016 -2.938,0.032 -2.741,-0.244 -4.4063,-0.9 -6.7527,-2.304 0.3394,-0.341 0.6788,-0.683 1.0285,-1.035 1.5684,0.099 3.1326,0.263 4.6927,0.453 13.9013,1.36 26.4893,1.075 39.7833,-3.727 2.836,-0.865 2.836,-0.865 4.893,0.17 z"
     fill="#04101d"
     id="path7" />
  <path
     d="m 34.07,38.697423 c 2.5071,1.6815 2.5071,1.6815 4.1141,4.139 0.6087,4.2096 0.3834,6.488 -1.5428,10.283 -2.9421,2.4419 -4.9616,2.8932 -8.7706,2.6354 -3.5826,-0.8851 -5.1148,-2.7005 -7.1716,-5.6751 -0.7659,-4.1094 -0.3833,-5.6301 1.9285,-9.1188 3.8473,-3.9844 6.1511,-3.4567 11.4424,-2.2635 z"
     fill="#e2ecf4"
     id="path8" />
  <path
     d="m 64.9257,39.732223 c 5.36,0.4229 8.639,1.1195 12.343,5.1738 1.221,2.8456 1.221,2.8456 1.028,6.2085 -2.432,4.3277 -5.144,7.5891 -9.257,10.3476 -3.617,-0.5352 -3.617,-0.5352 -5.142,-2.0695 -0.303,-3.8516 -0.153,-4.9439 2.057,-8.2781 0.343,-2.6304 0.343,-2.6304 0,-5.1738 -0.679,-0.6829 -1.358,-1.3658 -2.057,-2.0695 0.385,-2.1988 0.385,-2.1988 1.028,-4.139 z"
     fill="#0267c7"
     id="path9" />
  <path
     d="m 93.7247,0.41132308 c 0.509,1.53660002 0.509,1.53660002 1.029,3.10430002 -0.989,-0.1974 -1.978,-0.3949 -2.998,-0.5982 -4.765,-0.6798 -9.133,0.0467 -13.845,0.8569 -0.822,0.1267 -1.644,0.2534 -2.491,0.384 -5.779,0.9502 -11.167,2.5133 -16.665,4.5311 0.34,1.0244 0.679,2.0487999 1.029,3.1041999 -0.34,1.0245 -0.679,2.0489 -1.029,3.1043 -2.005,0.8274 -2.005,0.8274 -4.6002,1.4349 -0.9248,0.2235 -1.8495,0.4469 -2.8023,0.6771 -0.9725,0.2207 -1.945,0.4415 -2.947,0.6689 -0.9765,0.2328 -1.953,0.4656 -2.959,0.7054 -2.4182,0.5746 -4.8385,1.1364 -7.262,1.6875 0,-1.0244 0,-2.0488 0,-3.1043 -3.0548,1.3659 -6.1095,2.7318 -9.2568,4.1391 1.0285,-3.1043 1.0285,-3.1043 3.9173,-4.6928 6.4862,-2.7465 12.585,-5.05 19.5661,-6.1843 3.6159,-0.8192999 6.2739,-2.7038999 9.4299,-4.6442999 10.331,-4.79220002 20.632,-5.49320002 31.884,-5.17380002 z"
     fill="#01050b"
     id="path10" />
  <path
     d="m 47.4409,25.245523 c 1.0183,0 2.0365,0 3.0856,0 6.0472,11.1229 9.3132,21.8872 6.3842,34.5756 -3.0976,10.5788 -3.0976,10.5788 -6.3842,15.0932 -1.0182,0 -2.0365,0 -3.0856,0 0.1989,-0.5885 0.3978,-1.1768 0.6027,-1.7828 0.2678,-0.799 0.5356,-1.598 0.8116,-2.4212 0.2625,-0.7803 0.525,-1.5606 0.7955,-2.3646 0.289,-0.9057 0.578,-1.8114 0.8758,-2.7445 0.3646,-1.1258 0.7292,-2.2516 1.1049,-3.4115 1.03,-4.1451 1.3867,-8.055 1.4022,-12.3039 0.004,-0.7639 0.0079,-1.5277 0.012,-2.3146 -0.1295,-6.2611 -1.6773,-11.1974 -4.4797,-16.8204 -1.125,-2.401 -1.125,-2.401 -1.125,-5.5053 z"
     fill="#010811"
     id="path11" />
  <path
     d="m 89.6107,5.5851231 c -0.679,3.0732 -1.358,6.1463999 -2.057,9.3127999 -7.807,-1.0244 -15.613,-2.0488 -23.656,-3.1043 0,-0.6829 0,-1.3658 0,-2.0694999 8.753,-2.4914 16.596,-4.2972 25.713,-4.139 z"
     fill="#0364bb"
     id="path12" />
  <path
     d="m 117.3807,61.462123 c 3.915,3.3326 7.756,6.625 11.314,10.3476 -4.739,-1.5426 -7.591,-4.0324 -11.314,-7.2433 -0.869,0.6989 -1.739,1.3979 -2.635,2.118 -6.077,4.8273 -11.804,9.2609 -18.964,12.3689 0,-0.683 0,-1.366 0,-2.07 -1.357,-0.341 -2.715,-0.683 -4.114,-1.035 3.488,-2.891 7.043,-5.4624 10.864,-7.8896 0.956,-0.6109 1.912,-1.2218 2.897,-1.8513 2.233,-1.3597 4.454,-2.584 6.81,-3.7105 -1.019,1.7073 -2.037,3.4147 -3.086,5.1738 2.715,-2.0489 5.431,-4.0977 8.228,-6.2086 z"
     fill="#030a12"
     id="path13" />
  <path
     d="m 83.4397,3.5156231 c -1.018,0.5122 -1.018,0.5122 -2.057,1.0347 0,0.683 0,1.3659 0,2.0695 -2.142,0.5231 -4.285,1.0391 -6.429,1.5522 -1.193,0.2881 -2.386,0.5762 -3.615,0.8731 -3.327,0.679 -3.327,0.679 -7.441,0.679 0,0.6829999 0,1.3658999 0,2.0694999 3.394,0 6.788,0 10.285,0 0,1.0244 0,2.0489 0,3.1043 -5.091,0 -10.182,0 -15.428,0 0,-2.0695 0,-4.139 0,-6.2084999 7.329,-3.7503 16.44,-7.86150002 24.685,-5.1738 z"
     fill="#01070d"
     id="path14" />
  <path
     d="m 145.1517,35.593123 c 0.678,0.3415 1.357,0.683 2.057,1.0348 -0.333,0.6389 -0.666,1.2778 -1.009,1.9361 -2.165,4.6315 -3.761,8.056 -2.077,13.0679 0.651,1.5672 1.339,3.1193 2.057,4.6564 2.824,6.4355 4.998,11.5106 4.114,18.626 -4.183,2.806 -7.43,2.617 -12.342,2.069 -2.889,-0.83 -5.464,-1.89 -8.228,-3.1041 0.339,-0.6829 0.679,-1.3658 1.028,-2.0695 0.764,0.3415 1.528,0.683 2.314,1.0348 5.413,1.452 10.631,1.1979 16.2,1.0347 -0.462,-1.878 -0.935,-3.753 -1.414,-5.6265 -0.394,-1.5666 -0.394,-1.5666 -0.796,-3.1649 -0.594,-2.752 -0.594,-2.752 -2.933,-3.6257 -0.84,-2.219 -0.84,-2.219 -1.607,-4.9798 -0.256,-0.903 -0.512,-1.806 -0.775,-2.7364 -0.232,-0.8684 -0.464,-1.7367 -0.703,-2.6314 -0.378,-1.0064 -0.378,-1.0064 -0.764,-2.0331 -0.401,-3.1847 0.861,-5.2097 2.242,-8.0558 0.487,-1.019 0.973,-2.0381 1.475,-3.0881 0.383,-0.7736 0.766,-1.5473 1.161,-2.3444 z m -3.086,26.9038 c 0.679,0 1.358,0 2.057,0 -0.339,1.0244 -0.679,2.0488 -1.028,3.1043 -0.34,-1.0244 -0.679,-2.0489 -1.029,-3.1043 z"
     fill="#031322"
     id="path15" />
  <path
     d="m 144.1227,26.280323 c 1.851,6.2772 0.631,12.1204 -1.864,18.0436 -1.52,4.1225 -0.991,6.2658 0.707,10.2829 0.422,0.8404 0.843,1.6807 1.278,2.5465 0.908,2.2393 0.908,2.2393 -0.121,5.3436 -0.679,0 -1.358,0 -2.057,0 -0.759,-1.7692 -1.515,-3.5394 -2.258,-5.3153 -0.655,-1.5272 -1.374,-3.0271 -2.113,-4.515 -1.879,-6.2991 1.114,-12.7114 3.407,-18.561 0.289,-0.7569 0.579,-1.5139 0.878,-2.2938 0.707,-1.8465 1.424,-3.6894 2.143,-5.5315 z"
     fill="#041221"
     id="path16" />
  <path
     d="m 85.4967,81.122323 c 1.993,0.194 1.993,0.194 4.114,1.035 1.77,2.671 2.057,3.983 2.057,7.243 -14.022,0.382 -14.022,0.382 -20.571,-2.069 0,-0.683 0,-1.366 0,-2.07 0.954,-0.212 1.907,-0.424 2.889,-0.642 1.232,-0.279 2.464,-0.558 3.733,-0.845 1.229,-0.276 2.458,-0.552 3.724,-0.837 2.892,-0.47 2.892,-0.47 4.054,-1.815 z"
     fill="#0365bf"
     id="path17" />
  <path
     d="m 26.8703,41.801723 c 2.9571,-0.1294 2.9571,-0.1294 6.1712,0 2.0571,2.0695 2.0571,2.0695 2.4428,5.1091 -0.3857,3.1689 -0.3857,3.1689 -2.1214,5.1738 -3.0105,1.3916 -4.4209,1.1317 -7.5211,0.0647 -0.6788,-0.683 -1.3576,-1.3659 -2.057,-2.0696 0.2571,-2.6515 0.2571,-2.6515 1.0285,-5.1738 0.6788,-0.3414 1.3576,-0.6829 2.057,-1.0347 0,-0.683 0,-1.3659 0,-2.0695 z"
     fill="#1f1e1f"
     id="path18" />
  <path
     d="m 15.5565,28.349823 c 0,4.3048 -1.8701,5.8368 -4.4998,9.1835 -5.2528,6.5806 -5.2528,6.5806 -6.814,14.616 0.6788,-0.3415 1.3576,-0.683 2.057,-1.0348 0.3394,1.0244 0.6788,2.0488 1.0285,3.1043 -1.0182,0.3415 -2.0364,0.6829 -3.0855,1.0347 2.0364,1.3659 4.0729,2.7318 6.1711,4.1391 -0.3394,0.6829 -0.6788,1.3659 -1.0285,2.0695 -3.0983,-0.3463 -4.4695,-1.3049 -7.0069,-3.2336 -2.2499,-2.975 -2.2499,-2.975 -2.3784,-6.3379 2.8858,-9.6778 8.6887,-16.3303 15.5565,-23.5408 z"
     fill="#041f3a"
     id="path19" />
  <path
     d="m 3.2141,54.218823 c 5.87,0.4821 9.4208,2.0049 14.3995,5.1738 0,0.683 0,1.3659 0,2.0695 -0.8061,0.2988 -1.6123,0.5976 -2.4428,0.9054 -2.7994,1.008 -2.7994,1.008 -4.7569,3.2337 0,-0.683 0,-1.3659 0,-2.0696 -1.0183,0.5123 -1.0183,0.5123 -2.0571,1.0348 1.6971,2.0488 3.3941,4.0977 5.1426,6.2086 -3.0408,-1.4204 -5.7237,-2.9148 -8.2282,-5.1738 -0.7714,-2.2636 -0.7714,-2.2636 -1.0285,-4.1391 1.697,-0.3414 3.3941,-0.6829 5.1426,-1.0347 -1.0182,-0.8324 -2.0365,-1.6647 -3.0856,-2.5223 -1.0182,-0.875 -2.0365,-1.75 -3.0856,-2.6515 0,-0.3415 0,-0.683 0,-1.0348 z"
     fill="#020a11"
     id="path20" />
  <path
     d="m 37.1556,81.122323 c 1.0972,0.499 1.0972,0.499 2.2165,1.008 3.0367,1.102 5.3894,1.382 8.6032,1.49 1.0507,0.04 2.1015,0.08 3.184,0.121 1.6278,0.049 1.6278,0.049 3.2885,0.098 1.1051,0.04 2.2099,0.08 3.3489,0.121 2.719,0.097 5.438,0.186 8.158,0.267 0.339,1.365 0.679,2.731 1.028,4.139 -10.639,-0.345 -20.6102,-0.926 -30.8556,-4.139 0.3394,-1.025 0.6788,-2.049 1.0285,-3.105 z"
     fill="#020203"
     id="path21" />
  <path
     d="m 149.2657,19.037023 c 1.028,1.0347 1.028,1.0347 1.165,3.1002 -0.003,0.8337 -0.005,1.6673 -0.008,2.5263 0.004,1.2465 0.004,1.2465 0.008,2.5182 -0.137,2.2029 -0.137,2.2029 -1.165,4.2724 -0.679,0 -1.358,0 -2.057,0 0.086,-0.6603 0.172,-1.3205 0.261,-2.0008 0.105,-0.855 0.209,-1.71 0.317,-2.591 0.108,-0.8523 0.215,-1.7046 0.326,-2.5828 0.041,-0.7056 0.082,-1.4113 0.124,-2.1383 -1.029,-1.2767 -1.029,-1.2767 -3.089,-1.0549 -10.513,0.8558 -17.298,4.9173 -24.681,12.4373 -0.34,0.6829 -0.679,1.3659 -1.029,2.0695 -0.678,0 -1.357,0 -2.057,0 3.165,-7.3688 10.531,-12.0868 17.485,-15.5214 5.245,-1.9787 8.92,-2.2476 14.4,-1.0347 z"
     fill="#0d2442"
     id="path22" />
  <path
     d="m 54.6407,53.184023 c 0.3394,0 0.6788,0 1.0285,0 0.7345,8.6366 -0.6738,14.3277 -5.1427,21.7303 -1.0182,0 -2.0365,0 -3.0856,0 0.187,-0.5405 0.3739,-1.0808 0.5665,-1.6374 1.8825,-5.5456 3.4809,-11.1208 4.9378,-16.7946 0.6669,-2.2635 0.6669,-2.2635 1.6955,-3.2983 z"
     fill="#020f1b"
     id="path23" />
  <path
     d="m 93.7247,0.41132308 c 0.509,1.53660002 0.509,1.53660002 1.029,3.10430002 -0.991,-0.1961 -1.981,-0.3922 -3.002,-0.5942 -4.736,-0.6742 -9.09,-0.0046 -13.776,0.7882 -0.859,0.1398 -1.718,0.2796 -2.603,0.4237 -6.239,1.0866 -11.971,2.6992 -17.646,5.5908 1.028,-3.1042 1.028,-3.1042 3.242,-4.24 11.21,-3.907 20.861,-5.41040002 32.756,-5.07280002 z"
     fill="#04162d"
     id="path24" />
  <path
     d="m 117.3807,61.462123 c 3.915,3.3191 7.761,6.6302 11.314,10.3476 -4.739,-1.5426 -7.591,-4.0324 -11.314,-7.2433 -0.893,0.7229 -1.787,1.4459 -2.708,2.1908 -1.197,0.9516 -2.394,1.9028 -3.591,2.8536 -0.879,0.7143 -0.879,0.7143 -1.776,1.443 -3.679,2.9022 -6.87,4.7065 -11.467,5.9295 2.598,-2.8151 5.511,-4.9505 8.614,-7.1785 3.731,-2.6835 7.369,-5.4321 10.928,-8.3427 z"
     fill="#01132b"
     id="path25" />
  <path
     d="m 11.4424,35.593123 c 0.6788,1.0245 1.3576,2.0489 2.057,3.1043 -2.7153,4.7806 -5.4306,9.5612 -8.2282,14.4867 -0.6788,-0.3415 -1.3577,-0.683 -2.0571,-1.0348 0.3235,-6.3452 3.7897,-12.0907 8.2283,-16.5562 z"
     fill="#01050a"
     id="path26" />
  <path
     d="m 145.1517,35.593123 c 0.678,0.3415 1.357,0.683 2.057,1.0348 -0.333,0.6389 -0.666,1.2778 -1.009,1.9361 -2.275,4.8676 -3.722,8.16 -1.884,13.3913 0.613,1.4482 1.233,2.893 1.864,4.333 0.383,1.7161 0.75,3.4375 1.029,5.1738 -0.679,0 -1.358,0 -2.057,0 -5.348,-10.3561 -5.348,-10.3561 -4.87,-15.1697 0.785,-2.3177 1.673,-4.3987 2.813,-6.5602 0.38,-0.7683 0.761,-1.5366 1.153,-2.3282 0.298,-0.5976 0.596,-1.1952 0.904,-1.8109 z"
     fill="#052345"
     id="path27" />
  <path
     d="m 138.9797,45.940723 c 1.831,2.7631 3.057,5.2259 4.307,8.2781 0.376,0.8964 0.751,1.7927 1.137,2.7163 0.728,2.4575 0.728,2.4575 -0.301,5.5618 -0.679,0 -1.358,0 -2.057,0 -2.519,-5.2886 -3.712,-9.6556 -4.114,-15.5214 0.339,-0.3415 0.679,-0.6829 1.028,-1.0348 z"
     fill="#03070d"
     id="path28" />
  <path
     d="m 141.0377,60.427423 c 4.114,6.2085 4.114,6.2085 4.114,11.3823 -2.376,0 -4.752,0 -7.2,0 -0.707,-1.8108 -0.707,-1.8108 -1.029,-4.139 1.415,-2.1342 1.415,-2.1342 3.086,-4.1391 0.339,-1.0244 0.679,-2.0488 1.029,-3.1042 z"
     fill="#0e79ce"
     id="path29" />
  <path
     d="m 50.5265,11.793623 c -0.6364,0.2988 -1.2728,0.5976 -1.9285,0.9054 -2.3226,1.0992 -2.3226,1.0992 -4.2426,3.2337 0.3394,0.6829 0.6788,1.3658 1.0285,2.0695 -2.3759,0.6829 -4.7518,1.3659 -7.1997,2.0695 0,-1.0244 0,-2.0488 0,-3.1043 -3.0548,1.3659 -6.1095,2.7318 -9.2568,4.1391 1.0285,-3.1043 1.0285,-3.1043 4.0619,-4.7656 1.2766,-0.5575 2.5585,-1.1027 3.8449,-1.637 0.6305,-0.2821 1.2609,-0.5642 1.9104,-0.8549 4.0804,-1.7369 7.3687,-2.3623 11.7819,-2.0554 z"
     fill="#041323"
     id="path30" />
  <path
     d="m 130.7517,25.245523 c 0,0.683 0,1.3659 0,2.0696 -1.018,0.5122 -1.018,0.5122 -2.057,1.0347 -0.424,0.7683 -0.848,1.5366 -1.286,2.3282 -2.234,3.532 -4.696,5.457 -7.971,8.0194 -0.339,-0.6829 -0.678,-1.3659 -1.028,-2.0695 1.949,-4.4115 7.074,-11.3824 12.342,-11.3824 z"
     fill="#010407"
     id="path31" />
  <path
     d="m 55.6691,38.697423 c 0.3396,0 0.6786,0 1.0286,0 1.494,6.9517 2.712,15.3942 -1.0286,21.7299 -0.3394,-2.0488 -0.6788,-4.0976 -1.0285,-6.2085 -0.3394,0 -0.6788,0 -1.0285,0 0,-2.7318 0,-5.4635 0,-8.2781 0.3394,0 0.6788,0 1.0285,0 0.3394,-2.3903 0.6788,-4.7806 1.0285,-7.2433 z"
     fill="#041e37"
     id="path32" />
  <path
     d="m 17.6136,73.879223 c 5.5683,0.483 9.4678,1.2861 14.3994,4.1391 -0.3394,0.683 -0.6788,1.366 -1.0285,2.069 -5.5779,-0.448 -8.9497,-1.702 -13.3709,-5.173 0,-0.342 0,-0.6833 0,-1.0351 z"
     fill="#030b14"
     id="path33" />
  <path
     d="m 147.2087,21.106523 c 0.679,0.3415 1.357,0.683 2.057,1.0348 -0.679,3.0732 -1.358,6.1464 -2.057,9.3128 0.679,0.3415 1.357,0.6829 2.057,1.0348 -1.358,1.3658 -2.716,2.7317 -4.114,4.139 -1.267,-3.8226 -0.663,-6.4213 0,-10.3476 0.678,0 1.357,0 2.057,0 0,-1.7073 0,-3.4147 0,-5.1738 z"
     fill="#01050b"
     id="path34" />
  <path
     d="m 39.2127,81.122323 c 1.6749,0.069 3.3469,0.212 5.0141,0.388 1.5174,0.154 1.5174,0.154 3.0655,0.312 1.0673,0.11 2.1346,0.221 3.2342,0.335 2.1211,0.197 4.2425,0.391 6.3642,0.582 1.65,0.151 3.3,0.302 4.95,0.453 0,0.341 0,0.683 0,1.035 -3.172,0.06 -6.3426,0.096 -9.5142,0.129 -1.3464,0.026 -1.3464,0.026 -2.72,0.052 -0.8684,0.007 -1.7369,0.014 -2.6316,0.021 -0.7972,0.01 -1.5943,0.021 -2.4156,0.032 -2.5272,-0.262 -4.1876,-1.037 -6.3751,-2.304 0.3394,-0.341 0.6788,-0.683 1.0285,-1.035 z"
     fill="#081a2b"
     id="path35" />
  <path
     d="m 88.5817,6.6199231 c -0.636,0.2561 -1.272,0.5122 -1.928,0.7761 -2.546,1.5069 -3.164,2.7193999 -4.243,5.4323999 -2.715,0 -5.43,0 -8.228,0 0.643,-1.9401 0.643,-1.9401 2.057,-4.1389999 4.196,-1.9186 7.768,-2.2886 12.342,-2.0695 z"
     fill="#016cc9"
     id="path36" />
  <path
     d="m 58.7547,54.218823 c 1.222,3.5487 0.825,5.5648 -0.45,9.0542 -0.443,1.2405 -0.443,1.2405 -0.896,2.506 -0.235,0.6243 -0.469,1.2485 -0.711,1.8917 -0.679,-0.3415 -1.3576,-0.683 -2.057,-1.0348 0.2901,-1.6832 0.5924,-3.3643 0.8999,-5.0444 0.1671,-0.9364 0.3341,-1.8728 0.5061,-2.8375 0.651,-2.4657 0.651,-2.4657 2.708,-4.5352 z"
     fill="#0b7ad4"
     id="path37" />
  <path
     d="m 81.3827,85.261323 c -0.34,1.025 -0.679,2.049 -1.029,3.105 -3.055,-0.342 -6.109,-0.683 -9.257,-1.035 0,-0.683 0,-1.366 0,-2.07 3.768,-0.775 6.607,-1.281 10.286,0 z"
     fill="#055fb2"
     id="path38" />
  <path
     d="m 127.6667,24.210823 c 1.018,0.3414 2.036,0.6829 3.085,1.0347 -0.966,0.7303 -0.966,0.7303 -1.952,1.4754 -0.841,0.6442 -1.682,1.2885 -2.548,1.9523 -0.835,0.6362 -1.67,1.2725 -2.531,1.928 -2.429,1.8823 -2.429,1.8823 -4.283,4.9919 -0.678,0 -1.357,0 -2.057,0 1.478,-3.475 3.302,-5.5874 6.107,-8.084 1.064,-0.9704 1.064,-0.9704 2.15,-1.9604 0.669,-0.4415 1.339,-0.8831 2.029,-1.3379 z"
     fill="#071b2a"
     id="path39" />
  <path
     d="m 88.5817,78.018323 c -2.036,1.024 -4.073,2.049 -6.171,3.104 0.679,0.683 1.358,1.366 2.057,2.07 -2.036,0.341 -4.073,0.683 -6.171,1.035 0,-1.366 0,-2.732 0,-4.14 1.325,-0.548 2.654,-1.085 3.986,-1.616 0.74,-0.3 1.479,-0.601 2.242,-0.91 2,-0.578 2,-0.578 4.057,0.457 z"
     fill="#031e36"
     id="path40" />
  <path
     d="m 4.2426,61.462123 c 1.6971,0 3.3942,0 5.1427,0 -0.3394,1.0244 -0.6788,2.0488 -1.0285,3.1043 0.9998,1.734 0.9998,1.734 2.507,3.2983 0.8698,0.9604 1.7395,1.9207 2.6356,2.9102 -3.0409,-1.4204 -5.7237,-2.9148 -8.2282,-5.1738 -0.7714,-2.2635 -0.7714,-2.2635 -1.0286,-4.139 z"
     fill="#000208"
     id="path41" />
  <path
     d="m 47.4409,25.245523 c 1.0183,0 2.0365,0 3.0856,0 1.8,2.4576 1.8,2.4576 3.0856,5.1738 -0.3394,0.683 -0.6788,1.3659 -1.0285,2.0696 -1.0182,0 -2.0365,0 -3.0856,0 -1.5023,-2.7394 -2.0571,-4.0299 -2.0571,-7.2434 z"
     fill="#021931"
     id="path42" />
  <path
     d="m 145.1517,24.210823 c -1.019,3.0732 -2.037,6.1464 -3.086,9.3128 -0.339,-0.683 -0.679,-1.3659 -1.028,-2.0695 0.339,-1.0244 0.678,-2.0489 1.028,-3.1043 -0.679,-0.3415 -1.358,-0.6829 -2.057,-1.0348 -0.339,-0.6829 -0.679,-1.3658 -1.029,-2.0695 3.086,-1.0347 3.086,-1.0347 6.172,-1.0347 z"
     fill="#108aee"
     id="path43" />
  <path
     d="m 148.2367,19.037023 c 0.679,0.3415 1.358,0.6829 2.057,1.0347 0.028,1.509 0.048,3.018 0.065,4.5271 0.012,0.8404 0.023,1.6807 0.036,2.5465 -0.101,2.2393 -0.101,2.2393 -1.129,4.3088 -0.679,0 -1.358,0 -2.057,0 0.339,-4.0976 0.679,-8.1953 1.028,-12.4171 z"
     fill="#0a2137"
     id="path44" />
  <path
     d="m 26.8703,20.071723 c 0.3394,0.683 0.6789,1.3659 1.0286,2.0695 -1.3239,1.0408 -2.6535,2.0742 -3.9856,3.1043 -1.1097,0.8644 -1.1097,0.8644 -2.2419,1.7462 -2.0008,1.3581 -2.0008,1.3581 -4.0578,1.3581 0.3394,-1.0244 0.6788,-2.0488 1.0285,-3.1043 2.1213,-0.7114 2.1213,-0.7114 4.1141,-1.0347 0,-0.683 0,-1.3659 0,-2.0696 1.3577,-0.6829 2.7153,-1.3658 4.1141,-2.0695 z"
     fill="#021322"
     id="path45" />
  <path
     d="m 107.0957,25.245523 c 4.369,0.4885 6.377,3.0697 9.257,6.2086 -0.34,0.6829 -0.679,1.3659 -1.029,2.0695 -1.374,-1.1821 -2.745,-2.3686 -4.114,-3.557 -0.764,-0.6602 -1.527,-1.3205 -2.314,-2.0008 -0.594,-0.5562 -1.188,-1.1124 -1.8,-1.6855 0,-0.3415 0,-0.6829 0,-1.0348 z"
     fill="#03182c"
     id="path46" />
  <path
     d="m 143.0947,67.670723 c 0.678,0 1.357,0 2.057,0 0,1.3658 0,2.7317 0,4.139 -2.376,0 -4.752,0 -7.2,0 0,-0.6829 0,-1.3659 0,-2.0695 1.697,0 3.394,0 5.143,0 0,-0.683 0,-1.3659 0,-2.0695 z"
     fill="#0b72bc"
     id="path47" />
  <path
     d="m 54.6406,53.184023 c 0.3395,0 0.6789,0 1.0286,0 0,3.0733 0,6.1465 0,9.3129 -1.0183,-0.3415 -2.0365,-0.683 -3.0856,-1.0348 0.8999,-7.114 0.8999,-7.114 2.057,-8.2781 z"
     fill="#010408"
     id="path48" />
  <path
     d="m 17.6136,73.879223 c 2.957,0.2587 2.957,0.2587 6.1711,1.0351 1.4143,2.134 1.4143,2.134 2.0571,4.139 -3.4713,-1.227 -5.8083,-2.355 -8.2282,-5.1741 z"
     fill="#020203"
     id="path49" />
  <path
     d="m 110.1817,62.496923 c 0.678,0.3415 1.357,0.6829 2.057,1.0347 -1.358,1.7074 -2.716,3.4148 -4.114,5.1738 -1.358,-0.3414 -2.716,-0.6829 -4.115,-1.0347 2.037,-1.7074 4.073,-3.4147 6.172,-5.1738 z"
     fill="#05111d"
     id="path50" />
  <path
     d="m 3.2141,55.253523 c 3.5639,2.0489 3.5639,2.0489 7.1997,4.1391 -0.3394,0.6829 -0.6788,1.3659 -1.0285,2.0695 -2.9681,-0.4119 -3.9309,-0.8176 -5.9141,-3.169 -0.4242,-0.6616 -0.8485,-1.3232 -1.2856,-2.0048 0.3394,-0.3415 0.6788,-0.6829 1.0285,-1.0348 z"
     fill="#101c27"
     id="path51" />
  <path
     d="m 26.8703,41.801723 c 2.0365,0 4.073,0 6.1712,0 -0.3394,1.0244 -0.6788,2.0488 -1.0285,3.1043 -2.3759,0.3414 -4.7518,0.6829 -7.1997,1.0347 0.6788,-1.3658 1.3576,-2.7317 2.057,-4.139 z"
     fill="#3a3a3a"
     id="path52" />
  <path
     d="m 13.4994,37.662723 c 0.6789,1.0244 1.3577,2.0488 2.0571,3.1042 -1.6971,1.3659 -3.3942,2.7318 -5.1427,4.1391 0.6303,-3.0647 1.2895,-4.5329 3.0856,-7.2433 z"
     fill="#0e7bd3"
     id="path53" />
</svg>
