<?xml version="1.0" encoding="UTF-8" standalone="no"?>
<svg
   width="94.727058"
   height="119.75137"
   viewBox="0 0 94.727058 119.75137"
   fill="none"
   version="1.1"
   id="svg32"
   sodipodi:docname="Slice 24.svg"
   xmlns:inkscape="http://www.inkscape.org/namespaces/inkscape"
   xmlns:sodipodi="http://sodipodi.sourceforge.net/DTD/sodipodi-0.dtd"
   xmlns="http://www.w3.org/2000/svg"
   xmlns:svg="http://www.w3.org/2000/svg">
  <defs
     id="defs32" />
  <sodipodi:namedview
     id="namedview32"
     pagecolor="#ffffff"
     bordercolor="#666666"
     borderopacity="1.0"
     inkscape:showpageshadow="2"
     inkscape:pageopacity="0.0"
     inkscape:pagecheckerboard="0"
     inkscape:deskcolor="#d1d1d1" />
  <path
     d="m 53.030041,0.26565152 c 3.1112,3.11539998 3.5373,5.77079998 3.7927,10.08890048 0.0677,1.0191 0.1353,2.0382 0.2049,3.0881 0.0577,1.1605 0.0577,1.1605 0.1166,2.3444 0.8909,-0.5122 1.7819,-1.0244 2.6998,-1.5521 5.8468,-2.5244 12.6921,-2.5182 18.8993,-1.5522 2.8983,2.0613 3.9451,3.1765 4.5641,6.7058 -0.538,3.1163 -1.5616,4.6284 -3.5356,7.0695 -0.5727,0.7216 -1.1455,1.4432 -1.7356,2.1867 -0.4455,0.5376 -0.891,1.0751 -1.35,1.6289 0.6258,0.2922 1.2516,0.5843 1.8964,0.8853 3.0474,1.6273 5.0168,3.8238 7.3608,6.3581 0.7,0.7256 1.4,1.4512 2.121,2.1988 6.262,9.3488 7.597,19.9135 6.107,30.9135 -2.133,8.9313 -5.742,16.5655 -11.314,23.7995 -0.654,0.902 -1.3073,1.803 -1.9807,2.732 -7.5077,9.886998 -18.2252,20.585998 -30.9242,22.586998 -7.5861,0.083 -12.3335,-1.286 -18.5216,-5.659 -0.716,-0.469 -1.4319,-0.939 -2.1696,-1.422 -1.7323,-1.172 -3.3902,-2.453 -5.0301,-3.751 0,-0.683 0,-1.366 0,-2.07 -0.5847,-0.243 -1.1694,-0.485 -1.7718,-0.736 -10.4751,-5.965 -17.1856,-19.210998 -20.8559,-30.306698 -2.7216,-10.7377 -2.2259,-23.6831 3.407,-33.3064 2.2914,-3.4613 4.8653,-6.2884 7.9068,-9.1188 0.9546,-0.9604 1.9092,-1.9207 2.8928,-2.9102 0.7424,-0.747 1.4849,-1.494 2.2499,-2.2636 -0.6576,-0.7043 -1.3153,-1.4085 -1.9928,-2.1342 -2.5028,-3.5861 -3.0696,-5.9231 -3.1499,-10.2829 1.8157,-2.74 3.0146,-3.0805 6.1712,-4.139 7.2607,-0.7914 13.6821,0.928 20.5706,3.1043 0.187,-0.7857 0.3739,-1.5713 0.5665,-2.3808 0.3878,-1.5426 0.3878,-1.5426 0.7835,-3.1164005 0.2506,-1.0204 0.5011,-2.0408 0.7593,-3.0922 2.1115,-6.04059998 5.0875,-6.67369998 11.2616,-5.89729998 z"
     fill="#ed251e"
     id="path1" />
  <path
     d="m 53.030041,0.26565152 c 3.1112,3.11539998 3.5373,5.77079998 3.7927,10.08890048 0.0677,1.0191 0.1353,2.0382 0.2049,3.0881 0.0577,1.1605 0.0577,1.1605 0.1166,2.3444 0.8909,-0.5122 1.7819,-1.0244 2.6998,-1.5521 5.8468,-2.5244 12.6921,-2.5182 18.8993,-1.5522 2.8983,2.0613 3.9451,3.1765 4.5641,6.7058 -0.538,3.1163 -1.5616,4.6284 -3.5356,7.0695 -0.5727,0.7216 -1.1455,1.4432 -1.7356,2.1867 -0.4455,0.5376 -0.891,1.0751 -1.35,1.6289 0.6258,0.2922 1.2516,0.5843 1.8964,0.8853 3.0474,1.6273 5.0168,3.8238 7.3608,6.3581 0.7,0.7256 1.4,1.4512 2.121,2.1988 6.262,9.3488 7.597,19.9135 6.107,30.9135 -2.133,8.9313 -5.742,16.5655 -11.314,23.7995 -0.654,0.902 -1.3073,1.803 -1.9807,2.732 -7.5077,9.886998 -18.2252,20.585998 -30.9242,22.586998 -7.5861,0.083 -12.3335,-1.286 -18.5216,-5.659 -0.716,-0.469 -1.4319,-0.939 -2.1696,-1.422 -1.7323,-1.172 -3.3902,-2.453 -5.0301,-3.751 0,-0.683 0,-1.366 0,-2.07 -0.5847,-0.243 -1.1694,-0.485 -1.7718,-0.736 -10.4751,-5.965 -17.1856,-19.210998 -20.8559,-30.306698 -2.7216,-10.7377 -2.2259,-23.6831 3.407,-33.3064 2.2914,-3.4613 4.8653,-6.2884 7.9068,-9.1188 0.9546,-0.9604 1.9092,-1.9207 2.8928,-2.9102 0.7424,-0.747 1.4849,-1.494 2.2499,-2.2636 -0.6576,-0.7043 -1.3153,-1.4085 -1.9928,-2.1342 -2.5028,-3.5861 -3.0696,-5.9231 -3.1499,-10.2829 1.8157,-2.74 3.0146,-3.0805 6.1712,-4.139 7.2607,-0.7914 13.6821,0.928 20.5706,3.1043 0.187,-0.7857 0.3739,-1.5713 0.5665,-2.3808 0.3878,-1.5426 0.3878,-1.5426 0.7835,-3.1164005 0.2506,-1.0204 0.5011,-2.0408 0.7593,-3.0922 2.1115,-6.04059998 5.0875,-6.67369998 11.2616,-5.89729998 z M 15.810141,37.452352 c -7.7628,7.9692 -10.4139,14.9243 -10.4139,25.947 0.2577,12.298 5.4756,21.3871 12.6638,31.0295 0.5727,0.768 1.1455,1.537 1.7356,2.328 6.368,7.884998 15.0877,14.917998 25.0062,17.331998 8.4477,0.621 14.8724,-3.291 21.1682,-8.619 8.7421,-7.765998 14.8929,-16.038998 19.9734,-26.562498 0.584,-1.1104 0.584,-1.1104 1.181,-2.2433 3.542,-7.6665 3.046,-17.7633 0.619,-25.6952 -2.191,-5.5658 -4.945,-10.1643 -10.0286,-13.4518 -0.3394,1.0244 -0.6789,2.0488 -1.0286,3.1042 -6.6366,2.2256 -13.046,1.1901 -19.542,-1.0347 -1.3577,3.4147 -2.7154,6.8294 -4.1142,10.3476 -2.3759,0.3414 -4.7518,0.6829 -7.1997,1.0347 -2.9463,-3.5287 -4.471,-7.147 -6.1712,-11.3823 -1.0819,0.3415 -2.1637,0.6829 -3.2784,1.0347 -6.0328,1.5529 -12.1402,1.2054 -18.3207,1.0348 0.3394,-2.0488 0.6788,-4.0976 1.0285,-6.2086 -1.4011,-0.1143 -1.4011,-0.1143 -3.2784,2.0049 z"
     fill="#0a0a04"
     id="path2" />
  <path
     d="m 46.858941,5.4395515 c 1.3576,0 2.7153,0 4.1141,0 0.5091,8.1953005 0.5091,8.1953005 1.0285,16.5561005 1.7607,-0.6829 3.5214,-1.3659 5.3355,-2.0695 6.8983,-2.3492 13.1622,-2.491 20.3778,-2.0695 -1.6339,4.5335 -3.1209,6.6407 -7.1997,9.3128 -2.8928,0.7761 -2.8928,0.7761 -5.1427,1.0348 1.1455,0.8963 1.1455,0.8963 2.3142,1.8108 2.4797,2.0411 4.7214,4.1498 6.9426,6.4672 -0.5091,1.5367 -0.5091,1.5367 -1.0286,3.1043 -7.9226,0.6428 -12.7253,-1.1649 -19.542,-5.1738 0.0636,1.0671 0.1272,2.1342 0.1928,3.2337 -0.2045,4.2525 -1.1645,6.585 -3.2784,10.2182 -1.3577,0 -2.7153,0 -4.1141,0 -3.4538,-4.1181 -3.6779,-8.2729 -4.1142,-13.4519 -0.7093,0.3735 -1.4186,0.747 -2.1494,1.1318 -6.5453,3.2518 -11.1314,4.6432 -18.4212,4.042 0.0643,-2.2635 0.0643,-2.2635 1.0285,-5.1738 2.6401,-2.4692 5.543,-5.1738 9.2568,-5.1738 0,-0.6829 0,-1.3658 0,-2.0695 -1.3364,0.1281 -1.3364,0.1281 -2.6999,0.2587 -5.1057,-0.3805 -8.151,-2.8972 -11.6995,-6.4672 0,-1.0245 0,-2.0489 0,-3.1043 8.0039,-0.4544 14.3573,-0.2368 21.6755,3.2336 1.9302,1.0481 1.9302,1.0481 4.0378,0.9054 0.1365,-0.935 0.2731,-1.8701 0.4138,-2.8334 0.2724,-1.8308 0.2724,-1.8308 0.5504,-3.6985 0.179,-1.2125 0.358,-2.425 0.5424,-3.6742 0.5504,-3.2458005 0.5504,-3.2458005 1.579,-6.3500005 z"
     fill="#289b37"
     id="path3" />
  <path
     d="m 5.717641,41.656152 c 0.6788,0.3415 1.3577,0.6829 2.0571,1.0347 -0.2851,0.699 -0.5701,1.3979 -0.8638,2.1181 -0.3726,0.923 -0.7452,1.846 -1.129,2.7971 -0.3699,0.9123 -0.7398,1.8247 -1.121,2.7647 -3.2379,8.6346 -2.2831,16.6502 0.0282,25.4324 1.0182,-0.6829 2.0365,-1.3658 3.0856,-2.0695 0.2134,0.5402 0.4269,1.0805 0.6468,1.637 6.4761,15.5662 16.6065,29.756198 32.3947,36.714198 6.8946,1.678 11.94,0.944 18.1921,-2.458 13.6335,-8.98 23.8981,-21.989998 27.9631,-37.962698 1.358,1.0244 2.715,2.0488 4.114,3.1043 0.34,-6.1465 0.679,-12.293 1.029,-18.6257 0.339,0 0.679,0 1.028,0 2.463,12.3874 -0.095,23.1246 -6.942,33.8241 -1.093,1.503 -2.209,2.99 -3.343,4.462 -0.654,0.902 -1.3073,1.803 -1.9807,2.732 -7.5078,9.886998 -18.2252,20.585998 -30.9242,22.586998 -7.5861,0.083 -12.3335,-1.286 -18.5216,-5.659 -0.716,-0.469 -1.4319,-0.939 -2.1696,-1.422 -1.7323,-1.172 -3.3902,-2.453 -5.0301,-3.751 0,-0.683 0,-1.366 0,-2.07 -0.5847,-0.243 -1.1694,-0.485 -1.7718,-0.736 -10.4751,-5.965 -17.1856,-19.210998 -20.8559,-30.306698 -2.5666,-10.126 -2.2929,-22.8042 2.6999,-32.0775 0.4667,-0.6829 0.9334,-1.3659 1.4142,-2.0695 z"
     fill="#230806"
     id="path4" />
  <path
     d="m 53.030041,0.26565152 c 3.1111,3.11539998 3.5372,5.77079998 3.7927,10.08890048 0.0676,1.0191 0.1352,2.0382 0.2049,3.0881 0.0577,1.1605 0.0577,1.1605 0.1165,2.3444 0.891,-0.5122 1.782,-1.0244 2.6999,-1.5521 5.8468,-2.5244 12.6921,-2.5182 18.8993,-1.5522 2.8982,2.0613 3.9451,3.1765 4.5641,6.7058 -0.538,3.1163 -1.5616,4.6285 -3.5356,7.0695 -0.5728,0.7216 -1.1455,1.4432 -1.7356,2.1867 -0.4455,0.5376 -0.891,1.0751 -1.35,1.629 0.6576,0.2987 1.3152,0.5975 1.9928,0.9054 2.1213,1.1641 2.1213,1.1641 3.1499,3.2336 -3.0568,-1.1636 -5.4866,-2.3002 -8.2283,-4.139 0,0.6829 0,1.3658 0,2.0695 0.6788,0.3414 1.3577,0.6829 2.0571,1.0347 -1.816,0.675 -1.816,0.675 -4.1141,1.0348 -1.9768,-1.0307 -1.9768,-1.0307 -3.857,-2.5222 -0.6311,-0.4896 -1.2622,-0.9791 -1.9125,-1.4835 -0.708,-0.5782 -0.708,-0.5782 -1.4303,-1.1681 0.3395,-0.6829 0.6789,-1.3659 1.0286,-2.0695 0.9334,-0.2775 1.8668,-0.5549 2.8284,-0.8408 4.4075,-1.6201 7.3973,-4.2131 9.5139,-8.4721 -7.8527,0.3493 -14.3469,1.088 -21.5991,4.1391 -1.3577,0 -2.7153,0 -4.1141,0 -1.1609,-5.5473 -1.1282,-10.9199 -1.0286,-16.5562005 -1.3576,0 -2.7153,0 -4.1141,0 -0.6788,5.4636005 -1.3576,10.9271005 -2.057,16.5562005 -3.8136,1.2789 -4.8085,0.5875 -8.4211,-0.9701 -0.9268,-0.3935 -1.8536,-0.787 -2.8084,-1.1924 -0.7067,-0.3108 -1.4134,-0.6216 -2.1414,-0.9418 0.6788,-1.0244 1.3576,-2.0488 2.057,-3.1043 -9.2915,-1.1127 -9.2915,-1.1127 -18.5135,0 0.3394,-1.0244 0.6788,-2.0488 1.0285,-3.1043 8.0884,-2.7124005 15.7705,-0.4217 23.6562,2.0696 0.1869,-0.7857 0.3739,-1.5713 0.5665,-2.3808 0.2585,-1.0284 0.5171,-2.0568 0.7834,-3.1164005 0.2506,-1.0204 0.5012,-2.0408 0.7594,-3.0921 2.1115,-6.04069998 5.0875,-6.67379998 11.2616,-5.89739998 z"
     fill="#030e04"
     id="path5" />
  <path
     d="m 53.030041,0.26565152 c 3.4398,3.31539998 3.5618,6.47859998 3.7927,11.12370048 0.0676,1.2111 0.1352,2.4223 0.2049,3.6702 0.0577,1.3845 0.0577,1.3845 0.1165,2.797 -1.0182,0.5122 -1.0182,0.5122 -2.057,1.0348 -0.6789,-5.4635 -1.3577,-10.9271005 -2.0571,-16.5562005 -2.5456,-0.5122 -2.5456,-0.5122 -5.1427,-1.0347 0,0.6829 0,1.3659 0,2.0695 0.6789,0.6829 1.3577,1.3659 2.0571,2.0695 -1.0182,0 -2.0365,0 -3.0856,0 -0.6788,5.4636005 -1.3576,10.9271005 -2.057,16.5562005 -3.8136,1.2789 -4.8085,0.5875 -8.4211,-0.9701 -0.9268,-0.3935 -1.8536,-0.787 -2.8084,-1.1924 -0.7067,-0.3108 -1.4134,-0.6216 -2.1414,-0.9418 0.6788,-1.0244 1.3576,-2.0488 2.057,-3.1043 -9.2915,-1.1127 -9.2915,-1.1127 -18.5135,0 0.3394,-1.0244 0.6788,-2.0488 1.0285,-3.1043 8.0884,-2.7124005 15.7705,-0.4217 23.6562,2.0696 0.1869,-0.7857 0.3739,-1.5713 0.5665,-2.3808 0.2585,-1.0284 0.5171,-2.0568 0.7834,-3.1164005 0.2506,-1.0204 0.5012,-2.0408 0.7594,-3.0921 2.1115,-6.04069998 5.0875,-6.67379998 11.2616,-5.89739998 z"
     fill="#081d09"
     id="path6" />
  <path
     d="m 5.717641,41.656152 c 0.6789,0.3415 1.3577,0.6829 2.0571,1.0347 -0.2851,0.699 -0.5701,1.3979 -0.8638,2.1181 -0.3726,0.923 -0.7451,1.846 -1.129,2.7971 -0.3699,0.9123 -0.7398,1.8247 -1.1209,2.7647 -3.238,8.6346 -2.2832,16.6502 0.0281,25.4324 1.0183,-0.6829 2.0365,-1.3658 3.0856,-2.0695 0.3918,0.9184 0.3918,0.9184 0.7915,1.8553 1.5717,3.6304 3.0836,7.0761 5.1868,10.4325 0.6046,1.0884 0.6046,1.0884 1.2214,2.1984 -0.3394,1.025 -0.6788,2.049 -1.0285,3.105 0,4.245 1.6744,5.332 4.4998,8.407 0.8353,0.920998 1.6706,1.840998 2.5312,2.788998 2.0249,2.292 2.0249,2.292 4.2828,3.29 -0.3394,0.683 -0.6788,1.366 -1.0285,2.07 -11.7755,-9.167998 -21.429,-22.132398 -23.6562,-37.251498 -0.4933,-10.3054 -0.8971,-20.1349 5.1426,-28.9732 z"
     fill="#3a0907"
     id="path7" />
  <path
     d="m 82.857441,83.046552 c 1.358,0 2.715,0 4.114,0 -3.072,10.7333 -11.7166,18.324298 -19.542,25.869298 -0.6788,-0.342 -1.3576,-0.683 -2.057,-1.035 0,-3.104 0,-3.104 2.2579,-5.534 0.9944,-0.927 1.9888,-1.854 3.0133,-2.808998 4.6695,-4.448 7.9748,-8.778 10.8598,-14.628 0.4468,-0.6149 0.894,-1.2298 1.354,-1.8633 z"
     fill="#0f0404"
     id="path8" />
  <path
     d="m 64.343841,109.94985 c -2.057,2.07 -4.1141,4.139 -6.1712,6.209 0,0.341 0,0.683 0,1.035 -5.0912,0 -10.1824,0 -15.4279,0 0,-0.683 0,-1.366 0,-2.07 2.3759,0.342 4.7518,0.683 7.1997,1.035 0,-1.024 0,-2.049 0,-3.104 5.0705,-2.111 8.8244,-3.525 14.3994,-3.105 z"
     fill="#100303"
     id="path9" />
  <path
     d="m 84.914441,38.551852 c 3.224,1.1186 4.101,2.0472 5.914,5.0444 1.286,3.2337 1.286,3.2337 1.286,7.3727 -1.018,0 -2.037,0 -3.086,0 0,1.7073 0,3.4147 0,5.1738 -0.339,0 -0.679,0 -1.028,0 -1.372,-4.1391 -2.743,-8.2781 -4.114,-12.4171 0.678,-0.683 1.357,-1.3659 2.057,-2.0695 -0.34,-1.0245 -0.679,-2.0489 -1.029,-3.1043 z"
     fill="#180605"
     id="path10" />
  <path
     d="m 27.638241,14.170252 c 1.6487,0.1581 1.6487,0.1581 3.3307,0.3194 1.2469,0.13 1.2469,0.13 2.5191,0.2627 0,1.0244 0,2.0488 0,3.1043 -5.7701,-0.3415 -11.5401,-0.683 -17.4851,-1.0348 -0.3394,1.0244 -0.6788,2.0488 -1.0285,3.1043 0,-1.0244 0,-2.0488 0,-3.1043 -0.6788,-0.3415 -1.3576,-0.6829 -2.057,-1.0347 5.1808,-1.7375 9.267,-2.1595 14.7208,-1.6169 z"
     fill="#010401"
     id="path11" />
  <path
     d="m 65.372441,27.169452 c 4.8972,-0.4619 9.0564,0.8588 13.3709,3.1043 2.0571,2.2636 2.0571,2.2636 3.0856,4.1391 -3.0567,-1.1637 -5.4866,-2.3003 -8.2283,-4.1391 0,0.683 0,1.3659 0,2.0695 0.6789,0.3415 1.3577,0.683 2.0571,1.0348 -1.816,0.675 -1.816,0.675 -4.1141,1.0348 -1.9767,-1.0308 -1.9767,-1.0308 -3.857,-2.5223 -0.6311,-0.4895 -1.2622,-0.979 -1.9124,-1.4834 -0.472,-0.3855 -0.944,-0.771 -1.4303,-1.1681 0.3394,-0.683 0.6788,-1.3659 1.0285,-2.0696 z"
     fill="#071808"
     id="path12" />
  <path
     d="m 70.515141,59.247052 c 1.3576,0.6829 2.7153,1.3658 4.1141,2.0695 0,2.0488 0,4.0976 0,6.2085 -2.0365,1.0245 -2.0365,1.0245 -4.1141,2.0696 -2.0571,-2.0696 -2.0571,-2.0696 -2.3142,-5.1738 0.2571,-3.1043 0.2571,-3.1043 2.3142,-5.1738 z"
     fill="#2a0604"
     id="path13" />
  <path
     d="m 23.202641,59.247052 c 1.3577,0.6829 2.7153,1.3658 4.1141,2.0695 0,2.0488 0,4.0976 0,6.2085 -2.0364,1.0245 -2.0364,1.0245 -4.1141,2.0696 -2.057,-2.0696 -2.057,-2.0696 -2.3142,-5.1738 0.2572,-3.1043 0.2572,-3.1043 2.3142,-5.1738 z"
     fill="#180302"
     id="path14" />
  <path
     d="m 6.746141,45.795152 c 0.6789,0.683 1.3577,1.3659 2.0571,2.0695 -0.4892,1.3006 -0.4892,1.3006 -0.9884,2.6274 -1.1409,3.8234 -1.4876,7.2328 -1.7115,11.2125 -0.0769,1.2886 -0.1538,2.5771 -0.233,3.9046 -0.0504,0.9738 -0.1008,1.9475 -0.1527,2.9507 -0.3394,0 -0.6788,0 -1.0285,0 -0.0935,-1.4205 -0.0935,-1.4205 -0.1889,-2.8698 -0.0861,-1.2298 -0.1723,-2.4597 -0.2611,-3.7268 -0.0835,-1.2245 -0.1671,-2.4489 -0.2531,-3.7105 -0.1309,-3.057 -0.1309,-3.057 -1.354,-5.2143 1.003,-3.1047 1.8026,-4.9177 4.1141,-7.2433 z"
     fill="#1e0605"
     id="path15" />
  <path
     d="m 6.746141,73.733652 c 1.7961,2.7105 2.4554,4.1786 3.0856,7.2433 -1.0182,0 -2.0365,0 -3.0856,0 0.6789,2.0488 1.3577,4.0977 2.0571,6.2089 -1.0182,-0.342 -2.0365,-0.6833 -3.0856,-1.0351 -0.9763,-2.1382 -0.9763,-2.1382 -1.7356,-4.7211 -0.2586,-0.855 -0.5171,-1.71 -0.7835,-2.5909 -0.1869,-0.6603 -0.3739,-1.3205 -0.5665,-2.0008 1.0183,-0.3415 2.0365,-0.683 3.0856,-1.0348 0.3394,-0.6829 0.6788,-1.3659 1.0285,-2.0695 z"
     fill="#320906"
     id="path16" />
  <path
     d="m 23.202741,34.412752 c 0.3394,0.683 0.6788,1.3659 1.0285,2.0696 3.0547,0 6.1095,0 9.2568,0 0,0.6829 0,1.3658 0,2.0695 -2.4741,1.2445 -4.0627,1.139 -6.814,1.0994 -1.2609,-0.014 -1.2609,-0.014 -2.5473,-0.0283 -0.9665,-0.018 -0.9665,-0.018 -1.9526,-0.0364 0.3394,-1.7073 0.6789,-3.4147 1.0286,-5.1738 z"
     fill="#268432"
     id="path17" />
  <path
     d="m 54.058541,34.412752 c 3.4517,0.6201 5.5315,1.9104 8.2283,4.1391 -1.0183,0.6829 -2.0365,1.3659 -3.0856,2.0695 -0.6789,-0.6829 -1.3577,-1.3659 -2.0571,-2.0695 -1.5274,2.561 -1.5274,2.561 -3.0856,5.1738 -1.5782,-3.1756 -0.5655,-5.8991 0,-9.3129 z"
     fill="#0a1c09"
     id="path18" />
  <path
     d="m 25.259741,105.81085 c 3.0501,1.425 5.5451,3.15 8.2282,5.174 1.356,0.72 2.7235,1.42 4.1141,2.07 -3.0856,1.034 -3.0856,1.034 -5.0141,0.194 -0.7212,-0.406 -1.4425,-0.811 -2.1856,-1.229 -0.9122,-0.342 -1.8243,-0.683 -2.7642,-1.035 -2.3784,-1.035 -2.3784,-1.035 -3.407,-3.104 0.3395,-0.683 0.6789,-1.366 1.0286,-2.07 z"
     fill="#0f0201"
     id="path19" />
  <path
     d="m 46.858841,94.428852 c 1.0183,0.341 2.0365,0.683 3.0856,1.035 0,2.049 0,4.097 0,6.207998 -1.3576,0 -2.7153,0 -4.1141,0 -0.0437,-2.068998 -0.042,-4.138998 0,-6.207998 0.3394,-0.342 0.6788,-0.683 1.0285,-1.035 z"
     fill="#230604"
     id="path20" />
  <path
     d="m 33.487941,80.976952 c 1.0183,0.3415 2.0365,0.683 3.0856,1.0348 0,2.0488 0,4.0977 0,6.2081 -1.3576,0 -2.7153,0 -4.1141,0 -0.0438,-2.0686 -0.042,-4.139 0,-6.2081 0.3394,-0.3415 0.6788,-0.6829 1.0285,-1.0348 z"
     fill="#160403"
     id="path21" />
  <path
     d="m 60.229741,80.976952 c 1.0183,0.3415 2.0365,0.683 3.0856,1.0348 -0.3394,2.3903 -0.6788,4.7806 -1.0285,7.2431 -1.0182,0 -2.0365,0 -3.0856,0 -0.0436,-2.414 -0.0421,-4.829 0,-7.2431 0.3394,-0.3415 0.6788,-0.6829 1.0285,-1.0348 z"
     fill="#210503"
     id="path22" />
  <path
     d="m 46.858841,64.420852 c 1.0183,0.3415 2.0365,0.6829 3.0856,1.0348 0,2.0488 0,4.0976 0,6.2085 -1.3576,0 -2.7153,0 -4.1141,0 -0.0437,-2.069 -0.042,-4.1395 0,-6.2085 0.3394,-0.3415 0.6788,-0.683 1.0285,-1.0348 z"
     fill="#130201"
     id="path23" />
  <path
     d="m 84.914441,38.551852 c 4.664,2.3463 5.399,3.5094 7.2,8.2781 -0.34,1.3658 -0.679,2.7317 -1.029,4.139 -2.036,-4.0977 -4.073,-8.1953 -6.171,-12.4171 z"
     fill="#39100d"
     id="path24" />
  <path
     d="m 56.115641,37.517052 c 0.6788,0.683 1.3577,1.3659 2.0571,2.0696 -0.6071,1.7082 -1.2319,3.4101 -1.8642,5.1091 -0.5191,1.4226 -0.5191,1.4226 -1.0487,2.8739 -1.2012,2.3646 -1.2012,2.3646 -4.2868,3.3993 0,-0.6829 0,-1.3659 0,-2.0695 0.6788,0 1.3576,0 2.057,0 -0.0954,-1.0884 -0.0954,-1.0884 -0.1928,-2.1989 0.2366,-3.6502 1.5217,-6.0169 3.2784,-9.1835 z"
     fill="#210804"
     id="path25" />
  <path
     d="m 21.145641,36.482352 c 0.3394,1.3658 0.6788,2.7317 1.0285,4.139 3.0548,0.3415 6.1095,0.6829 9.2568,1.0348 0,0.3414 0,0.6829 0,1.0347 -1.8427,0.0279 -3.6855,0.048 -5.5284,0.0647 -1.0262,0.012 -2.0524,0.024 -3.1097,0.0364 -2.6757,-0.1011 -2.6757,-0.1011 -4.7328,-1.1358 0.3394,-1.3659 0.6788,-2.7318 1.0285,-4.1391 0.6789,0.3415 1.3577,0.683 2.0571,1.0348 0,-0.683 0,-1.3659 0,-2.0695 z"
     fill="#230c05"
     id="path26" />
  <path
     d="m 5.717641,78.907452 c 1.9928,0.5174 1.9928,0.5174 4.1141,2.0695 0.7075,2.7904 0.8429,5.3826 1.0285,8.2779 -1.3576,-0.683 -2.7153,-1.366 -4.1141,-2.069 0,-1.0247 0,-2.0491 0,-3.1046 -0.3197,-1.7291 -0.6591,-3.4547 -1.0285,-5.1738 z"
     fill="#090302"
     id="path27" />
  <path
     d="m 13.945841,32.343252 c 0.6789,0.3415 1.3577,0.683 2.0571,1.0348 -0.6788,1.3659 -1.3577,2.7317 -2.0571,4.139 -1.0182,0 -2.0364,0 -3.0855,0 0,-1.0244 0,-2.0488 0,-3.1043 1.0182,-0.6829 2.0364,-1.3658 3.0855,-2.0695 z m -4.1141,6.2086 c 0,3.1043 0,3.1043 0,3.1043 z"
     fill="#030300"
     id="path28" />
  <path
     d="m 16.002941,37.517052 c 0.3394,1.3659 0.6788,2.7318 1.0285,4.1391 -1.697,1.3659 -3.3941,2.7317 -5.1426,4.139 -0.6788,-0.3414 -1.3577,-0.6829 -2.0571,-1.0347 3.857,-6.0792 3.857,-6.0792 6.1712,-7.2434 z"
     fill="#ea2b2a"
     id="path29" />
  <path
     d="m 92.114441,49.934252 c 2.674,4.0358 2.212,7.7341 2.057,12.4171 -0.34,0 -0.679,0 -1.029,0 -1.512,-4.5657 -2.436,-7.7429 -1.028,-12.4171 z"
     fill="#220303"
     id="path30" />
  <path
     d="m 40.687741,40.621352 c -0.3394,1.3659 -0.6788,2.7318 -1.0285,4.1391 -0.3395,-1.0245 -0.6789,-2.0489 -1.0286,-3.1043 -2.3759,0.3414 -4.7518,0.6829 -7.1997,1.0347 5.1427,-3.4492 5.1427,-3.4492 9.2568,-2.0695 z"
     fill="#c82820"
     id="path31" />
  <path
     d="m 70.515141,33.378052 c 1.3576,1.0244 2.7153,2.0488 4.1141,3.1043 -0.3394,0.6829 -0.6789,1.3659 -1.0286,2.0695 -3.0547,-0.3415 -6.1094,-0.6829 -9.2567,-1.0348 0,-0.3414 0,-0.6829 0,-1.0347 2.0365,0 4.073,0 6.1712,0 0,-1.0244 0,-2.0488 0,-3.1043 z"
     fill="#218934"
     id="path32" />
</svg>
