<?xml version="1.0" encoding="UTF-8" standalone="no"?>
<svg
   width="109.15108"
   height="95.886024"
   viewBox="0 0 109.15108 95.886024"
   fill="none"
   version="1.1"
   id="svg30"
   sodipodi:docname="Slice 32.svg"
   xmlns:inkscape="http://www.inkscape.org/namespaces/inkscape"
   xmlns:sodipodi="http://sodipodi.sourceforge.net/DTD/sodipodi-0.dtd"
   xmlns="http://www.w3.org/2000/svg"
   xmlns:svg="http://www.w3.org/2000/svg">
  <defs
     id="defs30" />
  <sodipodi:namedview
     id="namedview30"
     pagecolor="#ffffff"
     bordercolor="#666666"
     borderopacity="1.0"
     inkscape:showpageshadow="2"
     inkscape:pageopacity="0.0"
     inkscape:pagecheckerboard="0"
     inkscape:deskcolor="#d1d1d1" />
  <path
     d="m 70.145185,4.1985803 c 1.2589,0.3542 1.2589,0.3542 2.5432,0.7155 4.952,1.6296 8.3865,3.7313 11.8561,7.5625997 1.347,4.2503 1.218,8.1541 0,12.4171 0.573,0.0267 1.146,0.0534 1.736,0.0808 6.669,0.4987 12.422,1.8223 17.331995,6.6492 4.918,6.2348 5.922,13.0362 5.424,20.8205 -0.938,7.7816 -3.451,13.3666 -9.063995,19.0136 -4.269,2.951 -8.013,4.265 -13.178,4.527 -2.311,0.11 -2.311,0.11 -4.307,0.647 -1.7234,2.775 -1.7234,2.775 -3.0855,6.208 -6.3622,7.644 -15.6753,11.665 -25.3778,12.897 -3.9174,0.175 -7.7934,0.177 -11.7136,0.103 -1.3079,0.011 -2.6159,0.022 -3.9634,0.034 -11.3963,-0.088 -21.8719,-1.849 -30.3035002,-10.067 -5.7386,-6.649 -6.9414,-12.886 -7.13549997,-21.475 -0.0213,-0.802 -0.0427,-1.604 -0.0647,-2.431 -0.0445,-1.704 -0.0867,-3.408 -0.1269,-5.112 -0.0602,-2.5429 -0.1275,-5.0858 -0.1961,-7.6288 -0.13,-4.9841 -0.227,-9.9684 -0.3154,-14.9535 -0.0171,-0.828 -0.0342,-1.656 -0.0519,-2.5091 -0.0465,-2.404 -0.0779,-4.8077 -0.1048,-7.2119 -0.0155,-0.7185 -0.031,-1.4369 -0.047,-2.1771 -0.0312,-4.9205 0.4412,-8.8818 3.83569997,-12.5843997 17.6926002,-12.6788 46.3758002,-11.1841 66.3081002,-5.5255 z m 14.3993,39.3208997 c 0,4.7806 0,9.5612 0,14.4864 1.018,0.512 1.018,0.512 2.057,1.035 2.536,-1.833 3.958,-3.224 4.496,-6.3784 0.275,-4.8161 0.275,-4.8161 -1.888,-8.9126 -2.197,-1.7601 -2.11,-1.5153 -4.665,-0.2304 z"
     fill="#1488e9"
     id="path1" />
  <path
     d="m 70.145185,4.1985803 c 1.2589,0.3542 1.2589,0.3542 2.5432,0.7155 4.952,1.6296 8.3865,3.7313 11.8561,7.5625997 1.347,4.2503 1.218,8.1541 0,12.4171 0.573,0.0267 1.146,0.0534 1.736,0.0808 6.669,0.4987 12.422,1.8223 17.331995,6.6492 4.918,6.2348 5.922,13.0362 5.424,20.8205 -0.938,7.7816 -3.451,13.3666 -9.063995,19.0136 -4.269,2.951 -8.013,4.265 -13.178,4.527 -2.311,0.11 -2.311,0.11 -4.307,0.647 -1.7234,2.775 -1.7234,2.775 -3.0855,6.208 -6.3622,7.644 -15.6753,11.665 -25.3778,12.897 -3.9174,0.175 -7.7934,0.177 -11.7136,0.103 -1.3079,0.011 -2.6159,0.022 -3.9634,0.034 -11.3963,-0.088 -21.8719,-1.849 -30.3035002,-10.067 -5.7386,-6.649 -6.9414,-12.886 -7.13549997,-21.475 -0.0213,-0.802 -0.0427,-1.604 -0.0647,-2.431 -0.0445,-1.704 -0.0867,-3.408 -0.1269,-5.112 -0.0602,-2.5429 -0.1275,-5.0858 -0.1961,-7.6288 -0.13,-4.9841 -0.227,-9.9684 -0.3154,-14.9535 -0.0171,-0.828 -0.0342,-1.656 -0.0519,-2.5091 -0.0465,-2.404 -0.0779,-4.8077 -0.1048,-7.2119 -0.0155,-0.7185 -0.031,-1.4369 -0.047,-2.1771 -0.0312,-4.9205 0.4412,-8.8818 3.83569997,-12.5843997 17.6926002,-12.6788 46.3758002,-11.1841 66.3081002,-5.5255 z M 5.3477848,21.78948 c -0.1039,13.3223 -0.1347,26.6496 0.2571,39.9674 0.0145,0.96 0.029,1.92 0.044,2.909 0.2615,7.163 1.8726,12.719 6.6455002,18.162 12.9244,9.521 29.9987,8.644 45.2513,6.48 7.9194,-1.627 13.2936,-4.412 18.5377,-10.631 2.9254,-4.743 3.5909,-9.539 3.7445,-15.032 0.0398,-1.293 0.0797,-2.585 0.1208,-3.916 0.0476,-2.037 0.0476,-2.037 0.0961,-4.116 0.0389,-1.3984 0.0783,-2.7971 0.1183,-4.1958 0.2697,-9.8765 0.397,-19.7479 0.2674,-29.6276 -0.8452,0.2821 -0.8452,0.2821 -1.7075,0.57 -2.8441,0.9072 -5.7029,1.7307 -8.5778,2.5343 -1.0487,0.2961 -2.0974,0.5922 -3.178,0.8973 -20.4896,4.9587 -42.0496,3.5562 -61.6194002,-4.0016 z m 79.1967002,21.73 c 0,4.7806 0,9.5612 0,14.4864 1.018,0.512 1.018,0.512 2.057,1.035 2.536,-1.833 3.958,-3.224 4.496,-6.3784 0.275,-4.8161 0.275,-4.8161 -1.888,-8.9126 -2.197,-1.7601 -2.11,-1.5153 -4.665,-0.2304 z"
     fill="#03101e"
     id="path2" />
  <path
     d="m 83.516485,22.82428 c 0.339,0.6829 0.678,1.3659 1.028,2.0695 1.913,0.3286 1.913,0.3286 4.179,0.3881 5.842,0.5606 10.625,2.1501 14.888995,6.3419 4.918,6.2348 5.922,13.0362 5.424,20.8205 -0.938,7.7816 -3.451,13.3666 -9.063995,19.0136 -4.269,2.951 -8.013,4.265 -13.178,4.527 -2.308,0.106 -2.308,0.106 -4.307,0.647 -1.783,2.81 -1.783,2.81 -3.0855,6.208 -2.2466,2.271 -4.6816,4.252 -7.1997,6.209 -1.0183,-0.683 -2.0365,-1.366 -3.0856,-2.07 1.5769,-2.776 3.1494,-5.249 5.2069,-7.696 3.6005,-4.79 4.4477,-10.377 5.6288,-16.151 0.4781,-2.022 0.4781,-2.022 1.5066,-4.091 0.2395,-2.979 0.4315,-5.9411 0.5785,-8.9248 0.045,-0.8297 0.089,-1.6594 0.135,-2.5142 0.109,-2.0504 0.212,-4.1011 0.315,-6.1519 1.697,-0.683 3.394,-1.3659 5.143,-2.0696 -1.697,-0.6829 -3.394,-1.3658 -5.143,-2.0695 0,-2.3903 0,-4.7806 0,-7.2433 1.358,-0.6829 2.715,-1.3659 4.114,-2.0695 -1.018,-0.3415 -2.036,-0.6829 -3.085,-1.0348 0,-1.3658 0,-2.7317 0,-4.139 z m 1.028,20.6952 c 0,4.7806 0,9.5612 0,14.4864 1.018,0.512 1.018,0.512 2.057,1.035 2.536,-1.833 3.958,-3.224 4.496,-6.3783 0.275,-4.8162 0.275,-4.8162 -1.888,-8.9127 -2.197,-1.7601 -2.111,-1.5153 -4.665,-0.2304 z"
     fill="#030d18"
     id="path3" />
  <path
     d="m 42.053385,0.77098028 c 1.0793,0.0036 2.1585,0.0072 3.2704,0.0109 8.5975,0.1203 16.5155,1.05880002 24.8214,3.41670002 0.8392,0.2361 1.6785,0.4722 2.5432,0.7155 4.952,1.6296 8.3865,3.7313 11.8561,7.5625997 1.796,5.1755 1.089,9.474 -1.028,14.4867 2.036,0.5122 2.036,0.5122 4.114,1.0347 -0.679,0.683 -1.358,1.3659 -2.057,2.0695 -1.019,0 -2.037,0 -3.086,0 0.509,3.5855 0.509,3.5855 1.029,7.2433 1.697,0.3415 3.394,0.683 5.142,1.0348 -1.35,1.5521 -1.35,1.5521 -3.085,3.1043 -1.019,0 -2.037,0 -3.086,0 0.054,1.8327 0.054,1.8327 0.109,3.7025 0.028,1.6114 0.057,3.2228 0.084,4.8342 0.026,0.8044 0.052,1.6087 0.078,2.4374 0.01,0.7803 0.02,1.5606 0.03,2.3646 0.017,0.7153 0.033,1.4302 0.049,2.1672 -0.454,2.706 -1.6913,4.16 -3.4356,6.224 -0.1185,-13.8416 -0.003,-27.5837 1.0286,-41.3903 -0.5635,0.2627 -1.127,0.5255 -1.7076,0.7962 -12.4653,5.4446 -24.4468,6.7215 -37.8909,6.7704 -1.7312,0.0085 -1.7312,0.0085 -3.4974,0.0172 -5.9056,-0.0517 -10.9889,-0.3892 -16.5589,-2.41 3.4869,-2.3387 4.555,-2.2973 8.622,-2.1989 1.1085,0.0173 2.2171,0.0347 3.3593,0.0525 1.1798,0.0254 2.3596,0.0507 3.5752,0.0768 10.7681,0.132 21.1216,-0.4006 31.7559,-2.0695 0,-0.6829 0,-1.3659 0,-2.0695 -8.4301,-1.0085 -16.8463,-1.3488 -25.3276,-1.6168 -1.3271,-0.0447 -2.6543,-0.0894 -4.0217,-0.1354 -3.2449,-0.1088 -6.4898,-0.2145 -9.7349,-0.3173 0.3395,-0.683 0.6789,-1.3659 1.0286,-2.0695 4.6454,-0.0775 9.2905,-0.1335 13.9364,-0.1706 1.576,-0.0154 3.1519,-0.0365 4.7278,-0.0636 15.9735,-0.2675 15.9735,-0.2675 23.5301,2.8683 2.6901,0.6223 3.8596,-0.1634 6.1466,-1.5994 -0.1332,-2.0196 -0.1332,-2.0196 -1.0285,-4.139 -17.4497,-10.0786997 -42.9705,-7.7645997 -61.7119,-3.1043 -2.4082,0.6647 -4.8037,1.3606 -7.1997002,2.0695 0,-1.0244 0,-2.0488 0,-3.1042997 1.3031,-0.6975 2.6112002,-1.3855 3.9213002,-2.0695 0.7279,-0.3841 1.4558,-0.7683 2.2057,-1.1641 2.1013,-0.9054 2.1013,-0.9054 5.1869,-0.9054 0,-0.6829 0,-1.3659 0,-2.0695 7.4929,-1.8097 14.6108,-2.43460002 22.3062,-2.39290002 z"
     fill="#02080f"
     id="path4" />
  <path
     d="m 78.373485,13.51138 c 0.7473,2.2029 0.7473,2.2029 1.0285,4.1391 -1.9285,1.7461 -1.9285,1.7461 -5.1427,3.1042 -3.5714,-0.6443 -6.8766,-1.8775 -10.2853,-3.1042 -5.4876,-1.7239 -11.2966,-1.2272 -16.986,-1.2265 -2.0743,-0.0023 -4.148,-0.021 -6.2222,-0.0407 -12.9836,-0.2335 -12.9836,-0.2335 -25.2716,3.4248 -2.6863,1.3257 -4.2642,0.8003 -7.0608002,-0.0881 -0.6789,-0.683 -1.3577,-1.3659 -2.0571,-2.0695 0.1888,-2.0655 0.1888,-2.0655 1.0285,-4.1391 16.3435002,-11.0733997 54.8608002,-12.2156997 70.9687002,0 z"
     fill="#0d7bd4"
     id="path5" />
  <path
     d="m 2.2620848,34.20658 c 2.1295,1.7486 3.0047,2.7325 3.6006,5.4722 0.0568,0.9113 0.1136,1.8225 0.172,2.7614 0.0668,1.0133 0.1336,2.0265 0.2024,3.0705 0.2673,6.1135 0.4307,12.2312 0.4907,18.3502 0.2035,7.109 1.2114,13.304 6.3841002,18.515 10.2127,8.564 25.0388,7.397 37.4912,6.673 6.705,-0.703 13.1233,-2.084 19.542,-4.139 0,0.683 0,1.366 0,2.069 0.6789,0.683 1.3577,1.366 2.0571,2.07 -1.24,0.652 -2.4835,1.298 -3.7284,1.94 -0.6921,0.36 -1.3842,0.72 -2.0973,1.091 -7.2399,3.338 -13.6737,3.563 -21.5444,3.561 -2.0446,0.004 -4.0892,0.043 -6.1335,0.081 -11.6171,0.035 -21.6621,-1.673 -30.5546002,-9.599 -5.0861,-6.466 -6.4839,-12.253 -6.2837,-20.388 0.0059,-0.907 0.0117,-1.814 0.0177,-2.749 0.0228,-2.868 0.0744,-5.734 0.127,-8.6015 0.0206,-1.9563 0.0394,-3.9126 0.0562,-5.869 0.0451,-4.7701 0.116,-9.5392 0.2009,-14.3088 z"
     fill="#020b15"
     id="path6" />
  <path
     d="m 83.516485,31.10238 c 4.607,-0.5985 8.609,-0.982 12.728,1.4308 4.607995,3.9375 7.488995,7.124 8.054995,13.3145 0.316,7.7109 -0.9,14.0052 -6.190995,19.7902 -4.693,4.289 -9.39,5.084 -15.621,4.785 0,-2.049 0,-4.097 0,-6.208 0.621,-0.152 1.241,-0.304 1.88,-0.461 4.219,-1.191 6.867,-2.13 10.012,-5.295 1.985,-4.7753 2.292,-8.8026 1.479,-13.9047 -1.633,-3.2865 -2.769,-4.6856 -6.219,-5.9377 -2.019,-0.5294 -4.071,-0.9271 -6.123,-1.3056 0,-2.0488 0,-4.0976 0,-6.2085 z"
     fill="#1482db"
     id="path7" />
  <path
     d="m 44.046285,18.42658 c 1.1826,-0.008 2.3653,-0.0161 3.5837,-0.0243 7.0631,0.0162 13.6001,0.63 20.4582,2.3525 0,0.6829 0,1.3658 0,2.0695 -17.0244,3.6842 -33.5081,5.1251 -50.398,0 0,-0.683 0,-1.3659 0,-2.0695 8.8507,-1.7789 17.3409,-2.3897 26.3561,-2.3282 z"
     fill="#292a2a"
     id="path8" />
  <path
     d="m 80.430385,13.51138 c 3.0861,1.0348 3.0861,1.0348 5.1431,3.1043 -0.382,3.5303 -1.141,6.9215 -2.057,10.3476 1.357,0.3415 2.715,0.6829 4.114,1.0348 -0.679,0.6829 -1.358,1.3658 -2.057,2.0695 -1.019,0 -2.037,0 -3.086,0 0.339,2.3903 0.679,4.7806 1.029,7.2433 1.697,0.3415 3.394,0.6829 5.142,1.0348 -1.35,1.5521 -1.35,1.5521 -3.085,3.1042 -1.019,0 -2.037,0 -3.086,0 0.036,1.2219 0.072,2.4437 0.108,3.7025 0.029,1.6114 0.058,3.2229 0.085,4.8343 0.039,1.2065 0.039,1.2065 0.078,2.4373 0.01,0.7804 0.02,1.5607 0.03,2.3646 0.016,0.7153 0.033,1.4303 0.049,2.1673 -0.454,2.706 -1.6913,4.159 -3.4356,6.224 -0.1225,-14.1856 0.045,-28.2713 1.0285,-42.4252 -0.6788,-0.3414 -1.3576,-0.6829 -2.057,-1.0347 0.6788,-2.0488 1.3576,-4.0977 2.057,-6.2086 z"
     fill="#010406"
     id="path9" />
  <path
     d="m 83.516485,37.31088 c 3.002,-0.3596 5.278,-0.5513 7.918,1.0792 2.247,1.8661 4.138,3.5194 5.452,6.1641 0.072,1.7664 0.087,3.5355 0.065,5.3032 -0.01,0.9417 -0.019,1.8834 -0.028,2.8536 -0.012,0.723 -0.024,1.4459 -0.037,2.1908 -0.339,0 -0.678,0 -1.028,0 0,-2.3903 0,-4.7806 0,-7.2433 -0.679,0 -1.358,0 -2.057,0 -0.043,1.2592 -0.085,2.5183 -0.129,3.8157 -0.426,3.5031 -1.139,5.2337 -3.792,7.5667 -3.279,2.069 -3.279,2.069 -7.393,2.069 0,-6.4875 0,-12.9754 0,-19.66 1.697,-0.6829 3.394,-1.3658 5.143,-2.0695 -1.358,-0.6829 -2.716,-1.3659 -4.114,-2.0695 z m 1.028,6.2086 c 0,4.7805 0,9.5611 0,14.4864 1.018,0.512 1.018,0.512 2.057,1.035 2.536,-1.833 3.958,-3.224 4.496,-6.3784 0.275,-4.8161 0.275,-4.8161 -1.888,-8.9127 -2.197,-1.76 -2.111,-1.5153 -4.665,-0.2303 z"
     fill="#071521"
     id="path10" />
  <path
     d="m 83.516485,22.82428 c 0.339,0.6829 0.678,1.3659 1.028,2.0695 1.913,0.3286 1.913,0.3286 4.178,0.3881 5.843,0.5606 10.626,2.1501 14.889995,6.3419 5.723,7.2563 5.933,15.1176 5.086,24.0181 -0.498,2.364 -0.498,2.364 -2.555,4.434 0.024,-0.863 0.048,-1.726 0.073,-2.615 0.112,-7.083 -0.132,-13.3398 -2.13,-20.15 -0.679,-0.6829 -1.357,-1.3659 -2.057,-2.0695 -0.679,0.683 -1.358,1.3659 -2.056995,2.0695 -0.806,-0.8323 -1.612,-1.6646 -2.443,-2.5222 -4.179,-3.5778 -8.713,-3.5704 -14.013,-3.6863 0,2.0488 0,4.0976 0,6.2085 -0.34,0 -0.679,0 -1.029,0 0,-2.3903 0,-4.7806 0,-7.2433 1.358,-0.6829 2.715,-1.3659 4.114,-2.0695 -1.018,-0.3415 -2.036,-0.6829 -3.085,-1.0348 0,-1.3658 0,-2.7317 0,-4.139 z"
     fill="#041a31"
     id="path11" />
  <path
     d="m 83.516485,31.10228 c 5.44,-0.5947 9.983,-0.8858 14.528,2.5223 2.669995,2.6742 3.426995,4.564 3.534995,8.3427 -0.304,3.8461 -1.175,7.2837 -2.634995,10.865 -0.34,0 -0.679,0 -1.029,0 -0.163,-0.699 -0.326,-1.3979 -0.494,-2.118 -1.536,-5.9249 -1.536,-5.9249 -4.97,-10.8812 -3.031,-1.6307 -5.527,-2.2032 -8.935,-2.5222 0,-2.0488 0,-4.0976 0,-6.2086 z"
     fill="#1288e0"
     id="path12" />
  <path
     d="m 24.889885,9.3723803 c -1.0183,1.0243997 -2.0365,2.0487997 -3.0856,3.1042997 0.6788,0.6829 1.3576,1.3659 2.057,2.0695 -1.0182,0.3415 -2.0365,0.6829 -3.0856,1.0348 0,0.6829 0,1.3658 0,2.0695 -6.4029,3.1577 -6.4029,3.1577 -10.0924,2.9102 -2.2499002,-0.8407 -2.2499002,-0.8407 -4.3070002,-2.9102 0.1929,-2.0695 0.1929,-2.0695 1.0285,-4.1391 C 12.521685,10.07958 18.755385,8.9741803 24.889885,9.3723803 Z"
     fill="#0e83e0"
     id="path13" />
  <path
     d="m 97.915485,30.06758 c 5.034995,3.9644 7.633995,6.2056 8.870995,12.6758 0.795,7.9962 0.562,13.1155 -2.7,20.4365 -0.679,0.683 -1.357,1.366 -2.057,2.07 -0.679,0 -1.358,0 -2.056995,0 0.491995,-2.806 1.076995,-5.298 2.120995,-7.955 1.991,-7.0767 1.503,-14.1476 -1.092,-21.0188 -0.986,-1.411 -2.002995,-2.802 -3.085995,-4.139 0,-0.6829 0,-1.3659 0,-2.0695 z"
     fill="#01040a"
     id="path14" />
  <path
     d="m 99.972485,38.34568 c 0.678995,0 1.357995,0 2.056995,0 2.947,5.5587 3.022,12.0363 1.362,18.0312 -0.727,1.951 -1.549,3.865 -2.39,5.768 -0.34,0 -0.679,0 -1.028995,0 -0.339,-1.707 -0.679,-3.414 -1.028,-5.174 -0.679,0.342 -1.358,0.683 -2.058,1.035 -1.266,-3.8224 -0.662,-6.4211 0,-10.3474 0.679,0.3415 1.358,0.6829 2.058,1.0348 0.775,-5.1522 0.775,-5.1522 1.028,-10.3476 z"
     fill="#138bee"
     id="path15" />
  <path
     d="m 67.059585,90.08388 c -10.9518,4.055 -24.8743,7.043 -35.9986,2.069 0,-0.341 0,-0.683 0,-1.034 0.6585,0.01 1.3171,0.021 1.9955,0.032 2.999,0.044 5.9978,0.07 8.9969,0.097 1.0362,0.017 2.0723,0.035 3.1399,0.052 1.0043,0.007 2.0086,0.014 3.0434,0.021 0.921,0.01 1.8421,0.021 2.791,0.032 2.9466,-0.26 5.1114,-1.103 7.8036,-2.304 4.6799,-1.345 4.6799,-1.345 8.2283,1.035 z"
     fill="#020101"
     id="path16" />
  <path
     d="m 91.744485,42.48468 c 0.339,1.0244 0.679,2.0488 1.028,3.1043 -1.018,0 -2.036,0 -3.085,0 0,-0.683 0,-1.3659 0,-2.0695 -1.697,0 -3.394,0 -5.143,0 0.339,4.7806 0.679,9.5611 1.029,14.4864 2.036,-0.683 4.073,-1.366 6.171,-2.069 -2.314,2.587 -2.314,2.587 -5.143,5.173 -1.358,0 -2.715,0 -4.114,0 0,-6.4875 0,-12.9754 0,-19.66 3.91,-1.3111 5.539,-0.5915 9.257,1.0348 z"
     fill="#123957"
     id="path17" />
  <path
     d="m 78.373385,21.78948 c 0.6788,0 1.3576,0 2.057,0 0.2129,16.2253 -0.4331,32.4227 -1.0285,48.6334 -0.3394,0 -0.6788,0 -1.0285,0 -0.1737,-5.429 -0.3387,-10.858 -0.496,-16.2878 -0.0546,-1.8436 -0.1114,-3.6871 -0.1707,-5.5305 -0.0853,-2.6637 -0.1621,-5.3274 -0.2373,-7.9914 -0.0278,-0.812 -0.0556,-1.624 -0.0843,-2.4607 -0.146,-5.5545 0.2799,-10.851 0.9883,-16.363 z"
     fill="#106cb5"
     id="path18" />
  <path
     d="m 95.858485,55.93688 c 1.371,0 2.743,0 4.114,0 0.379995,6.75 0.379995,6.75 -1.543,9.248 -0.509,0.363 -1.018,0.725 -1.543,1.099 -2.036,-0.683 -4.073,-1.366 -6.171,-2.069 3.986,-7.114 3.986,-7.114 5.143,-8.278 z"
     fill="#1e91ec"
     id="path19" />
  <path
     d="m 97.915485,36.27608 c 1.018,0.3415 2.036,0.683 3.085995,1.0348 0.223,5.628 0.107,10.2139 -2.056995,15.5214 -0.34,0 -0.679,0 -1.029,0 -0.602,-1.9761 -1.175,-3.9613 -1.736,-5.9499 -0.322,-1.1044 -0.644,-2.2089 -0.976,-3.3468 -0.374,-3.1204 -0.374,-3.1204 1.085,-5.5941 0.537,-0.5496 1.074,-1.0991 1.627,-1.6654 z"
     fill="#1c93ec"
     id="path20" />
  <path
     d="m 96.886485,47.65848 c 1.019,0.3415 2.037,0.683 3.086,1.0348 0,1.7073 0,3.4147 0,5.1738 1.017995,0.3415 2.036995,0.6829 3.085995,1.0347 -0.772,4.9151 -0.772,4.9151 -3.085995,7.2431 -0.339,-1.707 -0.679,-3.414 -1.028,-5.174 -1.019,0.513 -1.019,0.513 -2.058,1.035 -1.266,-3.8224 -0.662,-6.4211 0,-10.3474 z"
     fill="#1685df"
     id="path21" />
  <path
     d="m 58.831285,89.04888 c -0.6576,0.32 -1.3152,0.64 -1.9928,0.97 -2.0556,0.928 -2.0556,0.928 -3.1498,2.134 -6.5952,0.211 -12.9942,-0.264 -19.5421,-1.034 0,-0.342 0,-0.683 0,-1.035 2.5711,-0.176 5.1424,-0.348 7.714,-0.518 0.7159,-0.049 1.4319,-0.098 2.1695,-0.149 4.9448,-0.323 9.8461,-0.413 14.8012,-0.368 z"
     fill="#081c30"
     id="path22" />
  <path
     d="m 70.145085,84.90988 c 0,0.683 0,1.366 0,2.069 0.6789,0.683 1.3577,1.366 2.0571,2.07 -3.5639,1.537 -3.5639,1.537 -7.1997,3.104 -0.3394,-1.024 -0.6788,-2.049 -1.0285,-3.104 -2.0726,-0.759 -2.0726,-0.759 -4.1142,-1.035 1.3269,-0.521 2.6558,-1.038 3.9856,-1.552 1.1097,-0.432 1.1097,-0.432 2.2419,-0.873 2.0008,-0.679 2.0008,-0.679 4.0578,-0.679 z"
     fill="#041927"
     id="path23" />
  <path
     d="m 94.829485,71.45788 c -3.042,2.04 -4.283,2.452 -7.778,2.846 -0.807,0.101 -1.615,0.202 -2.447,0.307 -2.117,-0.049 -2.117,-0.049 -4.174,-2.118 5.308,-1.565 8.907,-2.416 14.399,-1.035 z"
     fill="#020102"
     id="path24" />
  <path
     d="m 99.972485,38.34568 c 0.678995,0 1.357995,0 2.056995,0 2.666,5.0294 2.249,9.9882 2.057,15.5214 -0.339,0 -0.679,0 -1.028,0 0,-3.0733 0,-6.1465 0,-9.3129 -0.679,0 -1.358,0 -2.057,0 -0.34,-2.0488 -0.679,-4.0976 -1.028995,-6.2085 z"
     fill="#146ebc"
     id="path25" />
  <path
     d="m 91.744485,55.93688 c 1.018,0.341 2.036,0.683 3.085,1.034 -0.678,1.366 -1.357,2.732 -2.057,4.14 -1.018,0 -2.036,0 -3.085,0 0,-3.105 0,-3.105 2.057,-5.174 z"
     fill="#030b14"
     id="path26" />
  <path
     d="m 85.573485,40.41518 c 3.021,0.8407 3.021,0.8407 6.171,2.0695 0.339,1.0244 0.679,2.0488 1.028,3.1043 -1.018,0 -2.036,0 -3.085,0 0,-0.683 0,-1.3659 0,-2.0695 -1.697,0 -3.394,0 -5.143,0 0.34,-1.0245 0.679,-2.0489 1.029,-3.1043 z"
     fill="#112444"
     id="path27" />
  <path
     d="m 83.516485,31.10238 c 1.018,0 2.036,0 3.085,0 -0.339,1.7073 -0.679,3.4147 -1.028,5.1738 1.697,0 3.394,0 5.142,0 0,0.3414 0,0.6829 0,1.0347 -2.376,0 -4.752,0 -7.199,0 0,-2.0488 0,-4.0976 0,-6.2085 z"
     fill="#1397f6"
     id="path28" />
  <path
     d="m 6.3762848,22.82428 c 2.3759,0.6829 4.7518002,1.3659 7.1997002,2.0695 -1.697,1.3659 -3.3941,2.7318 -5.1426002,4.1391 -2.0571,-3.8804 -2.0571,-3.8804 -2.0571,-6.2086 z"
     fill="#087dd8"
     id="path29" />
  <path
     d="m 17.690185,17.65048 c 4.2801,-0.0844 8.1739,0.0181 12.3423,1.0348 0,0.3414 0,0.6829 0,1.0347 -1.475,0.2582 -2.9545,0.4904 -4.4355,0.7114 -0.8234,0.1321 -1.6467,0.2641 -2.495,0.4002 -2.3263,-0.0768 -2.3263,-0.0768 -4.1704,-1.6088 -0.4097,-0.5188 -0.8193,-1.0377 -1.2414,-1.5723 z"
     fill="#0c151c"
     id="path30" />
</svg>
