<?xml version="1.0" encoding="UTF-8" standalone="no"?>
<svg
   width="122.86356"
   height="118.06991"
   viewBox="0 0 122.86356 118.06991"
   fill="none"
   version="1.1"
   id="svg43"
   sodipodi:docname="Slice 39.svg"
   xmlns:inkscape="http://www.inkscape.org/namespaces/inkscape"
   xmlns:sodipodi="http://sodipodi.sourceforge.net/DTD/sodipodi-0.dtd"
   xmlns="http://www.w3.org/2000/svg"
   xmlns:svg="http://www.w3.org/2000/svg">
  <defs
     id="defs43" />
  <sodipodi:namedview
     id="namedview43"
     pagecolor="#ffffff"
     bordercolor="#666666"
     borderopacity="1.0"
     inkscape:showpageshadow="2"
     inkscape:pageopacity="0.0"
     inkscape:pagecheckerboard="0"
     inkscape:deskcolor="#d1d1d1" />
  <path
     d="m 58.194454,0.05031176 c 1.7357,0.8407 1.7357,0.8407 3.7927,2.91020004 0.2009,2.692 0.2009,2.692 0.1286,5.8205 -0.0186,1.0378 -0.0371,2.0756002 -0.0563,3.1447002 -0.0238,0.7977 -0.0477,1.5954 -0.0723,2.4172 0.9129,-0.054 0.9129,-0.054 1.8441,-0.1092 3.899,-0.1343 6.867,-0.0925 10.5626,1.2733 1.9927,1.9402 1.9927,1.9402 2.5713,4.8504 -0.7053,4.0208 -2.296,6.2447 -4.6927,9.5069 -0.7141,1.365 -1.4145,2.7385 -2.057,4.139 1.4319,0.1601 1.4319,0.1601 2.8927,0.3234 3.2784,0.7114 3.2784,0.7114 5.2069,2.0048 1.6888,2.643 1.7196,3.8726 1.1571,6.9846 -1.5292,2.5696 -3.2746,4.9144 -5.1426,7.2434 1.1243,-0.0854 2.2486,-0.1708 3.407,-0.2587 3.7927,0.2587 3.7927,0.2587 5.8498,1.7461 1.5739,4.0578 0.7426,7.7515 0,11.9644 1.0818,-0.8003 1.0818,-0.8003 2.1856,-1.6168 2.957,-1.4874 2.957,-1.4874 6.1716,-1.5521 2.957,1.0994 2.957,1.0994 4.885,4.2684 0.382,1.003 0.764,2.0061 1.157,3.0396 0.573,-0.683 1.146,-1.3659 1.736,-2.0695 2.377996,-2.0696 2.377996,-2.0696 4.949996,-2.6516 3.647,0.8255 4.71,2.6646 6.685,5.7558 0,0.683 0,1.3659 0,2.0696 0.644,-0.0988 1.289,-0.1975 1.953,-0.2992 0.84,-0.1147 1.681,-0.2294 2.547,-0.3476 1.253,-0.18 1.253,-0.18 2.531,-0.3638 0.735,-0.008 1.469,-0.016 2.226,-0.0242 2.057,2.0695 2.057,2.0695 2.25,3.9814 -0.672,7.9867 -4.447,14.5456 -10.478,19.8176 -0.679,0 -1.358,0 -2.057,0 0,0.683 0,1.366 0,2.07 -6.506,5.096998 -13.632996,7.575998 -21.599596,9.312998 -0.2758,1.302 -0.5515,2.604 -0.8357,3.945 -0.8198,3.287 -1.4121,5.457 -4.3069,7.437 -4.1367,1.387 -7.9471,1.225 -12.2781,1.229 -1.2519,0.019 -1.2519,0.019 -2.5292,0.038 -0.8081,0.002 -1.6162,0.004 -2.4487,0.006 -0.7345,0.005 -1.4689,0.009 -2.2256,0.013 -2.4799,-0.294 -4.113,-1.004 -6.2317,-2.321 -0.3394,-0.683 -0.6788,-1.365 -1.0285,-2.069 -0.4031,0.503 -0.8061,1.006 -1.2214,1.524 -3.6059,3.056 -8.6662,2.065 -13.1781,2.033 -1.0394,0.021 -2.0789,0.041 -3.1498,0.063 -0.9971,-10e-4 -1.9941,-0.002 -3.0213,-0.002 -0.9122,0.001 -1.8244,0.003 -2.7642,0.005 -2.3785,-0.519 -2.3785,-0.519 -4.2507,-2.422 -1.2134,-2.236 -1.2134,-2.236 -1.0848,-5.405 0.8999,-3.039 0.8999,-3.039 2.507,-4.422 1.7405,-1.679 1.7405,-1.679 1.6633,-4.377 -0.7092,-7.016998 -1.9705,-13.450198 -4.2989,-20.109398 -0.6324,-0.0267 -1.2648,-0.0534 -1.9164,-0.0809 -6.7168,-0.4742 -6.7168,-0.4742 -9.526,-2.6354 -1.3444,-3.6711 -0.9164,-5.9555 0.1286,-9.7008 2.8396,-3.8651 4.3601,-5.0061 9.0639,-6.0146 1.6228,-0.096 1.6228,-0.096 3.2784,-0.194 0,-1.0244 0,-2.0488 0,-3.1043 -1.0182,0.0641 -2.0365,0.1281 -3.0856,0.1941 -7.4704,-0.0152 -14.7276,-3.618 -19.9639,-8.9006 -5.14482004,-5.8852 -6.16306004,-10.8675 -6.01047004,-18.4923 0.73914,-7.951 5.47217004,-14.5737 11.12497004,-19.9474 9.5625,-7.8712002 17.6296,-9.3172002 29.7378,-8.7224002 6.1754,0.2574 11.8647,-3.36340004 17.3175,-2.91860004 z"
     fill="#3dbb46"
     id="path1" />
  <path
     d="m 58.194454,0.05031176 c 1.7357,0.8407 1.7357,0.8407 3.7927,2.91020004 0.2009,2.692 0.2009,2.692 0.1286,5.8205 -0.0186,1.0378 -0.0371,2.0756002 -0.0563,3.1447002 -0.0238,0.7977 -0.0477,1.5954 -0.0723,2.4172 0.9129,-0.054 0.9129,-0.054 1.8441,-0.1092 3.899,-0.1343 6.867,-0.0925 10.5626,1.2733 1.9927,1.9402 1.9927,1.9402 2.5713,4.8504 -0.7053,4.0208 -2.296,6.2447 -4.6927,9.5069 -0.7141,1.365 -1.4145,2.7385 -2.057,4.139 1.4319,0.1601 1.4319,0.1601 2.8927,0.3234 3.2784,0.7114 3.2784,0.7114 5.2069,2.0048 1.6888,2.643 1.7196,3.8726 1.1571,6.9846 -1.5292,2.5696 -3.2746,4.9144 -5.1426,7.2434 1.1243,-0.0854 2.2486,-0.1708 3.407,-0.2587 3.7927,0.2587 3.7927,0.2587 5.8498,1.7461 1.5739,4.0578 0.7426,7.7515 0,11.9644 1.0818,-0.8003 1.0818,-0.8003 2.1856,-1.6168 2.957,-1.4874 2.957,-1.4874 6.1716,-1.5521 2.957,1.0994 2.957,1.0994 4.885,4.2684 0.382,1.003 0.764,2.0061 1.157,3.0396 0.573,-0.683 1.146,-1.3659 1.736,-2.0695 2.377996,-2.0696 2.377996,-2.0696 4.949996,-2.6516 3.647,0.8255 4.71,2.6646 6.685,5.7558 0,0.683 0,1.3659 0,2.0696 0.644,-0.0988 1.289,-0.1975 1.953,-0.2992 0.84,-0.1147 1.681,-0.2294 2.547,-0.3476 1.253,-0.18 1.253,-0.18 2.531,-0.3638 0.735,-0.008 1.469,-0.016 2.226,-0.0242 2.057,2.0695 2.057,2.0695 2.25,3.9814 -0.672,7.9867 -4.447,14.5456 -10.478,19.8176 -0.679,0 -1.358,0 -2.057,0 0,0.683 0,1.366 0,2.07 -6.506,5.096998 -13.632996,7.575998 -21.599596,9.312998 -0.2758,1.302 -0.5515,2.604 -0.8357,3.945 -0.8198,3.287 -1.4121,5.457 -4.3069,7.437 -4.1367,1.387 -7.9471,1.225 -12.2781,1.229 -1.2519,0.019 -1.2519,0.019 -2.5292,0.038 -0.8081,0.002 -1.6162,0.004 -2.4487,0.006 -0.7345,0.005 -1.4689,0.009 -2.2256,0.013 -2.4799,-0.294 -4.113,-1.004 -6.2317,-2.321 -0.3394,-0.683 -0.6788,-1.365 -1.0285,-2.069 -0.4031,0.503 -0.8061,1.006 -1.2214,1.524 -3.6059,3.056 -8.6662,2.065 -13.1781,2.033 -1.0394,0.021 -2.0789,0.041 -3.1498,0.063 -0.9971,-10e-4 -1.9941,-0.002 -3.0213,-0.002 -0.9122,0.001 -1.8244,0.003 -2.7642,0.005 -2.3785,-0.519 -2.3785,-0.519 -4.2507,-2.422 -1.2134,-2.236 -1.2134,-2.236 -1.0848,-5.405 0.8999,-3.039 0.8999,-3.039 2.507,-4.422 1.7405,-1.679 1.7405,-1.679 1.6633,-4.377 -0.7092,-7.016998 -1.9705,-13.450198 -4.2989,-20.109398 -0.6324,-0.0267 -1.2648,-0.0534 -1.9164,-0.0809 -6.7168,-0.4742 -6.7168,-0.4742 -9.526,-2.6354 -1.3444,-3.6711 -0.9164,-5.9555 0.1286,-9.7008 2.8396,-3.8651 4.3601,-5.0061 9.0639,-6.0146 1.6228,-0.096 1.6228,-0.096 3.2784,-0.194 0,-1.0244 0,-2.0488 0,-3.1043 -1.0182,0.0641 -2.0365,0.1281 -3.0856,0.1941 -7.4704,-0.0152 -14.7276,-3.618 -19.9639,-8.9006 -5.14482004,-5.8852 -6.16306004,-10.8675 -6.01047004,-18.4923 0.73914,-7.951 5.47217004,-14.5737 11.12497004,-19.9474 9.5625,-7.8712002 17.6296,-9.3172002 29.7378,-8.7224002 6.1754,0.2574 11.8647,-3.36340004 17.3175,-2.91860004 z M 11.589154,18.481912 c -4.2676,5.3337 -7.1311,10.4237 -6.6613,17.401 0.8545,3.9392 2.5945,7.0624 4.6043,10.5375 2.6153,0.1125 5.2259,0.1942 7.8425,0.2587 0.7332,0.0347 1.4664,0.0694 2.2218,0.1051 5.3544,0.0988 8.3109,-0.9486 12.5633,-4.5028 0.3394,-0.683 0.6789,-1.3659 1.0286,-2.0695 3.9855,1.8108 3.9855,1.8108 5.1426,4.139 -0.7212,-0.0854 -1.4425,-0.1707 -2.1856,-0.2587 -3.1167,0.0281 -3.1167,0.0281 -5.7855,2.1989 -4.0957,2.6942 -7.834,3.4586 -12.5995,4.2684 0,0.6829 0,1.3658 0,2.0695 2.8446,0.9539 4.5079,1.1567 7.4368,1.1358 0.8253,-0.0033 1.6506,-0.0067 2.501,-0.0101 0.8571,-0.0087 1.7143,-0.0174 2.5974,-0.0263 1.3037,-0.007 1.3036,-0.007 2.6336,-0.0141 2.1435,-0.0122 4.2869,-0.0308 6.4303,-0.0506 -1.0285,2.0696 -1.0285,2.0696 -3.0855,3.0396 -2.4131,0.9848 -2.4131,0.9848 -3.0856,4.2038 -0.8779,10.0681 -1.8887,22.4276 4.1141,31.0428 5.2669,6.263 12.5582,10.730998 20.7675,11.628998 2.1532,0.044 2.1532,0.044 4.9457,-0.247 -1.5734,-6.627998 -2.9273,-10.968998 -8.2282,-15.521098 -3.8304,-4.6029 -3.8304,-4.6029 -5.1427,-7.2433 -0.7186,0.0987 -1.4372,0.1974 -2.1775,0.2991 -0.9361,0.1147 -1.8721,0.2294 -2.8365,0.3476 -0.9308,0.1201 -1.8615,0.2401 -2.8205,0.3638 -1.2131,0.012 -1.2131,0.012 -2.4508,0.0242 -2.057,-2.0695 -2.057,-2.0695 -2.3784,-6.1438 0.0801,-2.6191 0.1586,-3.9218 1.4785,-6.2086 2.6289,-1.4988 5.1204,-1.8012 8.0997,-2.1342 0,0.683 0,1.3659 0,2.0695 -2.0365,0.683 -4.073,1.3659 -6.1712,2.0696 -0.3394,2.3902 -0.6789,4.7805 -1.0286,7.2433 4.5685,1.4032 6.897,0.6117 11.121,-1.4875 1.0037,-0.4895 2.0074,-0.9791 3.0414,-1.4834 0.7571,-0.3855 1.5141,-0.771 2.2941,-1.1682 -1.3576,1.7074 -2.7153,3.4147 -4.1141,5.1738 1.7218,4.0943 4.2494,7.0826 7.1997,10.3472 0.6789,0 1.3577,0 2.0571,0 1.6834,-2.0277 1.6834,-2.0277 3.0856,-4.1386 -0.1697,0.5335 -0.3394,1.0671 -0.5143,1.6168 -1.0539,5.1688 -1.2177,8.5938 1.5428,13.192798 0.6788,0.918 1.3577,1.836 2.0571,2.781 0,0.683 0,1.366 0,2.07 -0.8486,0.469 -1.6971,0.939 -2.5714,1.423 -0.8485,0.554 -1.697,1.109 -2.5713,1.681 0,1.366 0,2.732 0,4.139 3.043,0.056 6.085,0.097 9.1282,0.129 0.8658,0.018 1.7316,0.035 2.6236,0.053 0.8286,0.007 1.6573,0.013 2.511,0.02 0.7649,0.011 1.5297,0.022 2.3178,0.033 2.1849,-0.063 2.1849,-0.063 3.99,-2.304 0.3991,-3.764 0.5224,-7.509 0.675,-11.289998 0.1167,-1.055 0.2334,-2.11 0.3536,-3.197 0.6788,-0.341 1.3576,-0.683 2.057,-1.035 0,1.708 0,3.415 0,5.173998 9.2872,-0.358998 17.894196,-4.329998 24.685196,-10.735998 3.395,-3.7496 7.199,-8.8388 7.199,-14.0982 -2.841,0.5408 -5.478,1.1472 -8.228,2.0695 -13.131996,0.9147 -22.340896,-0.0935 -32.720096,-8.9248 -9.4236,-9.2403 -11.4168,-18.8929 -13.6722,-31.5319 -0.6071,-3.3992 -1.2457,-6.7868 -1.9567,-10.1657 -0.1539,-0.7333 -0.3079,-1.4666 -0.4665,-2.2221 -1.7081,-6.16 -6.6644,-10.9801 -11.8678,-14.4149 -13.6694,-5.6034002 -26.8388,-1.7831002 -37.0271,8.2781 z"
     fill="#040f05"
     id="path2" />
  <path
     d="m 58.194454,0.05031176 c 1.7357,0.8407 1.7357,0.8407 3.7927,2.91020004 0.2009,2.692 0.2009,2.692 0.1286,5.8205 -0.0186,1.0378 -0.0371,2.0756002 -0.0563,3.1447002 -0.0238,0.7977 -0.0477,1.5954 -0.0723,2.4172 0.9129,-0.054 0.9129,-0.054 1.8441,-0.1092 3.899,-0.1343 6.867,-0.0925 10.5626,1.2733 1.9927,1.9402 1.9927,1.9402 2.5713,4.8504 -0.7053,4.0208 -2.296,6.2447 -4.6927,9.5069 -0.7141,1.365 -1.4145,2.7385 -2.057,4.139 1.4319,0.1601 1.4319,0.1601 2.8927,0.3234 3.2784,0.7114 3.2784,0.7114 5.2069,2.0048 1.542,2.4132 1.3837,4.1739 1.1571,6.9846 -1.3576,0.3415 -2.7153,0.683 -4.1141,1.0348 0,-1.7074 0,-3.4147 0,-5.1738 -0.7067,0.012 -1.4133,0.024 -2.1414,0.0364 -0.9268,0.0093 -1.8535,0.0187 -2.8084,0.0283 -1.3782,0.018 -1.3782,0.018 -2.7843,0.0364 -2.5512,-0.1011 -2.5512,-0.1011 -5.6368,-1.1359 -0.0888,-0.875 -0.1776,-1.75 -0.2692,-2.6515 -1.2262,-9.9598 -3.1732,-16.3316 -11.1089,-22.6354 -6.5161,-4.7641002 -13.7422,-4.1857002 -21.5349,-3.6863002 -7.6468,1.4165002 -14.4742,6.4874002 -19.2126,12.5626002 -3.2478,5.2797 -4.6443,10.2475 -3.415,16.4106 0.9405,2.4643 1.9974,4.8384 3.0856,7.2434 2.6362,0.0841 5.2698,0.1455 7.9068,0.194 1.1127,0.039 1.1127,0.039 2.2479,0.0788 4.7302,0.0652 7.7153,-0.3911 11.4444,-3.3771 0.6788,-1.0244 1.3577,-2.0488 2.0571,-3.1043 1.9927,0.8407 1.9927,0.8407 4.1141,2.0695 0.3394,1.0244 0.6788,2.0488 1.0285,3.1043 -0.9122,0.2774 -1.8243,0.5549 -2.7642,0.8407 -3.3575,1.0515 -3.3575,1.0515 -5.7854,2.8456 -3.8812,2.0886 -7.6778,2.2462 -12.021,2.5223 0,0.6829 0,1.3658 0,2.0695 7.1277,0.3414 14.2554,0.6829 21.5991,1.0347 -0.3394,1.0244 -0.6788,2.0489 -1.0285,3.1043 -1.0182,0.3415 -2.0365,0.683 -3.0856,1.0348 -3.1864,9.6172 -2.357,23.4066 2.0852,32.4091 0.3301,0.573 0.6603,1.147 1.0004,1.738 0.3394,0.683 0.6788,1.366 1.0285,2.069 -1.0182,0 -2.0364,0 -3.0855,0 0.352,0.955 0.352,0.955 0.7111,1.929 0.2956,0.836 0.5913,1.672 0.8959,2.534 0.4475,1.242 0.4475,1.242 0.904,2.509998 0.5745,2.34 0.5745,2.34 -0.454,5.445 -2.1213,1.228 -2.1213,1.228 -4.1141,2.069 0,1.025 0,2.049 0,3.104 2.6573,0.056 5.3135,0.097 7.9711,0.13 0.7504,0.017 1.5009,0.034 2.274,0.052 3.9532,0.036 6.9787,-0.001 10.3255,-2.251 -0.3214,2.457 -0.3214,2.457 -1.0285,5.174 -4.2863,2.874 -7.8193,2.45 -12.8567,2.457 -0.8923,0.026 -1.7845,0.051 -2.7039,0.077 -6.5025,0.03 -6.5025,0.03 -9.2286,-2.361 -1.319,-3.202 -0.8677,-5.168 0.1044,-8.451 0.5304,-0.457 1.0607,-0.913 1.6071,-1.383 1.7405,-1.679 1.7405,-1.679 1.6633,-4.377 -0.7092,-7.016998 -1.9705,-13.450198 -4.2989,-20.109398 -0.6324,-0.0267 -1.2648,-0.0534 -1.9164,-0.0809 -6.7168,-0.4742 -6.7168,-0.4742 -9.526,-2.6354 -1.3444,-3.6711 -0.9164,-5.9555 0.1286,-9.7008 2.8396,-3.8651 4.3601,-5.0061 9.0639,-6.0146 1.6228,-0.096 1.6228,-0.096 3.2784,-0.194 0,-1.0244 0,-2.0488 0,-3.1043 -1.0182,0.0641 -2.0365,0.1281 -3.0856,0.1941 -7.4704,-0.0152 -14.7276,-3.618 -19.9639,-8.9006 -5.14482004,-5.8852 -6.16306004,-10.8675 -6.01047004,-18.4923 0.73914,-7.951 5.47217004,-14.5737 11.12497004,-19.9474 9.5625,-7.8712002 17.6296,-9.3172002 29.7378,-8.7224002 6.1754,0.2574 11.8647,-3.36340004 17.3175,-2.91860004 z"
     fill="#051005"
     id="path3" />
  <path
     d="m 46.559254,67.115612 c 0,0.6829 0,1.3659 0,2.0695 -2.0365,0.683 -4.073,1.3659 -6.1712,2.0695 -0.3394,2.3903 -0.6788,4.7806 -1.0285,7.2434 5.1555,-0.5187 8.8026,-1.7366 13.3709,-4.1391 1.0182,0 2.0365,0 3.0856,0 -0.3394,0.5976 -0.6789,1.1952 -1.0286,1.8108 -1.307,2.534 -1.307,2.534 -1.0285,6.4673 3.0378,4.2604 3.0378,4.2604 7.1997,7.2429 0.297,-0.661 0.594,-1.323 0.9,-2.0044 1.1571,-2.1342 1.1571,-2.1342 3.2141,-3.169 -0.1697,0.7043 -0.3394,1.4086 -0.5142,2.1342 -1.2132,7.1712 -0.5653,10.5442 3.5998,16.491198 -0.3394,1.025 -0.6788,2.049 -1.0285,3.105 -0.6788,0.32 -1.3577,0.64 -2.0571,0.97 -0.6788,0.362 -1.3576,0.725 -2.057,1.099 -0.3394,1.366 -0.6788,2.732 -1.0285,4.139 5.77,0 11.5401,0 17.485,0 0,0.342 0,0.683 0,1.035 -1.6527,0.076 -1.6527,0.076 -3.3387,0.153 -1.4371,0.078 -2.874,0.156 -4.311,0.235 -0.7272,0.032 -1.4545,0.064 -2.2037,0.097 -1.864,0.108 -3.7214,0.321 -5.5746,0.55 -0.3394,0.683 -0.6788,1.366 -1.0285,2.069 5.4306,0 10.8613,0 16.4565,0 0,0.342 0,0.683 0,1.035 -2.8288,0.056 -5.6564,0.097 -8.4854,0.129 -0.7995,0.018 -1.599,0.035 -2.4227,0.053 -7.5673,0.065 -7.5673,0.065 -10.6911,-2.252 -0.3394,-0.683 -0.6788,-1.365 -1.0285,-2.069 -1.0182,1.024 -2.0365,2.049 -3.0856,3.104 -1.5274,-0.512 -1.5274,-0.512 -3.0856,-1.035 1.0183,-0.683 2.0365,-1.365 3.0856,-2.069 0,-1.025 0,-2.049 0,-3.104 -1.0182,0.683 -2.0365,1.365 -3.0856,2.069 -2.8455,0.148 -5.5813,0.194 -8.4211,0.129 -0.771,-0.009 -1.5419,-0.018 -2.3363,-0.028 -1.8998,-0.024 -3.7995,-0.061 -5.6991,-0.101 -0.3394,-1.366 -0.6788,-2.732 -1.0285,-4.139 1.6971,-1.024 3.3942,-2.049 5.1427,-3.104 -0.3395,-1.11 -0.6789,-2.22 -1.0286,-3.363 -1.0285,-3.880998 -1.0285,-3.880998 -1.0285,-8.019998 4.0335,0.581 6.5537,1.773 9.8996,4.075 5.4273,3.428998 10.5294,4.537998 16.8422,5.237998 -0.7001,-1.088 -0.7001,-1.088 -1.4142,-2.199 -1.6714,-2.974998 -1.6714,-2.974998 -2.5714,-6.078998 -1.4063,-3.773 -3.3847,-5.56 -6.2997,-8.2779 -3.0856,-3.7465 -3.0856,-3.7465 -3.0856,-6.2085 -0.5516,0.3414 -1.1031,0.6829 -1.6714,1.0347 -3.09,1.309 -5.2894,1.3906 -8.6139,1.0348 -1.9285,-1.0348 -1.9285,-1.0348 -3.0856,-3.1043 -0.7808,-7.0696 -0.7808,-7.0696 1.6714,-10.865 3.0608,-1.9449 5.0586,-1.8773 8.6139,-1.5521 z"
     fill="#041305"
     id="path4" />
  <path
     d="m 103.12855,66.080912 c 1.358,0 2.715,0 4.114,0 0.509,1.0244 0.509,1.0244 1.029,2.0695 0.678,-0.3415 1.357,-0.683 2.057,-1.0348 0.509,2.0488 0.509,2.0488 1.028,4.1391 0.644,-0.0987 1.289,-0.1975 1.953,-0.2991 0.84,-0.1148 1.681,-0.2295 2.547,-0.3477 1.253,-0.18 1.253,-0.18 2.531,-0.3637 0.735,-0.008 1.469,-0.0161 2.226,-0.0243 2.057,2.0695 2.057,2.0695 2.25,3.9814 -0.672,7.9867 -4.447,14.5456 -10.478,19.8176 -0.679,0 -1.358,0 -2.057,0 0,0.683 0,1.366 0,2.07 -6.506,5.096998 -13.632996,7.575998 -21.599496,9.312998 -0.2758,1.302 -0.5516,2.604 -0.8357,3.945 -1.3851,5.515 -1.3851,5.515 -4.307,7.437 -4.234,1.316 -8.239,0.919 -12.5995,0.582 -0.7663,-0.054 -1.5327,-0.108 -2.3222,-0.163 -1.8834,-0.134 -3.7662,-0.276 -5.6489,-0.419 0.3394,-1.024 0.6788,-2.049 1.0285,-3.104 1.0899,-0.051 2.1797,-0.101 3.3026,-0.154 1.4276,-0.077 2.8552,-0.156 4.2828,-0.234 1.0779,-0.048 1.0779,-0.048 2.1776,-0.097 4.3298,-0.131 4.3298,-0.131 7.722,-2.619 0.3092,-2.448 0.5093,-4.91 0.6429,-7.373 0.0769,-1.326 0.1538,-2.652 0.233,-4.017998 0.0504,-1.022 0.1008,-2.043 0.1527,-3.096 1.0182,-0.341 2.0365,-0.683 3.0856,-1.035 0,1.708 0,3.415 0,5.173998 11.3701,-3.004998 20.859096,-6.623998 27.770096,-16.556098 1.49,-2.7211 2.81,-5.4583 4.114,-8.2781 -0.62,0.1494 -1.241,0.2988 -1.88,0.4527 -0.822,0.1921 -1.644,0.3842 -2.491,0.5821 -0.811,0.192 -1.623,0.3841 -2.459,0.582 -2.426,0.4527 -2.426,0.4527 -6.541,0.4527 0,-1.0244 0,-2.0488 0,-3.1043 1.019,0 2.037,0 3.086,0 -0.509,-3.5854 -0.509,-3.5854 -1.029,-7.2433 -1.018,-0.3414 -2.036,-0.6829 -3.085,-1.0347 z"
     fill="#030d04"
     id="path5" />
  <path
     d="m 34.216854,57.802812 c 1.6971,0 3.3942,0 5.1427,0 1.0182,3.0732 2.0365,6.1465 3.0856,9.3128 -1.2728,0.7683 -1.2728,0.7683 -2.5713,1.5522 -2.7732,2.7899 -2.9613,3.1607 -3.0214,6.8552 0.0317,4.0189 0.0317,4.0189 2.5071,6.0793 3.634,0.2384 6.8027,0.0433 10.2853,-1.0348 0.5728,0.9177 1.1455,1.8354 1.7356,2.7809 1.5332,2.3436 2.8586,3.8744 4.9498,5.8205 3.4222,3.701 6.6855,8.931 6.6855,14.162998 -8.3586,0.732 -15.4336,-2.181 -21.9848,-7.371998 -6.7077,-6.544 -8.0198,-13.1682 -8.164,-22.3197 0,-11.763 0,-11.763 1.3499,-15.8374 z"
     fill="#9fdd7c"
     id="path6" />
  <path
     d="m 26.824254,63.688012 c 0.7425,0.1067 1.485,0.2134 2.2499,0.3233 -1.0182,0.5122 -1.0182,0.5122 -2.057,1.0348 0,0.6829 0,1.3659 0,2.0695 -0.8486,0.4695 -1.6971,0.9391 -2.5713,1.4228 -1.2728,0.8324 -1.2728,0.8324 -2.5714,1.6815 0,1.3659 0,2.7318 0,4.139 2.7154,0 5.4307,0 8.2283,0 0.3394,-2.7317 0.6788,-5.4635 1.0285,-8.278 0.3394,0 0.6788,0 1.0285,0 0.1008,1.0004 0.2016,2.0008 0.3054,3.0315 1.0371,9.0849 2.7977,16.664 6.8944,24.9065 -1.0183,0 -2.0365,0 -3.0856,0 0.352,0.955 0.352,0.955 0.7111,1.929 0.2957,0.836 0.5913,1.672 0.8959,2.534 0.4475,1.242 0.4475,1.242 0.904,2.509998 0.5746,2.34 0.5746,2.34 -0.454,5.445 -2.1213,1.228 -2.1213,1.228 -4.1141,2.069 0,1.025 0,2.049 0,3.104 2.6573,0.056 5.3135,0.097 7.9711,0.13 0.7504,0.017 1.5009,0.034 2.274,0.052 3.9532,0.036 6.9787,-0.001 10.3255,-2.251 -0.3214,2.457 -0.3214,2.457 -1.0285,5.174 -4.2863,2.874 -7.8193,2.45 -12.8567,2.457 -0.8922,0.026 -1.7845,0.051 -2.7039,0.077 -6.5025,0.03 -6.5025,0.03 -9.2286,-2.361 -1.319,-3.201 -0.8677,-5.168 0.1044,-8.451 0.5304,-0.457 1.0607,-0.913 1.6071,-1.383 1.7405,-1.679 1.7405,-1.679 1.6634,-4.377 -0.7093,-7.016998 -1.9706,-13.450198 -4.299,-20.109398 -0.6443,-0.0267 -1.2887,-0.0534 -1.9526,-0.0808 -1.2609,-0.0881 -1.2609,-0.0881 -2.5472,-0.1779 -1.2529,-0.072 -1.2529,-0.072 -2.5312,-0.1455 -2.2258,-0.6306 -2.2258,-0.6306 -3.5878,-2.5586 -1.0709,-3.4067 -0.1238,-5.2349 1.362,-8.4196 4.0378,-5.0502 4.0378,-5.0502 8.0354,-5.4971 z"
     fill="#030802"
     id="path7" />
  <path
     d="m 57.873054,5.0301118 c 0.1127,0.7229 0.2254,1.4459 0.3415,2.1907 0.1631,0.9417 0.3261,1.8835 0.4942,2.8537002 0.1551,0.9364 0.3102,1.8728 0.47,2.8375 0.577,2.8217 0.577,2.8217 3.8369,4.5352 2.1077,0.467 2.1077,0.467 4.307,0.6467 1.294,0.128 2.5881,0.2561 3.9213,0.388 -0.4621,4.9973 -1.5915,7.8097 -5.1427,11.3824 -1.0182,0 -2.0365,0 -3.0856,0 0,2.7317 0,5.4635 0,8.2781 -0.3394,0 -0.6788,0 -1.0285,0 -0.0888,-0.8751 -0.1777,-1.7501 -0.2692,-2.6516 -1.0638,-8.6409 -2.383,-15.1315 -9.096,-20.9579 -1.9804,-1.5199 -3.9798,-2.9563 -6.0628,-4.3291 2.7432,-4.1396002 6.3715,-5.1737002 11.3139,-5.1737002 z"
     fill="#051308"
     id="path8" />
  <path
     d="m 46.559154,67.115612 c 0,0.6829 0,1.3659 0,2.0695 -2.0364,0.683 -4.0729,1.3659 -6.1711,2.0695 -0.3395,2.3903 -0.6789,4.7806 -1.0286,7.2434 5.1556,-0.5187 8.8026,-1.7366 13.3709,-4.1391 1.0183,0 2.0365,0 3.0856,0 -0.3394,0.5976 -0.6788,1.1952 -1.0285,1.8108 -1.307,2.534 -1.307,2.534 -1.0285,6.4673 3.0378,4.2604 3.0378,4.2604 7.1997,7.2429 0.297,-0.661 0.594,-1.323 0.8999,-2.0044 1.1571,-2.1342 1.1571,-2.1342 3.2142,-3.169 -0.2635,1.6624 -0.5457,3.3218 -0.8357,4.9794 -0.1551,0.925 -0.3102,1.849 -0.4701,2.802 -0.8068,2.756 -1.6628,3.867 -3.8369,5.67 -0.2333,-0.917 -0.4666,-1.835 -0.7071,-2.78 -1.5454,-3.924 -3.441,-5.756 -6.4926,-8.6019 -3.0856,-3.7465 -3.0856,-3.7465 -3.0856,-6.2085 -0.5515,0.3414 -1.1031,0.6829 -1.6713,1.0347 -3.0901,1.309 -5.2894,1.3906 -8.614,1.0348 -1.9285,-1.0348 -1.9285,-1.0348 -3.0856,-3.1043 -0.7807,-7.0696 -0.7807,-7.0696 1.6714,-10.865 3.0609,-1.9449 5.0586,-1.8773 8.6139,-1.5521 z"
     fill="#0b210a"
     id="path9" />
  <path
     d="m 12.617754,53.663712 c 0.7332,0.2121 1.4664,0.4242 2.2218,0.6427 5.4413,1.5399 10.6877,2.7916 16.2917,3.4964 1.0183,0.3415 2.0365,0.6829 3.0856,1.0347 -0.3394,5.805 -0.6788,11.61 -1.0285,17.591 -0.3394,0 -0.6788,0 -1.0285,0 -0.3394,-2.0489 -0.6789,-4.0977 -1.0286,-6.2086 -0.3394,1.3659 -0.6788,2.7318 -1.0285,4.139 -4.073,0.5122 -4.073,0.5122 -8.2282,1.0348 -0.7072,-2.3929 -0.7072,-2.3929 -1.0286,-5.1738 1.2857,-1.8755 1.2857,-1.8755 3.0856,-3.1043 1.0183,0 2.0365,0 3.0856,0 0,-0.6829 0,-1.3659 0,-2.0695 -3.913,0.5624 -5.7682,2.1014 -8.2282,5.1738 -0.8196,2.7337 -0.8196,2.7337 -1.0286,5.1738 -0.6788,0 -1.3576,0 -2.057,0 0.2505,-4.2842 0.6508,-6.7292 3.2141,-10.2183 3.4681,-2.5788 5.8983,-2.9816 10.1568,-3.2336 0,-1.0244 0,-2.0488 0,-3.1043 -1.0183,0.0641 -2.0365,0.1281 -3.0856,0.1941 -4.6334,0.0095 -8.1336,-1.4002 -12.3424,-3.2983 -0.3394,-0.683 -0.6788,-1.3659 -1.0285,-2.0696 z"
     fill="#091c09"
     id="path10" />
  <path
     d="m 37.302454,97.123912 c 0.6828,0.424 1.3656,0.848 2.0691,1.285 0.9082,0.558 1.8164,1.115 2.7522,1.689998 0.8949,0.552 1.7898,1.104 2.7119,1.673 2.5813,1.463 5.1208,2.594 7.8948,3.63 -0.9,6.079 -0.9,6.079 -2.0571,7.243 -2.7735,0.076 -5.52,0.096 -8.2925,0.065 -1.1704,-0.007 -1.1704,-0.007 -2.3644,-0.014 -1.9332,-0.013 -3.8664,-0.031 -5.7996,-0.051 -0.3394,-1.366 -0.6788,-2.732 -1.0285,-4.139 1.6971,-1.024 3.3942,-2.049 5.1427,-3.104 -0.3395,-2.732 -0.6789,-5.463998 -1.0286,-8.277998 z"
     fill="#34b144"
     id="path11" />
  <path
     d="m 63.015754,38.142412 c 4.073,0 8.146,0 12.3424,0 1.3395,5.3904 -0.0316,7.394 -2.5071,12.1584 -1.6071,2.3282 -1.6071,2.3282 -4.6927,3.3629 -0.6788,0.683 -1.3576,1.3659 -2.057,2.0696 -0.5244,-1.7647 -1.0361,-3.5332 -1.5428,-5.3032 -0.2864,-0.9844 -0.5728,-1.9688 -0.8678,-2.983 -0.675,-3.0962 -0.675,-3.0962 -0.675,-9.3047 z"
     fill="#041106"
     id="path12" />
  <path
     d="m 75.358154,44.350912 c 0.6788,0 1.3576,0 2.057,0 -1.0285,2.0695 -2.057,4.1391 -3.0856,6.2086 1.6865,-0.1281 1.6865,-0.1281 3.407,-0.2587 3.7927,0.2587 3.7927,0.2587 5.8498,1.7461 1.574,4.0578 0.7427,7.7516 0,11.9644 0.7213,-0.5335 1.4425,-1.0671 2.1856,-1.6168 3.6305,-1.8262 5.2956,-1.6522 9.1286,-0.4527 2.213,3.3401 2.263,4.4329 2.057,8.2781 -1.549,-2.0321 -2.974,-3.9141 -4.114,-6.2086 -0.34,0 -0.679,0 -1.029,0 0.339,0.3415 0.679,0.683 1.029,1.0348 0.041,1.7241 0.044,3.4498 0,5.1738 -0.34,-1.0244 -0.679,-2.0488 -1.029,-3.1043 -2.5469,0.6615 -2.5469,0.6615 -5.1426,2.0695 -1.3996,2.6115 -1.3996,2.6115 -2.0571,5.1738 -1.3576,-0.6829 -2.7153,-1.3658 -4.1141,-2.0695 0.1697,-1.3445 0.3394,-2.6891 0.5143,-4.0743 0.5467,-4.8807 0.5917,-9.6429 0.5142,-14.5514 -3.7335,-0.3414 -7.4671,-0.6829 -11.3138,-1.0347 3.8168,-6.4673 3.8168,-6.4673 5.1427,-8.2781 z"
     fill="#081c0a"
     id="path13" />
  <path
     d="m 33.188354,104.36691 c 1.0182,0.342 2.0364,0.683 3.0855,1.035 -0.6788,0 -1.3576,0 -2.057,0 0,2.049 0,4.097 0,6.208 2.6573,0.056 5.3135,0.097 7.9711,0.13 0.7504,0.017 1.5008,0.034 2.274,0.052 3.9532,0.036 6.9787,-0.001 10.3255,-2.251 -0.3214,2.457 -0.3214,2.457 -1.0285,5.174 -4.2863,2.874 -7.8193,2.45 -12.8567,2.457 -1.3384,0.038 -1.3384,0.038 -2.7039,0.077 -6.4861,0.03 -6.4861,0.03 -9.2206,-2.3 -0.9321,-2.304 -0.9321,-2.304 -0.9321,-6.443 2.3785,-2.393 2.3785,-2.393 5.1427,-4.139 z"
     fill="#010401"
     id="path14" />
  <path
     d="m 34.216854,57.802812 c 1.6971,0 3.3942,0 5.1427,0 1.0182,3.0732 2.0365,6.1465 3.0856,9.3128 -0.8273,0.5549 -1.6547,1.1098 -2.5071,1.6815 -3.1858,2.9706 -3.1399,4.4468 -3.6641,8.6661 -1.5669,2.2636 -1.5669,2.2636 -3.0856,4.1391 -0.0298,-3.3846 -0.0481,-6.769 -0.0643,-10.1536 -0.0086,-0.9611 -0.0172,-1.9221 -0.0261,-2.9123 -0.0033,-0.9237 -0.0066,-1.8474 -0.01,-2.7991 -0.0054,-0.8508 -0.0108,-1.7015 -0.0164,-2.5781 0.1168,-2.2521 0.1168,-2.2521 1.1453,-5.3564 z"
     fill="#93d675"
     id="path15" />
  <path
     d="m 33.188354,39.177112 c 1.9928,0.8408 1.9928,0.8408 4.1141,2.0695 0.3394,1.0244 0.6788,2.0489 1.0285,3.1043 -0.9121,0.2775 -1.8243,0.5549 -2.7641,0.8408 -3.3415,1.0495 -3.3415,1.0495 -5.7212,2.7809 -4.1398,2.2717 -8.4945,2.8546 -13.1138,3.6216 0,-0.6829 0,-1.3659 0,-2.0695 1.3577,-0.3415 2.7153,-0.6829 4.1141,-1.0347 -3.3941,-0.3415 -6.7883,-0.683 -10.2853,-1.0348 0,-0.3415 0,-0.6829 0,-1.0348 1.0541,-0.0386 2.1081,-0.0773 3.1941,-0.1172 1.3995,-0.068 2.799,-0.1367 4.1985,-0.2061 0.6927,-0.0234 1.3855,-0.0467 2.0992,-0.0708 4.5056,-0.2432 7.4902,-0.9661 11.0788,-3.7449 0.6789,-1.0244 1.3577,-2.0488 2.0571,-3.1043 z"
     fill="#051707"
     id="path16" />
  <path
     d="m 57.873054,5.0301118 c 0.0558,1.487 0.0955,2.9746 0.1286,4.4624 0.0238,0.8283002 0.0477,1.6566002 0.0723,2.5101002 -0.2009,2.3403 -0.2009,2.3403 -2.258,5.4446 -1.158,-0.9906 -2.3149,-1.9825 -3.4713,-2.975 -0.6443,-0.5522 -1.2887,-1.1044 -1.9526,-1.6734 -1.3216,-1.1611 -2.5922,-2.3815 -3.8329,-3.6297002 3.0104,-3.0286 7.0554,-4.139 11.3139,-4.139 z"
     fill="#081f0a"
     id="path17" />
  <path
     d="m 103.12855,66.080912 c 1.358,0 2.715,0 4.114,0 0.339,0.6829 0.679,1.3658 1.029,2.0695 0.678,-0.3415 1.357,-0.683 2.057,-1.0348 0.339,1.7074 0.678,3.4147 1.028,5.1738 3.564,-0.5122 3.564,-0.5122 7.2,-1.0347 -0.34,1.0244 -0.679,2.0488 -1.029,3.1042 -1.98,0.9823 -1.98,0.9823 -4.435,1.7462 -1.203,0.3902 -1.203,0.3902 -2.431,0.7882 -2.39,0.5699 -2.39,0.5699 -6.505,0.5699 0,-1.0244 0,-2.0488 0,-3.1043 1.019,0 2.037,0 3.086,0 -0.339,-2.3903 -0.679,-4.7805 -1.029,-7.2433 -1.018,-0.3414 -2.036,-0.6829 -3.085,-1.0347 z"
     fill="#020b03"
     id="path18" />
  <path
     d="m 37.431054,21.844912 c 1.9285,0.7761 1.9285,0.7761 2.957,1.8108 0.1286,3.6217 0.1286,3.6217 0,7.2433 -1.0285,1.0348 -1.0285,1.0348 -4.1784,1.0995 -0.997,-0.0214 -1.9941,-0.0427 -3.0213,-0.0647 -1.3737,-6.6586 -1.3737,-6.6586 0.1928,-9.3128 1.8643,-1.0348 1.8643,-1.0348 4.0499,-0.7761 z"
     fill="#061607"
     id="path19" />
  <path
     d="m 46.559254,67.115612 c 0,0.683 0,1.3659 0,2.0696 -2.0365,0.6829 -4.073,1.3658 -6.1712,2.0695 -0.3394,2.3903 -0.6788,4.7806 -1.0285,7.2433 1.0182,0.3415 2.0365,0.6829 3.0856,1.0347 0,0.683 0,1.3659 0,2.0696 1.0182,0.3414 2.0365,0.6829 3.0856,1.0347 -5.4855,0.3679 -5.4855,0.3679 -8.0997,-1.0347 -1.8635,-3.333 -1.81,-6.6795 -1.1571,-10.3476 2.8234,-4.37 5.2926,-4.5957 10.2853,-4.1391 z"
     fill="#0d1f0b"
     id="path20" />
  <path
     d="m 30.102754,67.115612 c 0,2.3903 0,4.7806 0,7.2433 -2.7154,0.3415 -5.4307,0.683 -8.2283,1.0348 -0.7071,-2.3929 -0.7071,-2.3929 -1.0285,-5.1738 2.2463,-3.8552 5.1543,-3.3794 9.2568,-3.1043 z"
     fill="#3db049"
     id="path21" />
  <path
     d="m 61.987254,2.9605118 c -0.1168,1.8763 -0.248,3.7517 -0.3857,5.6265 -0.0716,1.0445 -0.1432,2.0889002 -0.217,3.1649002 -0.1405,0.8551 -0.2811,1.7101 -0.4259,2.591 -1.0182,0.5122 -1.0182,0.5122 -2.057,1.0347 -1.1908,-3.5939 -1.0992,-6.5817002 -1.0285,-10.3475002 -0.5728,0.3414 -1.1456,0.6829 -1.7357,1.0347 -2.69,1.1703 -4.6213,1.1968 -7.5211,1.0348 3.6085,-5.4456 7.2918,-5.5614 13.3709,-4.1391 z"
     fill="#010401"
     id="path22" />
  <path
     d="m 30.102754,85.741312 c 2.5798,1.9697 3.087,3.1106 3.8369,6.3496 0.1551,1.213 0.3102,2.425 0.4701,3.675 0.163,1.22 0.3261,2.441 0.4941,3.698 0.1127,0.934998 0.2254,1.869998 0.3415,2.833998 1.0183,-1.025 2.0365,-2.049 3.0856,-3.104998 0.3395,2.048998 0.6789,4.097998 1.0286,6.208998 -1.6971,0.683 -3.3942,1.366 -5.1427,2.069 -0.3394,-0.683 -0.6788,-1.366 -1.0285,-2.069 -1.3577,1.024 -2.7153,2.049 -4.1141,3.104 0.3182,-0.597 0.6364,-1.195 0.9642,-1.811 2.3478,-5.002 2.0161,-8.478998 1.1571,-13.968998 -0.2002,-1.307 -0.4004,-2.614 -0.6067,-3.961 -0.1604,-0.9979 -0.3208,-1.9956 -0.4861,-3.0236 z"
     fill="#0f2b10"
     id="path23" />
  <path
     d="m 36.273954,94.018912 c 5.0009,0.472 9.6855,2.796 13.3709,6.208998 0,1.366 0,2.732 0,4.139 -4.7399,-1.362 -8.4624,-3.122 -12.3424,-6.207998 -0.9,-2.329 -0.9,-2.329 -1.0285,-4.14 z"
     fill="#0c220d"
     id="path24" />
  <path
     d="m 35.502554,44.674312 c 0.594,0.2347 1.1879,0.4695 1.7999,0.7114 -0.6563,0.5108 -1.3126,1.0217 -1.9888,1.5481 -0.8498,0.6629 -1.6997,1.3258 -2.5753,2.0089 -0.8472,0.6602 -1.6944,1.3205 -2.5673,2.0008 -1.9968,1.5156 -1.9968,1.5156 -3.1539,2.7202 -1.5687,-0.0924 -3.1338,-0.2539 -4.6927,-0.4527 -0.8498,-0.1053 -1.6997,-0.2107 -2.5753,-0.3193 -0.6563,-0.0867 -1.3126,-0.1734 -1.9888,-0.2627 0,-0.683 0,-1.3659 0,-2.0695 0.769,-0.1881 1.538,-0.3762 2.3303,-0.57 1.5194,-0.3901 1.5194,-0.3901 3.0695,-0.7882 1.0023,-0.2521 2.0047,-0.5042 3.0374,-0.7639 2.916,-0.8153 2.916,-0.8153 5.0462,-2.7082 1.9446,-1.3783 1.9446,-1.3783 4.2588,-1.0549 z"
     fill="#2ea63c"
     id="path25" />
  <path
     d="m 61.987154,19.516712 c 3.0548,0 6.1095,0 9.2568,0 -0.5411,3.9195 -1.4204,6.386 -4.1141,9.3128 -0.6788,0 -1.3577,0 -2.0571,0 -1.0182,-3.0732 -2.0365,-6.1465 -3.0856,-9.3128 z"
     fill="#2f993c"
     id="path26" />
  <path
     d="m 66.101354,38.142412 c 2.3759,0.3414 4.7518,0.6829 7.1997,1.0347 0,4.8384 -0.9052,5.8945 -4.1141,9.3128 -0.6789,0 -1.3577,0 -2.0571,0 -0.3394,-3.4147 -0.6788,-6.8294 -1.0285,-10.3475 z"
     fill="#36a545"
     id="path27" />
  <path
     d="m 55.815954,74.358912 c -1.4837,3.483 -3.4277,5.7021 -6.1712,8.2781 0,-0.6829 0,-1.3659 0,-2.0695 -2.3759,0.3415 -4.7518,0.6829 -7.1997,1.0348 0,-0.683 0,-1.3659 0,-2.0696 1.646,-0.8699 3.2969,-1.7304 4.9498,-2.5869 1.3782,-0.7203 1.3782,-0.7203 2.7843,-1.4551 2.5512,-1.1318 2.5512,-1.1318 5.6368,-1.1318 z"
     fill="#051406"
     id="path28" />
  <path
     d="m 71.244054,55.733312 c 2.7153,0 5.4306,0 8.2282,0 -0.3394,3.0732 -0.6788,6.1464 -1.0285,9.3128 -3.8455,-2.7489 -5.811,-4.7403 -7.1997,-9.3128 z"
     fill="#228232"
     id="path29" />
  <path
     d="m 60.958654,22.621012 c 1.0183,0.3414 2.0365,0.6829 3.0856,1.0347 1.2214,3.169 1.2214,3.169 2.0571,6.2086 -1.0183,0 -2.0365,0 -3.0856,0 0,2.7317 0,5.4635 0,8.2781 -0.3394,0 -0.6788,0 -1.0285,0 -1.0655,-5.2256 -1.134,-10.2174 -1.0286,-15.5214 z"
     fill="#09270e"
     id="path30" />
  <path
     d="m 58.130154,0.24431176 c 0.594,0.2134 1.188,0.4268 1.8,0.6467 0,1.02440004 0,2.04880004 0,3.10430004 -0.5516,-0.2348 -1.1031,-0.4695 -1.6714,-0.7114 -2.6147,-0.5917 -2.6147,-0.5917 -5.2712,1.2288 -4.4509,2.0667 -6.8198,1.4239 -11.571,0.5174 0,-0.3415 0,-0.683 0,-1.0348 0.6948,-0.1254 1.3895,-0.2508 2.1053,-0.38 1.3762,-0.2601 1.3762,-0.2601 2.7802,-0.5254 0.9069,-0.1681 1.8138,-0.3361 2.7481,-0.5093 2.6519,-0.5506 2.6519,-0.5506 4.9016,-1.78660004 1.8642,-0.9377 1.8642,-0.9377 4.1784,-0.5497 z"
     fill="#081907"
     id="path31" />
  <path
     d="m 104.67155,63.752612 c 2.571,0.2587 2.571,0.2587 4.628,2.3283 -0.339,1.0244 -0.679,2.0488 -1.028,3.1042 -0.34,-1.0244 -0.679,-2.0488 -1.029,-3.1042 -4.545,1.3971 -6.524,3.3745 -9.256996,7.2433 -0.679,-0.3415 -1.357,-0.683 -2.057,-1.0348 5.309996,-8.1914 5.309996,-8.1914 8.742996,-8.5368 z"
     fill="#0b230b"
     id="path32" />
  <path
     d="m 10.560654,46.420412 c 2.5074,-0.0558 5.0135,-0.0969 7.5211,-0.1293 0.71,-0.0174 1.42,-0.0347 2.1515,-0.0526 3.8746,-0.0376 5.5335,0.0331 8.841,2.2514 -4.073,1.0245 -8.146,2.0489 -12.3424,3.1043 0,-0.6829 0,-1.3659 0,-2.0695 1.3577,-0.3415 2.7153,-0.6829 4.1141,-1.0348 -3.3941,-0.3414 -6.7883,-0.6829 -10.2853,-1.0347 0,-0.3415 0,-0.683 0,-1.0348 z"
     fill="#104015"
     id="path33" />
  <path
     d="m 91.814554,67.115612 c 0.339,2.0488 0.679,4.0977 1.029,6.2086 -3.0552,-0.5122 -3.0552,-0.5122 -6.1717,-1.0348 0,-1.3659 0,-2.7317 0,-4.139 2.0571,-1.0348 2.0571,-1.0348 5.1427,-1.0348 z"
     fill="#2b9e3b"
     id="path34" />
  <path
     d="m 11.589154,13.308112 c 1.3577,0.683 2.7154,1.3659 4.1142,2.0695 -1.3577,1.3659 -2.7154,2.7318 -4.1142,4.1391 -2.5456,-1.0244 -2.5456,-1.0244 -5.1426,-2.0695 2.057,-2.0696 2.057,-2.0696 5.1426,-4.1391 z"
     fill="#020802"
     id="path35" />
  <path
     d="m 36.273954,94.018912 c 4.8855,0.777 4.8855,0.777 7.1997,3.105 -0.3394,1.024 -0.6788,2.049 -1.0285,3.103998 -2.0365,-0.682998 -4.073,-1.365998 -6.1712,-2.068998 0,-1.366 0,-2.732 0,-4.14 z"
     fill="#0a1509"
     id="path36" />
  <path
     d="m 103.12855,70.219912 c 1.358,0.6829 2.715,1.3659 4.114,2.0695 0,0.683 0,1.3659 0,2.0695 -2.376,0.3415 -4.752,0.683 -7.2,1.0348 1.019,-1.7074 2.037,-3.4147 3.086,-5.1738 z"
     fill="#19992a"
     id="path37" />
  <path
     d="m 74.329554,57.802812 c 1.3577,0 2.7154,0 4.1142,0 0,2.3903 0,4.7806 0,7.2433 -2.0571,-1.2934 -2.0571,-1.2934 -4.1142,-3.1043 0,-1.3659 0,-2.7317 0,-4.139 z"
     fill="#289e3c"
     id="path38" />
  <path
     d="m 82.557754,96.088912 c 0.3395,0 0.6789,0 1.0286,0 0,5.463998 0,10.926998 0,16.555998 -1.0183,0 -2.0365,0 -3.0856,0 0.3394,-0.683 0.6788,-1.366 1.0285,-2.069 0.2369,-2.454 0.4229,-4.913 0.5786,-7.373 0.0861,-1.326 0.1723,-2.652 0.2611,-4.017998 0.0935,-1.532 0.0935,-1.532 0.1888,-3.096 z"
     fill="#103c15"
     id="path39" />
  <path
     d="m 56.844554,6.0648118 c 0,2.0488 0,4.0977002 0,6.2086002 -2.5713,-1.4228 -2.5713,-1.4228 -5.1427,-3.1043002 0,-0.683 0,-1.3659 0,-2.0695 2.0571,-1.0348 2.0571,-1.0348 5.1427,-1.0348 z"
     fill="#2d9d3a"
     id="path40" />
  <path
     d="m 67.129854,106.43691 c -0.3394,1.024 -0.6788,2.048 -1.0285,3.104 0,0.341 0,0.683 0,1.035 0,0.683 0,1.365 0,2.069 -1.3577,0 -2.7154,0 -4.1142,0 0.3857,-2.522 0.3857,-2.522 1.0286,-5.174 2.057,-1.034 2.057,-1.034 4.1141,-1.034 z"
     fill="#39af45"
     id="path41" />
  <path
     d="m 51.701854,100.22791 c 3.5809,-0.103 6.8215,0.067 10.2854,1.035 0.3394,0.683 0.6788,1.366 1.0285,2.069 -7.6405,0.148 -7.6405,0.148 -11.3139,-1.034 0,-0.683 0,-1.366 0,-2.07 z"
     fill="#75a85a"
     id="path42" />
  <path
     d="m 40.388054,67.115612 c 2.0365,0 4.073,0 6.1712,0 0,0.683 0,1.3659 0,2.0695 -2.0365,0.683 -4.073,1.3659 -6.1712,2.0696 0,-1.3659 0,-2.7318 0,-4.1391 z"
     fill="#102e10"
     id="path43" />
</svg>
