<svg width="137" height="134" viewBox="0 0 137 134" fill="none" xmlns="http://www.w3.org/2000/svg">
<path d="M104.91 30.008C116.216 39.4257 122.817 51.6981 125.187 66.168C126.708 82.5506 122.116 95.5995 112.946 108.779C105.013 117.751 93.0799 124.49 81.254 126.241C64.4346 127.186 50.4563 123.762 37.1276 112.789C27.306 103.368 21.6094 89.9994 21.2451 76.461C21.0537 59.1375 25.3478 46.9701 37.0271 34.147C56.0514 15.8864 83.7052 14.812 104.91 30.008Z" fill="#070602"/>
<path d="M27.7703 61.0507C29.8068 61.5629 29.8068 61.5629 31.8844 62.0855C32.1469 63.34 32.1469 63.34 32.4148 64.6198C34.1301 72.9749 34.1301 72.9749 39.0841 79.6764C42.5213 81.8434 45.2843 82.025 49.3052 82.0046C50.3539 82.0099 51.4026 82.0153 52.4832 82.0208C55.6235 81.7385 57.8286 80.9787 60.6833 79.6764C61.7015 79.3349 62.7198 78.9934 63.7689 78.6416C65.8989 74.4896 66.9367 69.7843 68.2084 65.3029C68.9115 63.1202 68.9115 63.1202 69.9401 62.0855C72.9614 61.8915 72.9614 61.8915 76.1113 62.0855C78.6423 64.6319 78.8536 66.9151 79.6589 70.3353C80.7902 74.5246 82.6921 77.0006 85.7537 79.9997C91.403 82.6455 96.7273 82.5065 102.853 81.7459C107.276 79.8281 108.555 78.4835 110.824 74.2439C112.162 70.207 113.227 66.2324 114.167 62.0855C115.525 61.744 116.882 61.4025 118.281 61.0507C121.834 68.2003 120.173 81.2275 118.377 88.7588C115.872 95.037 112.411 100.463 107.996 105.545C107.505 106.159 107.015 106.773 106.509 107.405C100.478 114.296 90.3408 119.919 81.2539 121.067C65.2035 121.969 53.9764 119.361 41.101 109.038C35.9114 104.254 32.9189 98.3815 29.8274 92.0935C29.4522 91.4252 29.0769 90.757 28.6904 90.0684C26.2331 84.4224 26.5841 78.2186 26.6132 72.1744C26.6092 71.3314 26.6053 70.4884 26.6012 69.6198C26.6114 63.3825 26.6114 63.3825 27.7703 61.0507Z" fill="#F7C80E"/>
<path d="M97.5939 31.8714C104.951 36.9606 111.074 42.6412 115.195 50.7032C115.195 51.3862 115.195 52.0691 115.195 52.7727C114.397 52.7619 113.599 52.7511 112.777 52.7399C109.126 52.6966 105.475 52.6699 101.825 52.6434C100.569 52.626 99.3134 52.6087 98.0198 52.5908C91.3043 52.5543 85.6355 52.9791 79.1968 54.8422C75.9465 55.1171 75.9465 55.1171 72.9614 55.1009C71.4797 55.1089 71.4797 55.1089 69.9682 55.1171C66.8545 54.8422 66.8545 54.8422 63.801 53.7994C57.6999 51.9089 51.1149 52.5601 44.8053 52.6434C43.4643 52.6527 42.1232 52.6621 40.7414 52.6717C37.4461 52.696 34.1511 52.7299 30.8559 52.7727C31.4944 51.4563 32.1366 50.1416 32.7804 48.8277C33.3162 47.7293 33.3162 47.7293 33.8629 46.6086C38.664 37.4412 48.842 29.9837 58.4294 26.5157C71.8416 23.8732 85.8874 24.5245 97.5939 31.8714Z" fill="#F8CA10"/>
<path d="M104.91 30.008C116.216 39.4257 122.817 51.6981 125.187 66.168C126.708 82.5505 122.116 95.5994 112.946 108.779C105.013 117.751 93.0799 124.49 81.2539 126.241C64.4346 127.186 50.4563 123.762 37.1275 112.789C29.0589 105.049 22.1638 92.8196 21.4497 81.4329C21.4244 78.6269 21.4082 75.8213 21.4063 73.0152C21.3937 72.0408 21.3811 71.0664 21.3681 70.0625C21.3495 61.232 21.3495 61.232 23.6562 56.9117C24.335 57.9361 25.0138 58.9605 25.7132 60.016C27.8313 60.765 27.8313 60.765 29.8274 61.0508C29.1485 61.0508 28.4697 61.0508 27.7703 61.0508C27.7098 64.3274 27.6738 67.6039 27.6417 70.881C27.6245 71.7987 27.6073 72.7164 27.5895 73.6619C27.4892 87.387 32.1821 98.3221 41.5591 108.306C52.42 118.13 63.1739 120.653 77.3045 120.291C82.24 119.967 86.0572 119.016 90.5107 116.928C91.3407 116.588 92.1706 116.247 93.0258 115.897C105.864 110.189 111.895 100.435 117.252 87.9545C119.118 82.3244 118.947 76.3223 119.245 70.4283C119.341 69.1151 119.438 67.8019 119.537 66.4489C120.137 53.7868 116.03 45.0504 107.698 35.7234C105.849 34.0669 104.082 33.0791 101.825 32.0775C101.825 33.1019 101.825 34.1263 101.825 35.1818C100.833 34.6709 99.8411 34.16 98.8193 33.6337C97.5069 32.9638 96.1945 32.2942 94.8819 31.6248C94.2296 31.288 93.5773 30.9512 92.9052 30.6042C82.4525 25.2914 69.2035 25.1456 57.8709 27.8051C49.2546 31.2298 42.4264 36.8632 35.9986 43.4599C35.3197 42.7769 34.6409 42.094 33.9415 41.3903C33.5199 42.1133 33.0983 42.8362 32.6639 43.5811C32.1097 44.5228 31.5555 45.4645 30.9845 46.4348C30.4356 47.3712 29.8867 48.3075 29.3211 49.2723C27.7703 51.7379 27.7703 51.7379 25.7132 53.8074C26.1639 48.4237 28.089 45.0627 31.3702 40.9376C31.8322 40.3487 32.2943 39.7598 32.7703 39.1531C50.9534 16.6403 81.5835 13.2916 104.91 30.008Z" fill="#151002"/>
<path d="M104.91 30.008C116.223 39.4309 122.773 51.6727 125.191 66.1316C125.725 72.0284 125.431 77.9779 124.452 83.8155C123.434 84.8399 123.434 84.8399 122.395 85.885C122.38 85.2863 122.365 84.6877 122.35 84.0709C121.836 65.728 120.323 50.0697 107.735 35.7962C105.871 34.0851 104.126 33.0909 101.825 32.0775C101.825 33.1019 101.825 34.1263 101.825 35.1818C100.833 34.6709 99.8411 34.16 98.8193 33.6337C97.507 32.9638 96.1945 32.2942 94.8819 31.6248C94.2296 31.288 93.5773 30.9512 92.9052 30.6042C82.4525 25.2914 69.2035 25.1456 57.8709 27.8051C49.2546 31.2298 42.4264 36.8632 35.9986 43.4599C35.3197 42.7769 34.6409 42.094 33.9415 41.3903C33.5199 42.1133 33.0983 42.8362 32.6639 43.5811C32.1097 44.5228 31.5555 45.4645 30.9845 46.4348C30.4356 47.3712 29.8867 48.3075 29.3211 49.2723C27.7703 51.7379 27.7703 51.7379 25.7133 53.8074C26.1639 48.4237 28.089 45.0627 31.3702 40.9376C31.8322 40.3487 32.2943 39.7598 32.7703 39.1531C50.9534 16.6403 81.5835 13.2916 104.91 30.008Z" fill="#1D1704"/>
<path d="M119.31 57.9465C120.328 58.4587 120.328 58.4587 121.367 58.9812C122.824 64.4597 122.875 70.1599 123.167 75.7961C123.237 76.8298 123.307 77.8636 123.38 78.9286C123.952 90.2311 120.722 97.5875 114.167 106.58C113.552 107.477 112.937 108.373 112.303 109.296C107.522 114.519 102.717 118.858 95.6534 120.032C92.8217 121.027 90.0336 122.112 87.2363 123.201C81.4638 125.134 76.0977 125.343 70.0687 124.947C68.9828 124.879 68.9828 124.879 67.875 124.81C62.5326 124.401 58.2911 123.384 53.4836 121.067C53.8231 120.042 54.1625 119.018 54.5122 117.963C55.0637 118.112 55.6153 118.261 56.1835 118.415C67.318 121.068 79.9447 121.882 90.5107 116.928C91.7557 116.418 91.7557 116.418 93.0258 115.897C105.864 110.189 111.895 100.435 117.253 87.9545C118.341 84.669 118.489 82.1155 118.607 78.6619C118.671 76.8561 118.671 76.8561 118.737 75.0139C118.778 73.7568 118.818 72.4996 118.86 71.2043C118.926 69.3006 118.926 69.3006 118.994 67.3583C119.103 64.2212 119.208 61.0839 119.31 57.9465Z" fill="#0B0902"/>
<path d="M84.3395 21.7299C93.6272 21.1972 100.507 26.5282 107.289 32.4656C111.51 36.4839 115.151 40.6015 118.281 45.5294C118.669 46.127 119.058 46.7245 119.458 47.3402C125.581 58.0459 126.716 71.8436 124.452 83.8155C123.773 84.4984 123.095 85.1814 122.395 85.885C122.38 85.2864 122.365 84.6877 122.35 84.0709C121.836 65.728 120.323 50.0697 107.735 35.7962C105.871 34.0851 104.126 33.091 101.825 32.0775C101.825 33.1019 101.825 34.1263 101.825 35.1818C100.833 34.6709 99.8411 34.1601 98.8193 33.6337C97.507 32.9639 96.1945 32.2942 94.882 31.6248C94.2296 31.288 93.5773 30.9512 92.9052 30.6042C86.7306 27.4658 81.6857 26.6936 74.8256 26.3217C73.6761 26.2546 73.6761 26.2546 72.5034 26.1863C70.6206 26.077 68.7376 25.9725 66.8545 25.869C66.8545 25.5275 66.8545 25.186 66.8545 24.8342C72.964 24.4927 79.0734 24.1513 85.368 23.7994C85.0286 23.458 84.6892 23.1165 84.3395 22.7647C84.3395 22.4232 84.3395 22.0817 84.3395 21.7299Z" fill="#120F04"/>
<path d="M119.31 57.9465C119.988 58.2879 120.667 58.6294 121.367 58.9812C122.824 64.4597 122.875 70.1599 123.167 75.7961C123.272 77.3467 123.272 77.3467 123.379 78.9286C123.831 87.8372 122.417 94.9659 117.188 102.312C116.667 103.056 116.146 103.8 115.609 104.567C115.133 105.232 114.657 105.896 114.167 106.58C113.488 107.605 112.809 108.629 112.11 109.684C111.431 109.684 110.752 109.684 110.053 109.684C110.053 108.66 110.053 107.636 110.053 106.58C108.695 107.946 107.337 109.312 105.939 110.719C104.92 110.378 103.902 110.036 102.853 109.684C103.289 109.33 103.725 108.975 104.175 108.609C111.094 102.398 117.783 91.5078 118.492 82.0281C118.53 80.9173 118.568 79.8064 118.606 78.6619C118.65 77.4581 118.693 76.2542 118.737 75.0139C118.777 73.7568 118.818 72.4996 118.86 71.2043C118.904 69.9352 118.948 68.666 118.994 67.3583C119.103 64.2212 119.208 61.0839 119.31 57.9465Z" fill="#140F03"/>
<path d="M23.6562 56.9117C24.335 57.9362 25.0138 58.9606 25.7132 60.016C27.8313 60.765 27.8313 60.765 29.8274 61.0508C29.1485 61.0508 28.4697 61.0508 27.7703 61.0508C27.7401 64.3275 27.722 67.6042 27.706 70.881C27.6974 71.7987 27.6888 72.7164 27.6799 73.6619C27.6641 77.9955 27.763 82.1468 28.4172 86.4347C28.5431 87.6192 28.6691 88.8037 28.7988 90.024C28.12 90.707 27.4412 91.3899 26.7418 92.0936C31.1096 101.235 35.5268 108.085 43.1983 114.858C38.9419 114.858 38.0631 113.69 34.97 110.719C25.6639 99.3382 21.4161 87.5313 21.4063 73.0152C21.3937 72.0408 21.3811 71.0664 21.3681 70.0625C21.3495 61.232 21.3495 61.232 23.6562 56.9117Z" fill="#342B03"/>
<path d="M90.5107 88.9893C91.529 89.3308 92.5472 89.6723 93.5963 90.0241C93.0312 93.7762 91.8459 95.1661 88.8394 97.3967C82.701 101.748 76.4042 103.322 68.9116 102.441C62.4022 101.095 56.7139 98.4187 52.4551 93.1284C52.4551 92.1039 52.4551 91.0795 52.4551 90.0241C56.1893 90.3763 58.2775 91.5071 61.1976 93.7104C66.8264 97.3999 72.7106 97.1277 79.1969 96.2326C83.865 94.7257 87.1558 92.5588 90.5107 88.9893Z" fill="#1B1701"/>
<path d="M73.54 19.531C75.2105 19.527 75.2105 19.527 76.9148 19.5229C80.1574 19.6576 83.2112 20.087 86.3966 20.6951C86.0572 22.061 85.7178 23.4269 85.3681 24.8342C83.5603 24.9282 83.5603 24.9282 81.716 25.0242C72.9729 25.4895 64.252 25.9964 55.5407 26.9037C55.2013 26.2208 54.8618 25.5378 54.5121 24.8342C55.3395 24.5354 56.1668 24.2366 57.0192 23.9288C59.7912 23.0413 59.7912 23.0413 60.6833 20.6951C64.9801 19.6907 69.1414 19.5205 73.54 19.531ZM52.4551 25.8689C54.5121 26.9037 54.5121 26.9037 54.5121 26.9037L52.4551 25.8689Z" fill="#0B0902"/>
<path d="M54.5122 117.963C55.0518 118.1 55.5914 118.237 56.1474 118.379C62.893 119.926 69.5136 120.423 76.4044 120.713C82.0853 120.968 82.0853 120.968 84.3396 122.102C84.3396 122.785 84.3396 123.468 84.3396 124.171C79.509 125.17 74.9656 125.269 70.0687 124.947C68.9828 124.879 68.9828 124.879 67.875 124.81C62.5326 124.401 58.2911 123.384 53.4836 121.067C53.8231 120.042 54.1625 119.018 54.5122 117.963Z" fill="#030201"/>
<path d="M118.281 61.0507C120.213 64.9373 119.5 69.6441 119.502 73.9205C119.515 74.9216 119.528 75.9227 119.541 76.9541C119.543 77.9151 119.545 78.8762 119.547 79.8664C119.551 80.7473 119.555 81.6282 119.559 82.5359C119.31 84.8502 119.31 84.8502 117.252 87.9545C116.913 86.5886 116.574 85.2227 116.224 83.8154C116.903 83.8154 117.582 83.8154 118.281 83.8154C118.083 80.3461 118.083 80.3461 117.252 76.5721C116.531 75.9532 115.81 75.3343 115.067 74.6966C113.138 72.4331 113.138 72.4331 113.026 69.9189C113.253 67.2297 113.495 64.6997 114.167 62.0855C116.224 61.0507 116.224 61.0507 118.281 61.0507Z" fill="#E5C10E"/>
<path d="M119.31 92.0936C119.988 92.0936 120.667 92.0936 121.367 92.0936C120.791 96.138 119.644 98.7207 117.317 102.053C116.777 102.835 116.238 103.616 115.682 104.422C115.182 105.134 114.682 105.846 114.167 106.58C113.149 108.117 113.149 108.117 112.11 109.684C111.431 109.684 110.752 109.684 110.053 109.684C110.053 108.66 110.053 107.636 110.053 106.58C108.695 107.946 107.337 109.312 105.939 110.719C104.92 110.378 103.902 110.036 102.853 109.684C103.325 109.246 103.797 108.807 104.283 108.355C108.534 104.267 111.494 100.468 114.167 95.1978C115.185 96.7345 115.185 96.7345 116.224 98.3021C117.242 96.2533 118.26 94.2045 119.31 92.0936Z" fill="#201804"/>
<path d="M119.31 53.8074C120.328 53.8074 121.346 53.8074 122.395 53.8074C124.917 64.0419 126.443 73.2919 124.452 83.8155C123.773 84.4984 123.095 85.1813 122.395 85.885C122.375 85.2809 122.354 84.6768 122.333 84.0544C122.234 81.2581 122.122 78.4625 122.009 75.6667C121.978 74.717 121.946 73.7673 121.913 72.7888C121.64 66.2881 120.767 60.1458 119.31 53.8074Z" fill="#3C3309"/>
<path d="M27.7703 61.0507C29.8068 61.5629 29.8068 61.5629 31.8844 62.0855C32.0849 63.5935 32.276 65.1028 32.463 66.6126C32.5704 67.4529 32.6778 68.2932 32.7884 69.159C32.9129 71.3983 32.9129 71.3983 31.8844 73.4678C30.8662 73.8093 29.8479 74.1508 28.7988 74.5026C28.4594 76.8929 28.12 79.2832 27.7703 81.7459C27.4309 81.7459 27.0915 81.7459 26.7418 81.7459C26.7141 78.6847 26.6936 75.6237 26.6775 72.5624C26.6689 71.6914 26.6602 70.8204 26.6514 69.923C26.6481 69.0893 26.6447 68.2556 26.6413 67.3967C26.6359 66.6272 26.6305 65.8578 26.625 65.065C26.7418 63.1202 26.7418 63.1202 27.7703 61.0507Z" fill="#ECBC11"/>
<path d="M93.5963 24.8342C104.296 27.5254 113.081 36.6858 118.751 45.8931C121.367 51.0071 121.367 51.0071 121.367 53.8074C118.281 52.7727 118.281 52.7727 117.108 50.6991C116.731 49.8254 116.355 48.9517 115.967 48.0516C111.315 38.347 105.06 33.1776 96.0431 27.4898C95.2357 26.9549 94.4282 26.42 93.5963 25.8689C93.5963 25.5275 93.5963 25.186 93.5963 24.8342Z" fill="#342908"/>
<path d="M34.97 44.4946C35.3094 45.1776 35.6488 45.8605 35.9985 46.5641C37.0168 46.2227 38.035 45.8812 39.0841 45.5294C39.4236 46.5538 39.763 47.5782 40.1127 48.6337C47.2404 49.1459 47.2404 49.1459 54.5121 49.6684C54.5121 50.0099 54.5121 50.3514 54.5121 50.7032C46.5644 51.9771 38.911 53.0521 30.8559 52.7727C32.2136 50.0409 33.5712 47.3092 34.97 44.4946Z" fill="#EBC414"/>
<path d="M52.4551 90.024C57.7677 90.5251 61.5147 93.3198 65.826 96.2325C66.8442 96.9155 67.8625 97.5984 68.9116 98.3021C64.8321 99.3258 61.2675 100.213 57.437 98.1323C55.5468 96.5502 53.9193 95.1177 52.4551 93.1283C52.4551 92.1039 52.4551 91.0794 52.4551 90.024Z" fill="#130F00"/>
<path d="M110.053 105.545C110.888 107.292 110.888 107.292 111.081 109.685C108.703 112.401 108.703 112.401 105.939 114.858C105.26 115.541 104.581 116.224 103.882 116.928C101.307 116.064 99.0806 115.072 96.6819 113.824C101.356 110.819 101.356 110.819 103.946 110.267C106.755 109.446 108.126 107.692 110.053 105.545Z" fill="#251D06"/>
<path d="M23.6562 65.1898C24.3351 65.1898 25.0139 65.1898 25.7133 65.1898C25.7687 67.7338 25.8095 70.2767 25.8418 72.8211C25.8591 73.5441 25.8763 74.267 25.8941 75.0119C25.9122 76.9125 25.8193 78.8134 25.7133 80.7111C25.0345 81.3941 24.3556 82.077 23.6562 82.7807C22.5985 79.5884 22.4902 77.3281 22.4991 73.9852C22.4965 72.9928 22.4938 72.0004 22.4911 70.9779C22.6277 68.294 22.6277 68.294 23.6562 65.1898Z" fill="#010101"/>
<path d="M112.11 48.6337C112.789 48.6337 113.468 48.6337 114.167 48.6337C114.506 49.9995 114.846 51.3654 115.195 52.7727C113.503 52.8005 111.81 52.8207 110.117 52.8374C109.174 52.8494 108.232 52.8614 107.261 52.8738C104.91 52.7727 104.91 52.7727 103.882 51.7379C102.152 51.497 100.414 51.311 98.6747 51.1559C97.2567 51.0258 97.2567 51.0258 95.8101 50.8932C94.7143 50.7991 94.7143 50.7991 93.5963 50.7032C93.5963 50.3617 93.5963 50.0202 93.5963 49.6684C96.1034 49.6405 98.6102 49.62 101.117 49.6038C101.827 49.5951 102.537 49.5864 103.269 49.5775C106.503 49.5618 109.018 49.6664 112.11 50.7032C112.11 50.0202 112.11 49.3373 112.11 48.6337Z" fill="#DFBA11"/>
<path d="M114.167 62.0855C115.185 62.427 116.203 62.7685 117.252 63.1203C117.252 66.8764 117.252 70.6326 117.252 74.5026C116.234 74.5026 115.216 74.5026 114.167 74.5026C112.818 71.7883 113.245 70.1252 113.588 67.13C113.693 66.1883 113.798 65.2465 113.906 64.2763C113.992 63.5533 114.078 62.8304 114.167 62.0855Z" fill="#DCB712"/>
<path d="M23.6562 56.9117C24.335 57.9362 25.0139 58.9606 25.7133 60.016C27.8313 60.765 27.8313 60.765 29.8274 61.0508C29.1486 61.0508 28.4697 61.0508 27.7703 61.0508C27.4309 66.1728 27.0915 71.2949 26.7418 76.5722C26.4024 76.5722 26.063 76.5722 25.7133 76.5722C25.7133 72.816 25.7133 69.0598 25.7133 65.1898C25.0344 65.1898 24.3556 65.1898 23.6562 65.1898C23.2647 62.7829 22.9232 60.3673 22.6277 57.9465C22.9671 57.605 23.3065 57.2636 23.6562 56.9117Z" fill="#241D07"/>
<path d="M35.9986 35.1818C36.6774 35.5232 37.3562 35.8647 38.0556 36.2165C37.5836 36.7928 37.1116 37.369 36.6253 37.9627C32.5705 43.0362 29.4195 47.8809 26.7418 53.8074C26.0186 52.0613 26.0186 52.0613 25.7133 49.6684C27.0793 47.1462 27.0793 47.1462 29.056 44.4946C29.6977 43.6196 30.3394 42.7446 31.0005 41.843C31.6316 41.0107 32.2627 40.1784 32.913 39.3208C33.5016 38.5311 34.0903 37.7415 34.6968 36.9279C35.1264 36.3517 35.556 35.7755 35.9986 35.1818Z" fill="#3A3106"/>
<path d="M71.0971 21.6652C72.415 21.6746 73.7329 21.6839 75.0907 21.6935C76.1063 21.7055 77.1219 21.7175 78.1683 21.7299C75.0009 23.8543 73.6169 24.2012 69.94 24.5755C69.0491 24.6769 68.1581 24.7782 67.2401 24.8827C64.7974 24.8342 64.7974 24.8342 61.7118 22.7647C64.8006 21.2109 67.6677 21.6339 71.0971 21.6652Z" fill="#000002"/>
<path d="M39.0842 56.9117C40.4418 56.9117 41.7995 56.9117 43.1983 56.9117C42.6355 60.4037 42.1133 62.1708 40.1127 65.1898C39.4339 65.1898 38.755 65.1898 38.0556 65.1898C38.012 62.7758 38.0136 60.3606 38.0556 57.9465C38.3951 57.605 38.7345 57.2636 39.0842 56.9117Z" fill="#232527"/>
<path d="M112.11 40.3556C115.868 41.842 117.191 43.5202 119.052 47.0815C119.493 47.9032 119.933 48.7249 120.386 49.5714C121.367 51.7379 121.367 51.7379 121.367 53.8075C118.281 52.7727 118.281 52.7727 116.891 50.4809C116.459 49.5512 116.026 48.6215 115.581 47.6636C115.144 46.7365 114.706 45.8095 114.255 44.8544C113.887 44.0527 113.518 43.2511 113.138 42.4251C112.799 41.7422 112.46 41.0592 112.11 40.3556Z" fill="#38300C"/>
<path d="M86.3966 24.8342C86.736 25.5171 87.0754 26.2001 87.4251 26.9037C80.6368 26.5622 73.8485 26.2208 66.8545 25.869C66.8545 25.5275 66.8545 25.186 66.8545 24.8342C69.1465 24.6314 71.4395 24.4395 73.7328 24.2521C75.648 24.0901 75.648 24.0901 77.6018 23.9247C80.8191 23.8144 83.3331 23.8793 86.3966 24.8342Z" fill="#594A0B"/>
<path d="M90.5107 27.9385C95.0951 28.2098 97.2119 28.5356 100.732 31.6248C101.432 32.4571 102.132 33.2895 102.853 34.147C99.3113 34.147 97.9697 33.3235 94.9463 31.5601C94.115 31.0799 93.2837 30.5997 92.4272 30.105C91.7948 29.7315 91.1623 29.358 90.5107 28.9732C90.5107 28.6318 90.5107 28.2903 90.5107 27.9385Z" fill="#1C1605"/>
<path d="M110.053 105.545C110.696 107.486 110.696 107.486 111.081 109.685C108.548 112.233 106.24 112.786 102.853 113.824C102.853 112.799 102.853 111.775 102.853 110.719C103.871 110.378 104.89 110.036 105.939 109.685C107.35 108.346 108.728 106.97 110.053 105.545Z" fill="#070602"/>
<path d="M119.31 92.0936C119.988 92.0936 120.667 92.0936 121.367 92.0936C120.82 96.7677 119.011 99.7372 116.224 103.476C115.206 103.988 115.206 103.988 114.167 104.511C115.802 100.335 117.543 96.2139 119.31 92.0936Z" fill="#483708"/>
<path d="M66.8545 93.1284C74.8256 93.9044 74.8256 93.9044 77.1398 96.2326C73.4062 96.2326 69.6726 96.2326 65.8259 96.2326C66.1653 95.2082 66.5048 94.1838 66.8545 93.1284Z" fill="#F9CD1A"/>
<path d="M76.1112 97.2674C76.1112 97.6088 76.1112 97.9503 76.1112 98.3021C75.1142 98.4302 74.1172 98.5582 73.0899 98.6901C71.5307 99.0103 71.5307 99.0103 69.94 99.3369C69.6006 100.02 69.2612 100.703 68.9115 101.406C66.5356 101.065 64.1597 100.723 61.7118 100.372C66.7213 97.7648 70.4446 97.1598 76.1112 97.2674Z" fill="#2C2402"/>
<path d="M103.882 34.147C105.918 35.8544 107.955 37.5617 110.053 39.3208C109.374 40.0038 108.695 40.6867 107.996 41.3903C105.959 39.683 103.923 37.9756 101.825 36.2166C102.503 35.5336 103.182 34.8507 103.882 34.147Z" fill="#1B1507"/>
<path d="M93.5963 24.8342C98.233 26.136 101.301 27.8392 104.91 31.0427C100.271 30.4937 97.3157 28.6536 93.5963 25.8689C93.5963 25.5275 93.5963 25.186 93.5963 24.8342Z" fill="#241F06"/>
</svg>
